<svg width="188" height="112" viewBox="0 0 188 112" fill="none" xmlns="http://www.w3.org/2000/svg">
<ellipse cx="93.5" cy="50" rx="49.5" ry="50" fill="#C4C4C4" fill-opacity="0.32"/>
<path d="M84.6309 49H82.9316V40H84.6309V49ZM85.7676 45.7715C85.7676 45.1426 85.8887 44.582 86.1309 44.0898C86.373 43.5977 86.7207 43.2168 87.1738 42.9473C87.6309 42.6777 88.1602 42.543 88.7617 42.543C89.6172 42.543 90.3145 42.8047 90.8535 43.3281C91.3965 43.8516 91.6992 44.5625 91.7617 45.4609L91.7734 45.8945C91.7734 46.8672 91.502 47.6484 90.959 48.2383C90.416 48.8242 89.6875 49.1172 88.7734 49.1172C87.8594 49.1172 87.1289 48.8242 86.582 48.2383C86.0391 47.6523 85.7676 46.8555 85.7676 45.8477V45.7715ZM87.4609 45.8945C87.4609 46.4961 87.5742 46.957 87.8008 47.2773C88.0273 47.5938 88.3516 47.752 88.7734 47.752C89.1836 47.752 89.5039 47.5957 89.7344 47.2832C89.9648 46.9668 90.0801 46.4629 90.0801 45.7715C90.0801 45.1816 89.9648 44.7246 89.7344 44.4004C89.5039 44.0762 89.1797 43.9141 88.7617 43.9141C88.3477 43.9141 88.0273 44.0762 87.8008 44.4004C87.5742 44.7207 87.4609 45.2188 87.4609 45.8945ZM92.5703 45.7832C92.5703 44.8105 92.8008 44.0273 93.2617 43.4336C93.7266 42.8398 94.3516 42.543 95.1367 42.543C95.832 42.543 96.373 42.7812 96.7598 43.2578L96.8301 42.6602H98.3652V48.7891C98.3652 49.3438 98.2383 49.8262 97.9844 50.2363C97.7344 50.6465 97.3809 50.959 96.9238 51.1738C96.4668 51.3887 95.9316 51.4961 95.3184 51.4961C94.8535 51.4961 94.4004 51.4023 93.959 51.2148C93.5176 51.0312 93.1836 50.793 92.957 50.5L93.707 49.4688C94.1289 49.9414 94.6406 50.1777 95.2422 50.1777C95.6914 50.1777 96.041 50.0566 96.291 49.8145C96.541 49.5762 96.666 49.2363 96.666 48.7949V48.4551C96.2754 48.8965 95.7617 49.1172 95.125 49.1172C94.3633 49.1172 93.7461 48.8203 93.2734 48.2266C92.8047 47.6289 92.5703 46.8379 92.5703 45.8535V45.7832ZM94.2637 45.9062C94.2637 46.4805 94.3789 46.9316 94.6094 47.2598C94.8398 47.584 95.1562 47.7461 95.5586 47.7461C96.0742 47.7461 96.4434 47.5527 96.666 47.166V44.5C96.4395 44.1133 96.0742 43.9199 95.5703 43.9199C95.1641 43.9199 94.8438 44.0859 94.6094 44.418C94.3789 44.75 94.2637 45.2461 94.2637 45.9062ZM99.4082 45.7715C99.4082 45.1426 99.5293 44.582 99.7715 44.0898C100.014 43.5977 100.361 43.2168 100.814 42.9473C101.271 42.6777 101.801 42.543 102.402 42.543C103.258 42.543 103.955 42.8047 104.494 43.3281C105.037 43.8516 105.34 44.5625 105.402 45.4609L105.414 45.8945C105.414 46.8672 105.143 47.6484 104.6 48.2383C104.057 48.8242 103.328 49.1172 102.414 49.1172C101.5 49.1172 100.77 48.8242 100.223 48.2383C99.6797 47.6523 99.4082 46.8555 99.4082 45.8477V45.7715ZM101.102 45.8945C101.102 46.4961 101.215 46.957 101.441 47.2773C101.668 47.5938 101.992 47.752 102.414 47.752C102.824 47.752 103.145 47.5957 103.375 47.2832C103.605 46.9668 103.721 46.4629 103.721 45.7715C103.721 45.1816 103.605 44.7246 103.375 44.4004C103.145 44.0762 102.82 43.9141 102.402 43.9141C101.988 43.9141 101.668 44.0762 101.441 44.4004C101.215 44.7207 101.102 45.2188 101.102 45.8945Z" fill="#FFF7F7"/>
</svg>
