<svg width="108" height="107" viewBox="0 0 108 107" fill="none" xmlns="http://www.w3.org/2000/svg">
<path d="M29.8945 67.9715L23.5676 65.6209C22.3651 65.1741 21.5681 64.0351 21.5681 62.7624V60.2991H12.3249V62.7626C12.3249 64.0351 11.5282 65.1741 10.3256 65.6209L3.99874 67.9715C1.59342 68.8652 0 71.1431 0 73.6881V84.7204C0 86.4063 1.37953 87.773 3.08116 87.773H33.893V73.6881C33.893 71.1431 32.2996 68.8652 29.8945 67.9715Z" fill="#E6AF78"/>
<path d="M16.9465 64.8782C18.6764 64.8782 20.3264 64.5486 21.8548 63.9726C21.6875 63.5942 21.5682 63.1931 21.5682 62.7624V60.2991H12.3249V62.7626C12.3249 63.1931 12.2057 63.5942 12.0382 63.9724C13.5667 64.5486 15.2166 64.8782 16.9465 64.8782Z" fill="#D29B6E"/>
<path d="M3.08116 87.7732H33.893V73.6883C33.893 71.1433 32.2996 68.8654 29.8943 67.9717L23.8091 65.711L19.1253 70.3515C17.9221 71.5435 15.9711 71.5435 14.7677 70.3515L10.0839 65.711L3.99853 67.9717C1.59342 68.8652 0 71.1431 0 73.6881V84.7204C0 86.4065 1.37953 87.7732 3.08116 87.7732Z" fill="#DBD9DC"/>
<path d="M17.006 61.8255H16.887C10.9639 61.8255 6.16235 57.0684 6.16235 51.2001V46.5032C6.16235 40.6349 10.9639 35.8778 16.887 35.8778H17.006C22.9291 35.8778 27.7307 40.6349 27.7307 46.5032V51.1999C27.7307 57.0682 22.9291 61.8255 17.006 61.8255Z" fill="#F0C087"/>
<path d="M12.3249 51.1412V46.5621C12.3249 41.7229 15.5744 37.6402 20.0279 36.3261C19.0511 36.0379 18.0181 35.8778 16.9468 35.8778C10.991 35.8778 6.1626 40.6613 6.1626 46.5621V51.1412C6.1626 57.0419 10.991 61.8255 16.9468 61.8255C18.0183 61.8255 19.0511 61.6654 20.0279 61.3773C15.5742 60.0629 12.3249 55.9802 12.3249 51.1412Z" fill="#E6AF78"/>
<path d="M4.80874 74.2212L0.972633 70.4208C0.358383 71.3784 0 72.5006 0 73.6881V84.7204C0 86.4063 1.37953 87.773 3.08116 87.773H6.16233V77.459C6.16233 76.2446 5.67548 75.0799 4.80874 74.2212Z" fill="#EDEBED"/>
<path d="M15.406 70.8231V87.7732H18.4872V70.8231C17.5346 71.3709 16.3584 71.3709 15.406 70.8231Z" fill="#EDEBED"/>
<path d="M16.9468 41.9829C20.3497 41.9829 23.1082 39.2498 23.1082 35.8784C23.1082 32.507 20.3497 29.774 16.9468 29.774C13.5439 29.774 10.7853 32.507 10.7853 35.8784C10.7853 39.2498 13.5439 41.9829 16.9468 41.9829Z" fill="#6E4B53"/>
<path d="M6.16235 46.5621V49.9874C7.86884 49.1866 9.95881 47.9239 11.5581 46.0449C12.0254 45.4959 12.8246 45.3826 13.4566 45.7344C15.4875 46.8647 20.25 49.0177 27.7307 49.5048V46.5621C27.7307 40.6613 22.9026 35.8778 16.9465 35.8778C10.9907 35.8778 6.16235 40.6613 6.16235 46.5621Z" fill="#5C414B"/>
<path d="M11.0591 37.617C8.11289 39.5242 6.16235 42.815 6.16235 46.5619V49.9872C7.86863 49.1866 9.95902 47.9237 11.5581 46.0447C11.8032 45.7567 12.1401 45.5962 12.4958 45.5523C11.3546 43.4038 10.4632 40.6015 11.0591 37.617Z" fill="#503441"/>
<path d="M104.616 64.168L96.8708 60.6155C95.8419 60.1436 95.1789 59.0905 95.1789 57.9284V52.4883H83.7823V57.9284C83.7823 59.0903 83.1194 60.1434 82.0904 60.6153L74.345 64.168C72.2871 65.1118 70.9609 67.2179 70.9609 69.5419V87.7732H105.151C106.724 87.7732 108 86.4568 108 84.8328V69.5421C108 67.2179 106.674 65.1118 104.616 64.168Z" fill="#FAD7A5"/>
<path d="M104.616 64.1678L96.9235 60.6395L91.4953 66.0175C90.3826 67.1199 88.5786 67.1199 87.4659 66.0175L82.0377 60.6393L74.345 64.1678C72.2871 65.1118 70.9609 67.2177 70.9609 69.5418V87.7732L105.151 87.773C106.725 87.773 108 86.4566 108 84.8326V69.5418C108 67.2177 106.674 65.1118 104.616 64.1678Z" fill="#DBD9DC"/>
<path d="M83.7823 52.4883V57.9284C83.7823 58.4669 83.6273 58.975 83.3718 59.4197C85.1888 60.3994 87.2704 60.9566 89.4806 60.9566C91.6908 60.9566 93.7721 60.3996 95.5891 59.4199C95.3337 58.9752 95.1786 58.4669 95.1786 57.9284V52.4883H83.7823Z" fill="#F0C891"/>
<path d="M89.4806 58.1338C83.9733 58.1338 79.5085 53.7105 79.5085 48.2541V39.7856H99.4527V48.2541C99.4527 53.7105 94.9882 58.1338 89.4806 58.1338Z" fill="#FFE1B4"/>
<path d="M85.2068 48.2541V39.7856H79.5085V48.2541C79.5085 53.7105 83.9733 58.1338 89.4806 58.1338C90.4714 58.1338 91.4265 57.9859 92.3298 57.7192C88.2116 56.5042 85.2068 52.7289 85.2068 48.2541Z" fill="#FAD7A5"/>
<path d="M90.9052 32.7288H88.0561C82.5487 32.7288 78.084 37.1522 78.084 42.6086V44.8664C78.084 45.9124 79.2041 46.6225 80.1379 46.1345C81.5832 45.3793 83.2783 43.9703 84.4174 42.4504C84.8774 41.8366 85.7621 41.7455 86.3806 42.2027C90.901 45.5448 97.1973 44.7766 99.7426 44.2783C100.406 44.1486 100.877 43.5659 100.877 42.8961V42.6083C100.877 37.152 96.4126 32.7288 90.9052 32.7288Z" fill="#D59F63"/>
<path d="M80.1379 46.1346C81.5832 45.3793 83.2783 43.9703 84.4174 42.4504C84.5916 42.2178 84.8348 42.0851 85.0934 42.004C83.0794 39.2264 82.9421 36.1301 83.1922 33.9878C80.1459 35.6784 78.0837 38.9031 78.0837 42.6086V44.8664C78.0837 45.9122 79.2038 46.6223 80.1379 46.1346Z" fill="#CD915A"/>
<path d="M100.877 75.4131C100.877 74.29 101.327 73.2131 102.129 72.4189L107.487 67.1103C107.817 67.8602 108 68.6856 108 69.5418V84.8326C108 86.4566 106.725 87.773 105.151 87.773H100.877V75.4131Z" fill="#EDEBED"/>
<path d="M88.0562 66.4539V87.7732H90.9053V66.4539C90.0244 66.9605 88.9368 66.9605 88.0562 66.4539Z" fill="#EDEBED"/>
<path d="M72.0687 58.3777L62.4238 53.9537C61.1425 53.366 60.3167 52.0547 60.3167 50.6077V43.8332L46.1248 43.8334V50.6079C46.1248 52.0549 45.2992 53.366 44.0178 53.9537L34.3727 58.3777C31.81 59.553 30.1586 62.1758 30.1586 65.0698V84.1114C30.1586 86.1337 31.7471 87.773 33.7065 87.773H72.7348C74.6944 87.773 76.2828 86.1335 76.2828 84.1114V65.07C76.2828 62.176 74.6314 59.5532 72.0687 58.3777Z" fill="#B48764"/>
<path d="M33.7065 87.7732L72.7348 87.773C74.6944 87.773 76.2828 86.1335 76.2828 84.1114V65.07C76.2828 62.1758 74.6311 59.5532 72.0686 58.3777L62.4893 53.984L55.7296 60.6811C54.344 62.0539 52.0975 62.0539 50.7119 60.6811L43.952 53.9838L34.3724 58.3777C31.8098 59.553 30.1583 62.1756 30.1583 65.0698V84.1114C30.1583 86.1337 31.7469 87.7732 33.7065 87.7732Z" fill="#5D5360"/>
<path d="M46.1246 43.8332V50.6077C46.1246 51.2783 45.9314 51.9111 45.6135 52.4649C47.8763 53.6849 50.4683 54.3788 53.2208 54.3788C55.9731 54.3788 58.5649 53.6852 60.8278 52.4651C60.5097 51.9113 60.3167 51.2783 60.3167 50.6077V43.8332H46.1246Z" fill="#966D50"/>
<path d="M53.2208 50.8637C46.3624 50.8637 40.8027 45.3553 40.8027 38.5605V28.015H65.6391V38.5605C65.6389 45.3553 60.079 50.8637 53.2208 50.8637Z" fill="#C39772"/>
<path d="M47.8986 38.5603V28.0148H40.8025V38.5603C40.8025 45.3552 46.3624 50.8635 53.2206 50.8635C54.4544 50.8635 55.6438 50.6791 56.7686 50.3473C51.6405 48.834 47.8986 44.1329 47.8986 38.5603Z" fill="#B48764"/>
<path d="M54.9948 19.2268H51.4468C44.5884 19.2268 39.0287 24.7352 39.0287 31.5299V34.3416C39.0287 35.644 40.4236 36.5284 41.5863 35.9209C43.386 34.9804 45.4971 33.2258 46.9156 31.333C47.4886 30.5686 48.5901 30.4553 49.3604 31.0248C54.9897 35.1865 62.8305 34.23 66.0002 33.6097C66.8263 33.4482 67.4133 32.7226 67.4133 31.8885V31.5301C67.4129 24.7352 61.853 19.2268 54.9948 19.2268Z" fill="#5C414B"/>
<path d="M41.5863 35.9209C43.386 34.9804 45.4968 33.2258 46.9154 31.333C47.1324 31.0434 47.4351 30.8781 47.7575 30.7771C45.2494 27.3182 45.0783 23.4625 45.3899 20.7946C41.5962 22.9001 39.0284 26.9155 39.0284 31.5301V34.3418C39.0284 35.6442 40.4234 36.5286 41.5863 35.9209Z" fill="#503441"/>
<path d="M39.0285 72.3811C39.0285 70.9826 38.4678 69.6415 37.4696 68.6526L30.797 62.0418C30.3857 62.9756 30.1583 64.0036 30.1583 65.0696V84.1112C30.1583 86.1335 31.7469 87.773 33.7063 87.773H39.0285V72.3811Z" fill="#6F6571"/>
<path d="M67.4126 72.3811C67.4126 70.9826 67.9733 69.6415 68.9714 68.6526L75.644 62.0418C76.0553 62.9756 76.2827 64.0036 76.2827 65.0696V84.1112C76.2827 86.1335 74.6942 87.773 72.7348 87.773H67.4126V72.3811Z" fill="#6F6571"/>
<path d="M51.4465 61.2245V87.7732L54.9945 87.773V61.2245C53.8978 61.8552 52.5434 61.8552 51.4465 61.2245Z" fill="#6F6571"/>
</svg>
