<svg width="323" height="90" viewBox="0 0 323 90" fill="none" xmlns="http://www.w3.org/2000/svg">
<rect width="308" height="90" fill="#F3D2B3"/>
<rect x="141" y="11" width="156" height="70" stroke="#F99A86" stroke-width="4"/>
<path d="M192.446 42.18C191.816 42.18 191.241 42.085 190.721 41.895C190.211 41.705 189.771 41.4 189.401 40.98C189.041 40.56 188.756 40.01 188.546 39.33C188.346 38.65 188.246 37.82 188.246 36.84C188.246 35.86 188.346 35.025 188.546 34.335C188.756 33.635 189.041 33.065 189.401 32.625C189.771 32.185 190.211 31.865 190.721 31.665C191.241 31.455 191.816 31.35 192.446 31.35C193.386 31.35 194.126 31.555 194.666 31.965C195.216 32.365 195.666 32.975 196.016 33.795L194.156 34.755C194.096 34.535 194.026 34.33 193.946 34.14C193.876 33.95 193.776 33.79 193.646 33.66C193.516 33.53 193.351 33.43 193.151 33.36C192.961 33.28 192.726 33.24 192.446 33.24C191.846 33.24 191.376 33.42 191.036 33.78C190.696 34.14 190.526 34.68 190.526 35.4V38.13C190.526 38.85 190.696 39.39 191.036 39.75C191.376 40.11 191.846 40.29 192.446 40.29C192.726 40.29 192.966 40.25 193.166 40.17C193.376 40.08 193.551 39.965 193.691 39.825C193.831 39.675 193.946 39.505 194.036 39.315C194.126 39.115 194.206 38.9 194.276 38.67L196.046 39.69C195.866 40.08 195.666 40.43 195.446 40.74C195.226 41.05 194.971 41.315 194.681 41.535C194.401 41.745 194.076 41.905 193.706 42.015C193.336 42.125 192.916 42.18 192.446 42.18ZM202.584 42H200.439V31.53H204.969C205.909 31.53 206.624 31.825 207.114 32.415C207.604 33.005 207.849 33.795 207.849 34.785C207.849 35.555 207.704 36.205 207.414 36.735C207.124 37.265 206.694 37.635 206.124 37.845L207.954 42H205.629L204.009 38.04H202.584V42ZM204.699 36.255C204.989 36.255 205.214 36.185 205.374 36.045C205.544 35.895 205.629 35.64 205.629 35.28V34.38C205.629 34.02 205.544 33.77 205.374 33.63C205.214 33.48 204.989 33.405 204.699 33.405H202.584V36.255H204.699ZM212.595 42V31.53H219.075V33.405H214.74V35.775H218.415V37.635H214.74V40.125H219.075V42H212.595ZM229.662 42L229.017 39.435H225.807L225.162 42H223.107L226.077 31.53H228.807L231.777 42H229.662ZM227.847 35.295L227.517 33.48H227.277L226.947 35.295L226.332 37.71H228.492L227.847 35.295ZM238.245 42H236.1V31.53H240.63C241.57 31.53 242.285 31.825 242.775 32.415C243.265 33.005 243.51 33.795 243.51 34.785C243.51 35.555 243.365 36.205 243.075 36.735C242.785 37.265 242.355 37.635 241.785 37.845L243.615 42H241.29L239.67 38.04H238.245V42ZM240.36 36.255C240.65 36.255 240.875 36.185 241.035 36.045C241.205 35.895 241.29 35.64 241.29 35.28V34.38C241.29 34.02 241.205 33.77 241.035 33.63C240.875 33.48 240.65 33.405 240.36 33.405H238.245V36.255H240.36ZM186.614 62V51.53H193.094V53.405H188.759V55.775H192.434V57.635H188.759V60.125H193.094V62H186.614ZM204.207 64.715H202.827C202.057 64.715 201.517 64.55 201.207 64.22C200.907 63.9 200.757 63.4 200.757 62.72V62.105C200.257 62.025 199.807 61.865 199.407 61.625C199.007 61.375 198.662 61.035 198.372 60.605C198.092 60.165 197.872 59.63 197.712 59C197.562 58.37 197.487 57.625 197.487 56.765C197.487 55.785 197.587 54.955 197.787 54.275C197.987 53.585 198.267 53.025 198.627 52.595C198.987 52.155 199.422 51.84 199.932 51.65C200.442 51.45 201.012 51.35 201.642 51.35C202.272 51.35 202.842 51.45 203.352 51.65C203.862 51.84 204.297 52.155 204.657 52.595C205.017 53.025 205.297 53.585 205.497 54.275C205.697 54.955 205.797 55.785 205.797 56.765C205.797 57.595 205.722 58.32 205.572 58.94C205.432 59.55 205.227 60.07 204.957 60.5C204.697 60.93 204.377 61.275 203.997 61.535C203.627 61.795 203.207 61.975 202.737 62.075V62.99H204.207V64.715ZM201.642 60.29C202.242 60.29 202.702 60.11 203.022 59.75C203.352 59.39 203.517 58.85 203.517 58.13V55.4C203.517 54.68 203.352 54.14 203.022 53.78C202.702 53.42 202.242 53.24 201.642 53.24C201.042 53.24 200.577 53.42 200.247 53.78C199.927 54.14 199.767 54.68 199.767 55.4V58.13C199.767 58.85 199.927 59.39 200.247 59.75C200.577 60.11 201.042 60.29 201.642 60.29ZM212.556 51.53V58.325C212.556 59.015 212.671 59.515 212.901 59.825C213.141 60.125 213.566 60.275 214.176 60.275C214.786 60.275 215.206 60.125 215.436 59.825C215.676 59.515 215.796 59.015 215.796 58.325V51.53H217.941V58.04C217.941 58.78 217.876 59.41 217.746 59.93C217.616 60.45 217.401 60.88 217.101 61.22C216.811 61.55 216.426 61.795 215.946 61.955C215.466 62.105 214.876 62.18 214.176 62.18C213.476 62.18 212.886 62.105 212.406 61.955C211.926 61.795 211.536 61.55 211.236 61.22C210.946 60.88 210.736 60.45 210.606 59.93C210.476 59.41 210.411 58.78 210.411 58.04V51.53H212.556ZM222.574 62V60.305H223.804V53.225H222.574V51.53H227.179V53.225H225.949V60.305H227.179V62H222.574ZM231.881 62V51.53H236.411C237.351 51.53 238.066 51.83 238.556 52.43C239.046 53.03 239.291 53.83 239.291 54.83C239.291 55.83 239.046 56.63 238.556 57.23C238.066 57.83 237.351 58.13 236.411 58.13H234.026V62H231.881ZM234.026 56.255H236.141C236.431 56.255 236.656 56.18 236.816 56.03C236.986 55.88 237.071 55.63 237.071 55.28V54.38C237.071 54.03 236.986 53.78 236.816 53.63C236.656 53.48 236.431 53.405 236.141 53.405H234.026V56.255ZM247.597 62.18C246.967 62.18 246.397 62.085 245.887 61.895C245.377 61.695 244.942 61.38 244.582 60.95C244.222 60.51 243.942 59.95 243.742 59.27C243.542 58.58 243.442 57.745 243.442 56.765C243.442 55.785 243.542 54.955 243.742 54.275C243.942 53.585 244.222 53.025 244.582 52.595C244.942 52.155 245.377 51.84 245.887 51.65C246.397 51.45 246.967 51.35 247.597 51.35C248.227 51.35 248.797 51.45 249.307 51.65C249.817 51.84 250.252 52.155 250.612 52.595C250.972 53.025 251.252 53.585 251.452 54.275C251.652 54.955 251.752 55.785 251.752 56.765C251.752 57.745 251.652 58.58 251.452 59.27C251.252 59.95 250.972 60.51 250.612 60.95C250.252 61.38 249.817 61.695 249.307 61.895C248.797 62.085 248.227 62.18 247.597 62.18ZM247.597 60.29C248.197 60.29 248.657 60.11 248.977 59.75C249.307 59.39 249.472 58.85 249.472 58.13V55.4C249.472 54.68 249.307 54.14 248.977 53.78C248.657 53.42 248.197 53.24 247.597 53.24C246.997 53.24 246.532 53.42 246.202 53.78C245.882 54.14 245.722 54.68 245.722 55.4V58.13C245.722 58.85 245.882 59.39 246.202 59.75C246.532 60.11 246.997 60.29 247.597 60.29Z" fill="#EE5B3B"/>
<path d="M79.7341 49.8321L70.2678 45.4495C69.0103 44.8673 68.1998 43.5682 68.1998 42.1347V35.4236L54.2707 35.4238V42.1349C54.2707 43.5684 53.4604 44.8673 52.2027 45.4495L42.7362 49.8321C40.2209 50.9965 38.6001 53.5947 38.6001 56.4617V75.3253C38.6001 77.3288 40.1592 78.9527 42.0823 78.9527H80.3879C82.3112 78.9527 83.8702 77.3285 83.8702 75.3253V56.4619C83.8702 53.5949 82.2493 50.9967 79.7341 49.8321Z" fill="#B48764"/>
<path d="M42.0824 78.9529L80.3879 78.9527C82.3112 78.9527 83.8702 77.3286 83.8702 75.3253V56.4619C83.8702 53.5947 82.2491 50.9967 79.7341 49.8321L70.3322 45.4795L63.6977 52.114C62.3377 53.474 60.1328 53.474 58.7728 52.114L52.1381 45.4793L42.736 49.8321C40.2207 50.9965 38.5999 53.5945 38.5999 56.4617V75.3253C38.5999 77.3288 40.159 78.9529 42.0824 78.9529Z" fill="#5D5360"/>
<path d="M54.2705 35.4236V42.1347C54.2705 42.799 54.0808 43.4259 53.7688 43.9746C55.9897 45.1832 58.5337 45.8706 61.2352 45.8706C63.9366 45.8706 66.4804 45.1834 68.7014 43.9748C68.3892 43.4261 68.1998 42.799 68.1998 42.1347V35.4236H54.2705Z" fill="#966D50"/>
<path d="M61.2352 42.3883C54.5038 42.3883 49.0471 36.9314 49.0471 30.2002V19.7532H73.4236V30.2002C73.4234 36.9314 67.9664 42.3883 61.2352 42.3883Z" fill="#C39772"/>
<path d="M56.0116 30.2V19.753H49.0469V30.2C49.0469 36.9314 54.5038 42.3881 61.235 42.3881C62.446 42.3881 63.6134 42.2055 64.7173 41.8767C59.6842 40.3776 56.0116 35.7204 56.0116 30.2Z" fill="#B48764"/>
<path d="M62.9764 11.0471H59.4941C52.7627 11.0471 47.306 16.504 47.306 23.2352V26.0206C47.306 27.3108 48.6751 28.187 49.8162 27.5852C51.5826 26.6535 53.6546 24.9153 55.0469 23.0402C55.6091 22.2829 56.6903 22.1707 57.4463 22.7348C62.9714 26.8576 70.667 25.9101 73.778 25.2956C74.5887 25.1356 75.1649 24.4167 75.1649 23.5905V23.2354C75.1645 16.504 69.7076 11.0471 62.9764 11.0471Z" fill="#5C414B"/>
<path d="M49.8162 27.5852C51.5826 26.6535 53.6544 24.9153 55.0466 23.0402C55.2597 22.7533 55.5568 22.5895 55.8731 22.4895C53.4115 19.0629 53.2436 15.2432 53.5494 12.6002C49.8259 14.6861 47.3057 18.664 47.3057 23.2354V26.0208C47.3057 27.311 48.6748 28.1872 49.8162 27.5852Z" fill="#503441"/>
<path d="M47.3058 63.7047C47.3058 62.3192 46.7555 60.9907 45.7758 60.011L39.2268 53.462C38.8231 54.387 38.5999 55.4054 38.5999 56.4615V75.3251C38.5999 77.3286 40.159 78.9527 42.0822 78.9527H47.3058V63.7047Z" fill="#6F6571"/>
<path d="M75.1643 63.7047C75.1643 62.3192 75.7146 60.9907 76.6943 60.011L83.2433 53.462C83.647 54.387 83.8702 55.4054 83.8702 56.4615V75.3251C83.8702 77.3286 82.311 78.9527 80.3879 78.9527H75.1643V63.7047Z" fill="#6F6571"/>
<path d="M59.4939 52.6523V78.9529L62.9762 78.9527V52.6523C61.8998 53.2771 60.5705 53.2771 59.4939 52.6523Z" fill="#6F6571"/>
<rect x="96" y="17" width="9" height="22" fill="#C4C4C4"/>
<rect x="84" y="25" width="34" height="6" fill="#C4C4C4"/>
</svg>
