<svg width="194" height="194" viewBox="0 0 194 194" fill="none" xmlns="http://www.w3.org/2000/svg">
<g clip-path="url(#clip0)">
<ellipse cx="99" cy="111.5" rx="112" ry="119.5" fill="url(#paint0_diamond)"/>
<path d="M129.457 105.844L112.132 97.8226C109.83 96.7571 108.347 94.3795 108.347 91.756V79.4733L82.8539 79.4737V91.7563C82.8539 94.3799 81.3709 96.7571 79.069 97.8226L61.7436 105.844C57.1402 107.975 54.1738 112.73 54.1738 117.977V152.501C54.1738 156.168 57.0273 159.14 60.547 159.14H130.653C134.173 159.14 137.027 156.167 137.027 152.501V117.977C137.027 112.73 134.06 107.975 129.457 105.844Z" fill="#B48764"/>
<path d="M60.5469 159.14L130.653 159.14C134.173 159.14 137.026 156.167 137.026 152.501V117.977C137.026 112.73 134.06 107.975 129.457 105.844L112.249 97.8775L100.107 110.02C97.618 112.509 93.5826 112.509 91.0936 110.02L78.9508 97.8772L61.7431 105.844C57.1398 107.975 54.1733 112.73 54.1733 117.977V152.501C54.1733 156.168 57.0269 159.14 60.5469 159.14Z" fill="#5D5360"/>
<path d="M82.8535 79.4733V91.756C82.8535 92.9719 82.5064 94.1192 81.9354 95.1233C86 97.3353 90.656 98.5933 95.6003 98.5933C100.544 98.5933 105.2 97.3357 109.265 95.1237C108.693 94.1196 108.347 92.9719 108.347 91.756V79.4733H82.8535Z" fill="#966D50"/>
<path d="M95.6003 92.2201C83.2805 92.2201 73.2937 82.2329 73.2937 69.9135V50.7935H117.907V69.9135C117.907 82.2329 107.92 92.2201 95.6003 92.2201Z" fill="#C39772"/>
<path d="M86.0401 69.9131V50.7932H73.2933V69.9131C73.2933 82.2329 83.2805 92.2197 95.5999 92.2197C97.8161 92.2197 99.9528 91.8855 101.973 91.2838C92.7615 88.5402 86.0401 80.0167 86.0401 69.9131Z" fill="#B48764"/>
<path d="M98.7869 34.8597H92.4137C80.094 34.8597 70.1071 44.8469 70.1071 57.1663V62.2641C70.1071 64.6255 72.6128 66.229 74.7014 65.1275C77.9342 63.4224 81.7263 60.2412 84.2744 56.8094C85.3035 55.4234 87.2822 55.218 88.666 56.2505C98.7778 63.7961 112.862 62.0618 118.556 60.9372C120.04 60.6443 121.094 59.3287 121.094 57.8165V57.1667C121.094 44.847 111.106 34.8597 98.7869 34.8597Z" fill="#5C414B"/>
<path d="M74.7014 65.1276C77.9342 63.4225 81.7259 60.2412 84.2741 56.8094C84.664 56.2843 85.2077 55.9846 85.7867 55.8016C81.2815 49.5303 80.9742 42.5395 81.5338 37.7023C74.7192 41.5198 70.1068 48.8001 70.1068 57.1668V62.2646C70.1068 64.6259 72.6125 66.2294 74.7014 65.1276Z" fill="#503441"/>
<path d="M70.1067 131.233C70.1067 128.697 69.0996 126.266 67.3066 124.473L55.3207 112.487C54.5818 114.18 54.1733 116.044 54.1733 117.977V152.501C54.1733 156.167 57.0269 159.14 60.5465 159.14H70.1067V131.233Z" fill="#6F6571"/>
<path d="M121.093 131.233C121.093 128.697 122.1 126.266 123.893 124.473L135.879 112.487C136.618 114.18 137.026 116.044 137.026 117.977V152.501C137.026 156.167 134.173 159.14 130.653 159.14H121.093V131.233Z" fill="#6F6571"/>
<path d="M92.4133 111.005V159.14L98.7865 159.14V111.005C96.8166 112.149 94.3836 112.149 92.4133 111.005Z" fill="#6F6571"/>
</g>
<defs>
<radialGradient id="paint0_diamond" cx="0" cy="0" r="1" gradientUnits="userSpaceOnUse" gradientTransform="translate(99 111.5) rotate(90) scale(119.5 112)">
<stop offset="0.484375" stop-color="#FA9F6C"/>
<stop offset="1" stop-color="#E4C9A0" stop-opacity="0"/>
</radialGradient>
<clipPath id="clip0">
<rect width="194" height="194" fill="white"/>
</clipPath>
</defs>
</svg>
