<svg width="194" height="194" viewBox="0 0 194 194" fill="none" xmlns="http://www.w3.org/2000/svg">
<g clip-path="url(#clip0)">
<ellipse cx="99" cy="111.5" rx="112" ry="119.5" fill="url(#paint0_diamond)"/>
<path d="M123.851 113.827L111.608 109.653C109.281 108.86 107.738 106.837 107.738 104.577V100.203H89.8509V104.578C89.8509 106.837 88.3091 108.86 85.9819 109.653L73.7383 113.827C69.0836 115.414 66 119.459 66 123.978V143.568C66 146.562 68.6696 148.989 71.9626 148.989H131.589V123.978C131.589 119.459 128.506 115.414 123.851 113.827Z" fill="#E6AF78"/>
<path d="M98.7946 108.334C102.142 108.334 105.335 107.749 108.293 106.726C107.969 106.054 107.738 105.342 107.738 104.577V100.203H89.8509V104.578C89.8509 105.342 89.6203 106.054 89.2961 106.726C92.254 107.749 95.4469 108.334 98.7946 108.334Z" fill="#D29B6E"/>
<path d="M71.9626 148.989H131.589V123.978C131.589 119.459 128.506 115.414 123.851 113.827L112.075 109.813L103.011 118.053C100.683 120.17 96.9071 120.17 94.5783 118.053L85.5141 109.813L73.7379 113.827C69.0836 115.414 66 119.459 66 123.978V143.568C66 146.562 68.6696 148.989 71.9626 148.989Z" fill="#6D3A62"/>
<path d="M98.9098 102.914H98.6796C87.2172 102.914 77.9253 94.4663 77.9253 84.0464V75.7061C77.9253 65.2858 87.2172 56.8386 98.6796 56.8386H98.9098C110.372 56.8386 119.664 65.2858 119.664 75.7061V84.0461C119.664 94.4663 110.372 102.914 98.9098 102.914Z" fill="#F0C087"/>
<path d="M89.8509 83.9418V75.8107C89.8509 67.2177 96.1393 59.968 104.758 57.6346C102.867 57.1228 100.868 56.8386 98.795 56.8386C87.2694 56.8386 77.9257 65.3325 77.9257 75.8107V83.9418C77.9257 94.4193 87.2694 102.914 98.795 102.914C100.869 102.914 102.867 102.629 104.758 102.118C96.1389 99.7843 89.8509 92.5345 89.8509 83.9418Z" fill="#E6AF78"/>
<path d="M75.3058 124.925L67.8822 118.176C66.6935 119.877 66 121.87 66 123.978V143.568C66 146.562 68.6696 148.989 71.9626 148.989H77.9252V130.674C77.9252 128.518 76.9831 126.45 75.3058 124.925Z" fill="#C09288"/>
<path d="M95.8135 118.891V148.989H101.776V118.891C99.9326 119.863 97.6565 119.863 95.8135 118.891Z" fill="#C09288"/>
<path d="M98.795 67.6793C105.38 67.6793 110.719 62.8262 110.719 56.8397C110.719 50.8531 105.38 46 98.795 46C92.2098 46 86.8714 50.8531 86.8714 56.8397C86.8714 62.8262 92.2098 67.6793 98.795 67.6793Z" fill="#6B4C36"/>
<path d="M77.9253 75.8107V81.893C81.2277 80.4709 85.2721 78.2288 88.3671 74.8923C89.2713 73.9174 90.818 73.7163 92.041 74.3408C95.9711 76.3481 105.187 80.1711 119.664 81.0361V75.8107C119.664 65.3325 110.321 56.8386 98.7947 56.8386C87.2691 56.8386 77.9253 65.3325 77.9253 75.8107Z" fill="#52371E"/>
<path d="M87.4013 59.9268C81.6999 63.3134 77.9253 69.157 77.9253 75.8103V81.8926C81.2272 80.4709 85.2725 78.2284 88.3671 74.8919C88.8415 74.3805 89.4934 74.0955 90.1816 74.0176C87.9732 70.2024 86.2481 65.2264 87.4013 59.9268Z" fill="#503441"/>
</g>
<defs>
<radialGradient id="paint0_diamond" cx="0" cy="0" r="1" gradientUnits="userSpaceOnUse" gradientTransform="translate(99 111.5) rotate(90) scale(119.5 112)">
<stop offset="0.484375" stop-color="#FC91C4"/>
<stop offset="1" stop-color="#E4C9A0" stop-opacity="0"/>
</radialGradient>
<clipPath id="clip0">
<rect width="194" height="194" fill="white"/>
</clipPath>
</defs>
</svg>
