<svg width="273" height="227" viewBox="0 0 273 227" fill="none" xmlns="http://www.w3.org/2000/svg">
<g filter="url(#filter0_dd)">
<ellipse cx="138.5" cy="132" rx="91.5" ry="87" fill="#EE5B3B"/>
<path d="M228 132C228 178.85 188.026 217 138.5 217C88.9743 217 49 178.85 49 132C49 85.1496 88.9743 47 138.5 47C188.026 47 228 85.1496 228 132Z" stroke="#FE560E" stroke-width="4"/>
</g>
<path d="M27.4215 77.6007L30.3513 72.2218C30.8615 71.2851 31.4597 70.5351 32.1459 69.9718C32.8256 69.3855 33.607 69.0131 34.49 68.8548C35.3729 68.6964 36.3646 68.7563 37.4651 69.0344C38.5656 69.3125 39.7917 69.8476 41.1434 70.6397C42.495 71.4319 43.5696 72.2451 44.3672 73.0793C45.1648 73.9136 45.726 74.7638 46.0509 75.63C46.3758 76.4963 46.4788 77.3869 46.3598 78.3019C46.2344 79.1938 45.9166 80.1081 45.4064 81.0448L42.4767 86.4237L27.4215 77.6007ZM42.7103 79.4648C43.6749 77.6938 43.1506 76.2184 41.1375 75.0386L37.514 72.915C35.5009 71.7352 34.012 72.0309 33.0474 73.8019L31.8277 76.0412L41.4905 81.7042L42.7103 79.4648Z" fill="#EE5B3B"/>
<path d="M71.521 51.5073L69.5665 49.4676L70.9937 47.9961L62.8296 39.4763L61.4024 40.9478L59.4478 38.9081L64.7913 33.3988L66.7458 35.4385L65.3186 36.91L73.4827 45.4298L74.9099 43.9583L76.8645 45.998L71.521 51.5073Z" fill="#EE5B3B"/>
<path d="M36.1932 101.588L32.1164 100.007L29.167 104.471L32.0585 107.845L30.1703 110.703L18.6774 96.4613L21.1858 92.6652L38.1365 98.6468L36.1932 101.588ZM25.4178 97.6362L22.6492 96.3422L22.4287 96.6759L24.5909 98.8876L27.3062 102.075L29.2909 99.0716L25.4178 97.6362Z" fill="#EE5B3B"/>
<path d="M230.793 81.556L233.793 78.2791L230.987 73.7238L226.86 75.1701L225.064 72.2538L242.205 66.8289L244.592 70.703L232.642 84.5574L230.793 81.556ZM238.522 72.8071L240.755 70.6677L240.545 70.3271L237.735 71.5299L233.843 72.8806L235.731 75.9459L238.522 72.8071Z" fill="#EE5B3B"/>
<path d="M237.288 92.5569L252.67 84.3171L254.264 87.5174L241.636 94.2816L244.277 99.5856L241.522 101.061L237.288 92.5569Z" fill="#EE5B3B"/>
<path d="M222.654 52.7585L224.118 50.1156L223.874 49.7988L221.745 51.8247L214.664 57.6987L212.619 55.0456L226.049 43.9043L228.43 46.9929L223.921 56.4472L222.456 59.0901L222.701 59.4069L224.83 57.381L231.91 51.5071L233.956 54.1601L220.526 65.3014L218.144 62.2128L222.654 52.7585Z" fill="#EE5B3B"/>
<path d="M200.367 47.6583C199.552 46.9963 198.91 46.271 198.441 45.4824C197.982 44.6805 197.736 43.8044 197.702 42.8541C197.678 41.8905 197.878 40.8514 198.302 39.7367C198.736 38.6087 199.445 37.3928 200.429 36.0892C201.413 34.7855 202.376 33.7865 203.317 33.0921C204.269 32.3844 205.193 31.9336 206.091 31.7399C206.998 31.5329 207.878 31.5709 208.728 31.854C209.589 32.1238 210.427 32.5897 211.242 33.2517C212.057 33.9137 212.694 34.6456 213.153 35.4475C213.622 36.2361 213.868 37.1122 213.892 38.0758C213.926 39.0261 213.726 40.0652 213.292 41.1932C212.868 42.3079 212.164 43.5171 211.18 44.8208C210.196 46.1244 209.228 47.1301 208.276 47.8378C207.335 48.5322 206.41 48.983 205.503 49.19C204.605 49.3837 203.726 49.3457 202.866 49.0759C202.015 48.7928 201.182 48.3202 200.367 47.6583ZM202.265 45.1441C203.041 45.7745 203.817 46.0184 204.593 45.8758C205.381 45.7436 206.137 45.1987 206.86 44.2409L209.601 40.6093C210.324 39.6515 210.652 38.7598 210.587 37.9342C210.535 37.1191 210.12 36.3963 209.344 35.7659C208.568 35.1354 207.785 34.8863 206.997 35.0184C206.221 35.1611 205.472 35.7113 204.749 36.6691L202.008 40.3006C201.285 41.2584 200.95 42.1449 201.002 42.96C201.068 43.7856 201.489 44.5136 202.265 45.1441Z" fill="#EE5B3B"/>
<path d="M115.673 29.5635L115.351 12.1165L122.9 11.9669C124.466 11.9359 125.667 12.4122 126.502 13.3958C127.337 14.3795 127.77 15.7045 127.8 17.3709C127.831 19.0372 127.447 20.3784 126.649 21.3945C125.851 22.4105 124.669 22.934 123.102 22.965L119.128 23.0438L119.247 29.4927L115.673 29.5635ZM119.071 19.9193L122.595 19.8495C123.078 19.8399 123.451 19.7075 123.713 19.4523C123.992 19.1967 124.126 18.7773 124.115 18.194L124.087 16.6943C124.076 16.1111 123.927 15.6973 123.639 15.4529C123.368 15.2083 122.991 15.0907 122.508 15.1003L118.983 15.1701L119.071 19.9193Z" fill="#EE5B3B"/>
<path d="M138.029 27.8246L138.805 10.3918L149.593 10.9085L149.454 14.0304L142.237 13.6848L142.061 17.6309L148.179 17.9239L148.041 21.0208L141.923 20.7278L141.739 24.8737L148.956 25.2193L148.817 28.3413L138.029 27.8246Z" fill="#EE5B3B"/>
<path d="M161.417 30.6239L157.968 29.6852L162.246 12.7679L169.531 14.7503C171.043 15.1617 172.072 15.9512 172.619 17.119C173.166 18.2867 173.237 19.6704 172.833 21.2701C172.518 22.5142 172.019 23.501 171.336 24.2305C170.654 24.96 169.811 25.3696 168.808 25.4595L170.053 32.974L166.314 31.9565L165.327 24.849L163.036 24.2254L161.417 30.6239ZM167.166 22.2668C167.633 22.3937 168.023 22.379 168.338 22.2229C168.672 22.0549 168.913 21.68 169.06 21.0984L169.428 19.6441C169.575 19.0625 169.541 18.6213 169.325 18.3207C169.129 18.0083 168.797 17.7887 168.331 17.6618L164.93 16.7362L163.765 21.3412L167.166 22.2668Z" fill="#EE5B3B"/>
<path d="M90.2973 34.005L88.901 30.9323L94.965 27.9674L96.3612 31.0401L90.2973 34.005Z" fill="#EE5B3B"/>
<path d="M55.1286 53.1084L53.0233 51.0577L52.7754 51.3717L54.2242 54.012L57.2477 60.383L50.6457 58.5446L47.8646 57.5918L47.6168 57.9057L49.9699 59.6424L56.9054 65.534L54.8295 68.1633L41.5303 56.8658L43.854 53.9225L49.2888 55.4251L52.9333 56.8164L53.0882 56.6201L51.0548 53.1882L48.5324 47.9968L50.8406 45.0731L64.1399 56.3706L62.064 58.9999L55.1286 53.1084Z" fill="#EE5B3B"/>
<path d="M182.88 37.2154C180.552 36.0216 179.122 34.2588 178.591 31.927L181.627 30.9C181.964 32.5148 182.853 33.6909 184.291 34.4285C185.774 35.1889 186.831 34.907 187.462 33.583C187.72 33.0413 187.788 32.5516 187.664 32.1138C187.54 31.676 187.226 31.2525 186.719 30.8432L185.425 29.8424C184.115 28.834 183.295 27.7863 182.964 26.6993C182.655 25.6048 182.816 24.3956 183.447 23.0715C184.178 21.5368 185.179 20.5989 186.448 20.2577C187.718 19.9165 189.213 20.1869 190.934 21.0689C193.129 22.1943 194.453 23.7719 194.907 25.8018L191.871 26.8288C191.715 26.1496 191.446 25.5718 191.064 25.0951C190.704 24.6111 190.198 24.2018 189.545 23.8672C188.833 23.5022 188.25 23.3715 187.794 23.4751C187.354 23.5862 186.99 23.9427 186.703 24.5445C186.452 25.0712 186.381 25.5307 186.489 25.9232C186.612 26.3233 186.92 26.7242 187.411 27.1259L188.695 28.1492C189.373 28.7025 189.921 29.2364 190.34 29.7509C190.781 30.2579 191.086 30.7794 191.256 31.3154C191.439 31.859 191.487 32.4171 191.399 32.9896C191.326 33.5698 191.131 34.1909 190.816 34.8529C190.013 36.538 188.933 37.5849 187.575 37.9936C186.225 38.3872 184.66 38.1278 182.88 37.2154Z" fill="#EE5B3B"/>
<path d="M107.752 152.935L99.5506 149.859C97.9918 149.275 96.9587 147.784 96.9587 146.119V142.896H84.9767V146.119C84.9767 147.784 83.9439 149.275 82.385 149.859L74.1836 152.935C71.0655 154.104 69 157.084 69 160.414V174.849C69 177.055 70.7883 178.843 72.9941 178.843H112.935V160.414C112.935 157.084 110.87 154.104 107.752 152.935Z" fill="#E6AF78"/>
<path d="M90.9677 148.887C93.2101 148.887 95.349 148.456 97.3303 147.703C97.1135 147.207 96.9587 146.683 96.9587 146.119V142.896H84.9767V146.119C84.9767 146.683 84.8222 147.207 84.6051 147.702C86.5864 148.456 88.7252 148.887 90.9677 148.887Z" fill="#D29B6E"/>
<path d="M72.9941 178.843H112.935V160.415C112.935 157.085 110.87 154.104 107.752 152.935L99.8637 149.977L93.792 156.049C92.2323 157.608 89.7033 157.608 88.1434 156.049L82.0717 149.977L74.1833 152.935C71.0655 154.104 69 157.084 69 160.414V174.849C69 177.055 70.7883 178.843 72.9941 178.843Z" fill="#DBD9DC"/>
<path d="M91.0448 144.893H90.8906C83.2125 144.893 76.9882 138.669 76.9882 130.991V124.845C76.9882 117.167 83.2125 110.943 90.8906 110.943H91.0448C98.7229 110.943 104.947 117.167 104.947 124.845V130.991C104.947 138.669 98.7229 144.893 91.0448 144.893Z" fill="#F0C087"/>
<path d="M84.9767 130.914V124.922C84.9767 118.591 89.189 113.249 94.9621 111.529C93.6958 111.152 92.3568 110.943 90.968 110.943C83.2475 110.943 76.9885 117.202 76.9885 124.922V130.914C76.9885 138.634 83.2475 144.893 90.968 144.893C92.357 144.893 93.6958 144.684 94.9621 144.307C89.1887 142.587 84.9767 137.245 84.9767 130.914Z" fill="#E6AF78"/>
<path d="M75.2336 161.112L70.2608 156.139C69.4646 157.392 69 158.861 69 160.414V174.849C69 177.055 70.7883 178.843 72.9941 178.843H76.9882V165.348C76.9882 163.759 76.3571 162.235 75.2336 161.112Z" fill="#EDEBED"/>
<path d="M88.9708 156.666V178.843H92.9649V156.666C91.73 157.382 90.2053 157.382 88.9708 156.666Z" fill="#EDEBED"/>
<path d="M90.968 118.931C95.3791 118.931 98.9551 115.355 98.9551 110.944C98.9551 106.533 95.3791 102.957 90.968 102.957C86.5568 102.957 82.9809 106.533 82.9809 110.944C82.9809 115.355 86.5568 118.931 90.968 118.931Z" fill="#6E4B53"/>
<path d="M83.3358 113.218C79.5167 115.714 76.9882 120.02 76.9882 124.922V129.404C79.2 128.356 81.9098 126.704 83.9827 124.245C84.3005 123.869 84.7372 123.659 85.1982 123.601C83.7189 120.79 82.5633 117.123 83.3358 113.218Z" fill="#503441"/>
<path d="M204.613 147.958L194.573 143.31C193.239 142.693 192.38 141.315 192.38 139.794V132.676H177.607V139.794C177.607 141.314 176.747 142.692 175.413 143.31L165.373 147.958C162.705 149.193 160.986 151.949 160.986 154.989V178.843H205.306C207.346 178.843 209 177.121 209 174.996V154.99C209 151.949 207.281 149.193 204.613 147.958Z" fill="#FAD7A5"/>
<path d="M204.613 147.958L194.642 143.341L187.605 150.378C186.163 151.82 183.824 151.82 182.382 150.378L175.345 143.341L165.373 147.958C162.705 149.193 160.986 151.948 160.986 154.989V178.843L205.307 178.843C207.347 178.843 209 177.121 209 174.996V154.989C209 151.948 207.281 149.193 204.613 147.958Z" fill="#DBD9DC"/>
<path d="M177.607 132.676V139.794C177.607 140.499 177.406 141.164 177.075 141.745C179.43 143.027 182.128 143.756 184.993 143.756C187.858 143.756 190.556 143.028 192.912 141.746C192.581 141.164 192.38 140.499 192.38 139.794V132.676H177.607Z" fill="#F0C891"/>
<path d="M184.993 140.063C177.854 140.063 172.067 134.275 172.067 127.136V116.056H197.92V127.136C197.92 134.275 192.133 140.063 184.993 140.063Z" fill="#FFE1B4"/>
<path d="M179.453 127.136V116.056H172.067V127.136C172.067 134.275 177.854 140.063 184.993 140.063C186.278 140.063 187.516 139.869 188.687 139.52C183.348 137.931 179.453 132.991 179.453 127.136Z" fill="#FAD7A5"/>
<path d="M186.84 106.823H183.147C176.008 106.823 170.22 112.61 170.22 119.75V122.704C170.22 124.072 171.672 125.001 172.882 124.363C174.756 123.375 176.953 121.531 178.43 119.543C179.026 118.739 180.173 118.62 180.975 119.219C186.835 123.591 194.996 122.586 198.296 121.934C199.156 121.764 199.767 121.002 199.767 120.126V119.749C199.767 112.61 193.979 106.823 186.84 106.823Z" fill="#D59F63"/>
<path d="M172.882 124.363C174.756 123.375 176.953 121.531 178.43 119.543C178.656 119.238 178.971 119.065 179.306 118.958C176.696 115.324 176.518 111.273 176.842 108.47C172.893 110.682 170.22 114.901 170.22 119.75V122.704C170.22 124.072 171.672 125.001 172.882 124.363Z" fill="#CD915A"/>
<path d="M199.767 162.671C199.767 161.202 200.35 159.793 201.389 158.754L208.335 151.808C208.763 152.789 209 153.869 209 154.989V174.996C209 177.121 207.347 178.843 205.307 178.843H199.767V162.671Z" fill="#EDEBED"/>
<path d="M183.147 150.949V178.843H186.84V150.949C185.698 151.612 184.288 151.612 183.147 150.949Z" fill="#EDEBED"/>
<path d="M162.422 140.382L149.92 134.594C148.259 133.825 147.188 132.109 147.188 130.216V121.352L128.791 121.352V130.216C128.791 132.109 127.721 133.825 126.06 134.594L113.557 140.382C110.235 141.92 108.094 145.351 108.094 149.138V174.052C108.094 176.698 110.154 178.843 112.694 178.843H163.286C165.826 178.843 167.885 176.698 167.885 174.052V149.138C167.885 145.352 165.744 141.92 162.422 140.382Z" fill="#B48764"/>
<path d="M112.694 178.843L163.286 178.843C165.826 178.843 167.885 176.698 167.885 174.052V149.138C167.885 145.351 165.744 141.92 162.422 140.382L150.005 134.633L141.242 143.396C139.446 145.192 136.534 145.192 134.738 143.396L125.975 134.633L113.557 140.382C110.235 141.92 108.094 145.351 108.094 149.138V174.052C108.094 176.698 110.153 178.843 112.694 178.843Z" fill="#5D5360"/>
<path d="M128.791 121.352V130.216C128.791 131.093 128.541 131.921 128.129 132.646C131.062 134.242 134.422 135.15 137.99 135.15C141.558 135.15 144.917 134.242 147.851 132.646C147.439 131.921 147.188 131.093 147.188 130.216V121.352H128.791Z" fill="#966D50"/>
<path d="M137.99 130.551C129.099 130.551 121.892 123.343 121.892 114.453V100.655H154.088V114.453C154.087 123.343 146.88 130.551 137.99 130.551Z" fill="#C39772"/>
<path d="M131.091 114.453V100.655H121.892V114.453C121.892 123.343 129.099 130.55 137.99 130.55C139.589 130.55 141.131 130.309 142.589 129.875C135.941 127.895 131.091 121.744 131.091 114.453Z" fill="#B48764"/>
<path d="M140.29 89.1565H135.69C126.8 89.1565 119.593 96.3638 119.593 105.254V108.933C119.593 110.637 121.401 111.794 122.908 110.999C125.241 109.769 127.978 107.473 129.817 104.996C130.559 103.996 131.987 103.848 132.986 104.593C140.283 110.038 150.447 108.787 154.556 107.975C155.627 107.764 156.388 106.815 156.388 105.723V105.254C156.387 96.3638 149.18 89.1565 140.29 89.1565Z" fill="#5C414B"/>
<path d="M122.908 110.999C125.241 109.769 127.977 107.473 129.816 104.996C130.098 104.618 130.49 104.401 130.908 104.269C127.657 99.7435 127.435 94.6986 127.839 91.2079C122.921 93.9627 119.592 99.2166 119.592 105.254V108.933C119.592 110.637 121.401 111.794 122.908 110.999Z" fill="#503441"/>
<path d="M119.593 158.704C119.593 156.874 118.866 155.12 117.572 153.826L108.922 145.176C108.389 146.398 108.094 147.743 108.094 149.138V174.052C108.094 176.698 110.153 178.843 112.693 178.843H119.593V158.704Z" fill="#6F6571"/>
<path d="M156.387 158.704C156.387 156.874 157.114 155.12 158.408 153.826L167.057 145.176C167.59 146.398 167.885 147.743 167.885 149.138V174.052C167.885 176.698 165.826 178.843 163.286 178.843H156.387V158.704Z" fill="#6F6571"/>
<path d="M135.69 144.107V178.843L140.289 178.843V144.107C138.868 144.932 137.112 144.932 135.69 144.107Z" fill="#6F6571"/>
<defs>
<filter id="filter0_dd" x="43" y="45" width="191" height="182" filterUnits="userSpaceOnUse" color-interpolation-filters="sRGB">
<feFlood flood-opacity="0" result="BackgroundImageFix"/>
<feColorMatrix in="SourceAlpha" type="matrix" values="0 0 0 0 0 0 0 0 0 0 0 0 0 0 0 0 0 0 127 0"/>
<feOffset dy="4"/>
<feGaussianBlur stdDeviation="2"/>
<feColorMatrix type="matrix" values="0 0 0 0 0 0 0 0 0 0 0 0 0 0 0 0 0 0 0.25 0"/>
<feBlend mode="normal" in2="BackgroundImageFix" result="effect1_dropShadow"/>
<feColorMatrix in="SourceAlpha" type="matrix" values="0 0 0 0 0 0 0 0 0 0 0 0 0 0 0 0 0 0 127 0"/>
<feOffset dy="4"/>
<feGaussianBlur stdDeviation="2"/>
<feColorMatrix type="matrix" values="0 0 0 0 0 0 0 0 0 0 0 0 0 0 0 0 0 0 0.25 0"/>
<feBlend mode="normal" in2="effect1_dropShadow" result="effect2_dropShadow"/>
<feBlend mode="normal" in="SourceGraphic" in2="effect2_dropShadow" result="shape"/>
</filter>
</defs>
</svg>
