<svg width="323" height="107" viewBox="0 0 323 107" fill="none" xmlns="http://www.w3.org/2000/svg">
<rect y="8" width="308" height="90" fill="#FAD285"/>
<rect x="141" y="19" width="156" height="70" stroke="#F99A86" stroke-width="4"/>
<path d="M166.063 44.39L165.403 42.725H165.163L165.283 44.48V50H163.273V39.53H165.613L168.253 45.14L168.913 46.805H169.153L169.033 45.05V39.53H171.043V50H168.703L166.063 44.39ZM178.233 44.72C177.863 44.72 177.518 44.655 177.198 44.525C176.878 44.395 176.598 44.215 176.358 43.985C176.118 43.755 175.928 43.475 175.788 43.145C175.658 42.815 175.593 42.445 175.593 42.035C175.593 41.635 175.658 41.27 175.788 40.94C175.928 40.6 176.118 40.315 176.358 40.085C176.598 39.855 176.878 39.675 177.198 39.545C177.518 39.415 177.863 39.35 178.233 39.35C178.603 39.35 178.948 39.415 179.268 39.545C179.588 39.675 179.868 39.855 180.108 40.085C180.348 40.315 180.533 40.6 180.663 40.94C180.803 41.27 180.873 41.635 180.873 42.035C180.873 42.445 180.803 42.815 180.663 43.145C180.533 43.475 180.348 43.755 180.108 43.985C179.868 44.215 179.588 44.395 179.268 44.525C178.948 44.655 178.603 44.72 178.233 44.72ZM178.233 43.4C178.603 43.4 178.888 43.285 179.088 43.055C179.298 42.815 179.403 42.475 179.403 42.035C179.403 41.595 179.298 41.26 179.088 41.03C178.888 40.79 178.603 40.67 178.233 40.67C177.863 40.67 177.573 40.79 177.363 41.03C177.163 41.26 177.063 41.595 177.063 42.035C177.063 42.475 177.163 42.815 177.363 43.055C177.573 43.285 177.863 43.4 178.233 43.4ZM195.6 41.405V50H193.455V41.405H190.95V39.53H198.105V41.405H195.6ZM205.919 50.18C205.289 50.18 204.719 50.085 204.209 49.895C203.699 49.695 203.264 49.38 202.904 48.95C202.544 48.51 202.264 47.95 202.064 47.27C201.864 46.58 201.764 45.745 201.764 44.765C201.764 43.785 201.864 42.955 202.064 42.275C202.264 41.585 202.544 41.025 202.904 40.595C203.264 40.155 203.699 39.84 204.209 39.65C204.719 39.45 205.289 39.35 205.919 39.35C206.549 39.35 207.119 39.45 207.629 39.65C208.139 39.84 208.574 40.155 208.934 40.595C209.294 41.025 209.574 41.585 209.774 42.275C209.974 42.955 210.074 43.785 210.074 44.765C210.074 45.745 209.974 46.58 209.774 47.27C209.574 47.95 209.294 48.51 208.934 48.95C208.574 49.38 208.139 49.695 207.629 49.895C207.119 50.085 206.549 50.18 205.919 50.18ZM205.919 48.29C206.519 48.29 206.979 48.11 207.299 47.75C207.629 47.39 207.794 46.85 207.794 46.13V43.4C207.794 42.68 207.629 42.14 207.299 41.78C206.979 41.42 206.519 41.24 205.919 41.24C205.319 41.24 204.854 41.42 204.524 41.78C204.204 42.14 204.044 42.68 204.044 43.4V46.13C204.044 46.85 204.204 47.39 204.524 47.75C204.854 48.11 205.319 48.29 205.919 48.29ZM218.372 41.405V50H216.227V41.405H213.722V39.53H220.877V41.405H218.372ZM230.263 50L229.618 47.435H226.408L225.763 50H223.708L226.678 39.53H229.408L232.378 50H230.263ZM228.448 43.295L228.118 41.48H227.878L227.548 43.295L226.933 45.71H229.093L228.448 43.295ZM236.7 50V39.53H238.845V48.125H242.4V50H236.7ZM253.086 39.53H256.761C257.401 39.53 257.971 39.63 258.471 39.83C258.981 40.02 259.411 40.325 259.761 40.745C260.111 41.165 260.381 41.705 260.571 42.365C260.761 43.025 260.856 43.825 260.856 44.765C260.856 45.705 260.761 46.505 260.571 47.165C260.381 47.825 260.111 48.365 259.761 48.785C259.411 49.205 258.981 49.515 258.471 49.715C257.971 49.905 257.401 50 256.761 50H253.086V39.53ZM256.761 48.125C257.971 48.125 258.576 47.425 258.576 46.025V43.505C258.576 42.105 257.971 41.405 256.761 41.405H255.231V48.125H256.761ZM265.534 50V39.53H272.014V41.405H267.679V43.775H271.354V45.635H267.679V48.125H272.014V50H265.534ZM174.239 70V59.53H178.769C179.709 59.53 180.424 59.83 180.914 60.43C181.404 61.03 181.649 61.83 181.649 62.83C181.649 63.83 181.404 64.63 180.914 65.23C180.424 65.83 179.709 66.13 178.769 66.13H176.384V70H174.239ZM176.384 64.255H178.499C178.789 64.255 179.014 64.18 179.174 64.03C179.344 63.88 179.429 63.63 179.429 63.28V62.38C179.429 62.03 179.344 61.78 179.174 61.63C179.014 61.48 178.789 61.405 178.499 61.405H176.384V64.255ZM186.16 70V59.53H192.64V61.405H188.305V63.775H191.98V65.635H188.305V68.125H192.64V70H186.16ZM199.538 70H197.393V59.53H201.923C202.863 59.53 203.578 59.825 204.068 60.415C204.558 61.005 204.803 61.795 204.803 62.785C204.803 63.555 204.658 64.205 204.368 64.735C204.078 65.265 203.648 65.635 203.078 65.845L204.908 70H202.583L200.963 66.04H199.538V70ZM201.653 64.255C201.943 64.255 202.168 64.185 202.328 64.045C202.498 63.895 202.583 63.64 202.583 63.28V62.38C202.583 62.02 202.498 61.77 202.328 61.63C202.168 61.48 201.943 61.405 201.653 61.405H199.538V64.255H201.653ZM212.608 70.18C211.038 70.18 209.808 69.63 208.918 68.53L210.298 67.15C210.898 67.92 211.683 68.305 212.653 68.305C213.653 68.305 214.153 67.865 214.153 66.985C214.153 66.625 214.063 66.345 213.883 66.145C213.703 65.945 213.423 65.805 213.043 65.725L212.083 65.545C211.113 65.365 210.398 65.03 209.938 64.54C209.488 64.04 209.263 63.35 209.263 62.47C209.263 61.45 209.563 60.675 210.163 60.145C210.763 59.615 211.643 59.35 212.803 59.35C214.283 59.35 215.408 59.83 216.178 60.79L214.798 62.17C214.538 61.85 214.243 61.615 213.913 61.465C213.593 61.305 213.213 61.225 212.773 61.225C212.293 61.225 211.943 61.315 211.723 61.495C211.513 61.675 211.408 61.965 211.408 62.365C211.408 62.715 211.488 62.98 211.648 63.16C211.818 63.34 212.088 63.47 212.458 63.55L213.418 63.745C213.928 63.855 214.363 63.99 214.723 64.15C215.093 64.3 215.393 64.495 215.623 64.735C215.863 64.975 216.033 65.26 216.133 65.59C216.243 65.92 216.298 66.305 216.298 66.745C216.298 67.865 215.983 68.72 215.353 69.31C214.723 69.89 213.808 70.18 212.608 70.18ZM224.678 70.18C224.048 70.18 223.478 70.085 222.968 69.895C222.458 69.695 222.023 69.38 221.663 68.95C221.303 68.51 221.023 67.95 220.823 67.27C220.623 66.58 220.523 65.745 220.523 64.765C220.523 63.785 220.623 62.955 220.823 62.275C221.023 61.585 221.303 61.025 221.663 60.595C222.023 60.155 222.458 59.84 222.968 59.65C223.478 59.45 224.048 59.35 224.678 59.35C225.308 59.35 225.878 59.45 226.388 59.65C226.898 59.84 227.333 60.155 227.693 60.595C228.053 61.025 228.333 61.585 228.533 62.275C228.733 62.955 228.833 63.785 228.833 64.765C228.833 65.745 228.733 66.58 228.533 67.27C228.333 67.95 228.053 68.51 227.693 68.95C227.333 69.38 226.898 69.695 226.388 69.895C225.878 70.085 225.308 70.18 224.678 70.18ZM224.678 68.29C225.278 68.29 225.738 68.11 226.058 67.75C226.388 67.39 226.553 66.85 226.553 66.13V63.4C226.553 62.68 226.388 62.14 226.058 61.78C225.738 61.42 225.278 61.24 224.678 61.24C224.078 61.24 223.613 61.42 223.283 61.78C222.963 62.14 222.803 62.68 222.803 63.4V66.13C222.803 66.85 222.963 67.39 223.283 67.75C223.613 68.11 224.078 68.29 224.678 68.29ZM236.297 64.39L235.637 62.725H235.397L235.517 64.48V70H233.507V59.53H235.847L238.487 65.14L239.147 66.805H239.387L239.267 65.05V59.53H241.277V70H238.937L236.297 64.39ZM252.156 70L251.511 67.435H248.301L247.656 70H245.601L248.571 59.53H251.301L254.271 70H252.156ZM250.341 63.295L250.011 61.48H249.771L249.441 63.295L248.826 65.71H250.986L250.341 63.295ZM258.594 70V59.53H260.739V68.125H264.294V70H258.594Z" fill="#EE5B3B"/>
<path d="M46.8945 67.9715L40.5676 65.6209C39.3651 65.1741 38.5681 64.0351 38.5681 62.7624V60.2991H29.3249V62.7626C29.3249 64.0351 28.5282 65.1741 27.3256 65.6209L20.9987 67.9715C18.5934 68.8652 17 71.1431 17 73.6881V84.7204C17 86.4063 18.3795 87.773 20.0812 87.773H50.893V73.6881C50.893 71.1431 49.2996 68.8652 46.8945 67.9715Z" fill="#E6AF78"/>
<path d="M33.9465 64.8782C35.6764 64.8782 37.3264 64.5486 38.8548 63.9726C38.6875 63.5942 38.5681 63.1931 38.5681 62.7624V60.2991H29.3249V62.7626C29.3249 63.1931 29.2057 63.5942 29.0382 63.9724C30.5667 64.5486 32.2166 64.8782 33.9465 64.8782Z" fill="#D29B6E"/>
<path d="M20.0812 87.7732H50.893V73.6883C50.893 71.1433 49.2996 68.8654 46.8943 67.9717L40.8091 65.711L36.1253 70.3515C34.9221 71.5435 32.9711 71.5435 31.7677 70.3515L27.0839 65.711L20.9985 67.9717C18.5934 68.8652 17 71.1431 17 73.6881V84.7204C17 86.4065 18.3795 87.7732 20.0812 87.7732Z" fill="#DBD9DC"/>
<path d="M34.006 61.8255H33.887C27.9639 61.8255 23.1623 57.0684 23.1623 51.2001V46.5032C23.1623 40.6349 27.9639 35.8778 33.887 35.8778H34.006C39.9291 35.8778 44.7307 40.6349 44.7307 46.5032V51.1999C44.7307 57.0682 39.9291 61.8255 34.006 61.8255Z" fill="#F0C087"/>
<path d="M29.3249 51.1412V46.5621C29.3249 41.7229 32.5744 37.6402 37.0279 36.3261C36.051 36.0379 35.0181 35.8778 33.9467 35.8778C27.9909 35.8778 23.1625 40.6613 23.1625 46.5621V51.1412C23.1625 57.0419 27.9909 61.8255 33.9467 61.8255C35.0183 61.8255 36.051 61.6654 37.0279 61.3773C32.5742 60.0629 29.3249 55.9802 29.3249 51.1412Z" fill="#E6AF78"/>
<path d="M21.8087 74.2212L17.9726 70.4208C17.3584 71.3784 17 72.5006 17 73.6881V84.7204C17 86.4063 18.3795 87.773 20.0812 87.773H23.1623V77.459C23.1623 76.2446 22.6755 75.0799 21.8087 74.2212Z" fill="#EDEBED"/>
<path d="M32.406 70.8231V87.7732H35.4872V70.8231C34.5346 71.3709 33.3584 71.3709 32.406 70.8231Z" fill="#EDEBED"/>
<path d="M33.9467 41.9829C37.3496 41.9829 40.1082 39.2498 40.1082 35.8784C40.1082 32.507 37.3496 29.774 33.9467 29.774C30.5438 29.774 27.7852 32.507 27.7852 35.8784C27.7852 39.2498 30.5438 41.9829 33.9467 41.9829Z" fill="#6E4B53"/>
<path d="M23.1623 46.5621V49.9874C24.8688 49.1866 26.9588 47.9239 28.5581 46.0449C29.0253 45.4959 29.8246 45.3826 30.4565 45.7344C32.4874 46.8647 37.25 49.0177 44.7307 49.5048V46.5621C44.7307 40.6613 39.9025 35.8778 33.9465 35.8778C27.9907 35.8778 23.1623 40.6613 23.1623 46.5621Z" fill="#5C414B"/>
<path d="M28.059 37.617C25.1129 39.5242 23.1623 42.815 23.1623 46.5619V49.9872C24.8686 49.1866 26.959 47.9237 28.5581 46.0447C28.8032 45.7567 29.1401 45.5962 29.4957 45.5523C28.3545 43.4038 27.4631 40.6015 28.059 37.617Z" fill="#503441"/>
<path d="M121.616 64.168L113.871 60.6155C112.842 60.1436 112.179 59.0905 112.179 57.9284V52.4883H100.782V57.9284C100.782 59.0903 100.119 60.1434 99.0904 60.6153L91.3449 64.168C89.287 65.1118 87.9609 67.2179 87.9609 69.5419V87.7732H122.151C123.724 87.7732 125 86.4568 125 84.8328V69.5421C125 67.2179 123.674 65.1118 121.616 64.168Z" fill="#FAD7A5"/>
<path d="M121.616 64.1678L113.923 60.6395L108.495 66.0175C107.383 67.1199 105.579 67.1199 104.466 66.0175L99.0376 60.6393L91.3449 64.1678C89.287 65.1118 87.9609 67.2177 87.9609 69.5418V87.7732L122.151 87.773C123.724 87.773 125 86.4566 125 84.8326V69.5418C125 67.2177 123.674 65.1118 121.616 64.1678Z" fill="#DBD9DC"/>
<path d="M100.782 52.4883V57.9284C100.782 58.4669 100.627 58.975 100.372 59.4197C102.189 60.3994 104.27 60.9566 106.481 60.9566C108.691 60.9566 110.772 60.3996 112.589 59.4199C112.334 58.9752 112.179 58.4669 112.179 57.9284V52.4883H100.782Z" fill="#F0C891"/>
<path d="M106.481 58.1338C100.973 58.1338 96.5085 53.7105 96.5085 48.2541V39.7856H116.453V48.2541C116.453 53.7105 111.988 58.1338 106.481 58.1338Z" fill="#FFE1B4"/>
<path d="M102.207 48.2541V39.7856H96.5085V48.2541C96.5085 53.7105 100.973 58.1338 106.481 58.1338C107.471 58.1338 108.426 57.9859 109.33 57.7192C105.212 56.5042 102.207 52.7289 102.207 48.2541Z" fill="#FAD7A5"/>
<path d="M107.905 32.7288H105.056C99.5487 32.7288 95.084 37.1522 95.084 42.6086V44.8664C95.084 45.9124 96.2041 46.6225 97.1379 46.1345C98.5833 45.3793 100.278 43.9703 101.417 42.4504C101.877 41.8366 102.762 41.7455 103.381 42.2027C107.901 45.5448 114.197 44.7766 116.743 44.2783C117.406 44.1486 117.877 43.5659 117.877 42.8961V42.6083C117.877 37.152 113.413 32.7288 107.905 32.7288Z" fill="#D59F63"/>
<path d="M97.1379 46.1346C98.5832 45.3793 100.278 43.9703 101.417 42.4504C101.592 42.2178 101.835 42.0851 102.093 42.004C100.079 39.2264 99.9421 36.1301 100.192 33.9878C97.1459 35.6784 95.0838 38.9031 95.0838 42.6086V44.8664C95.0838 45.9122 96.2039 46.6223 97.1379 46.1346Z" fill="#CD915A"/>
<path d="M117.877 75.4131C117.877 74.29 118.327 73.2131 119.129 72.4189L124.487 67.1103C124.817 67.8602 125 68.6856 125 69.5418V84.8326C125 86.4566 123.724 87.773 122.151 87.773H117.877V75.4131Z" fill="#EDEBED"/>
<path d="M105.056 66.4539V87.7732H107.905V66.4539C107.024 66.9605 105.937 66.9605 105.056 66.4539Z" fill="#EDEBED"/>
<path d="M89.0687 58.3777L79.4238 53.9537C78.1425 53.366 77.3167 52.0547 77.3167 50.6077V43.8332L63.1249 43.8334V50.6079C63.1249 52.0549 62.2992 53.366 61.0178 53.9537L51.3727 58.3777C48.81 59.553 47.1586 62.1758 47.1586 65.0698V84.1114C47.1586 86.1337 48.7471 87.773 50.7065 87.773H89.7348C91.6944 87.773 93.2828 86.1335 93.2828 84.1114V65.07C93.2828 62.176 91.6314 59.5532 89.0687 58.3777Z" fill="#B48764"/>
<path d="M50.7066 87.7732L89.7348 87.773C91.6944 87.773 93.2828 86.1335 93.2828 84.1114V65.07C93.2828 62.1758 91.6312 59.5532 89.0687 58.3777L79.4894 53.984L72.7297 60.6811C71.344 62.0539 69.0976 62.0539 67.7119 60.6811L60.952 53.9838L51.3725 58.3777C48.8098 59.553 47.1584 62.1756 47.1584 65.0698V84.1114C47.1584 86.1337 48.7469 87.7732 50.7066 87.7732Z" fill="#5D5360"/>
<path d="M63.1247 43.8332V50.6077C63.1247 51.2783 62.9314 51.9111 62.6136 52.4649C64.8763 53.6849 67.4683 54.3788 70.2208 54.3788C72.9731 54.3788 75.5649 53.6852 77.8278 52.4651C77.5097 51.9113 77.3167 51.2783 77.3167 50.6077V43.8332H63.1247Z" fill="#966D50"/>
<path d="M70.2208 50.8637C63.3624 50.8637 57.8027 45.3553 57.8027 38.5605V28.015H82.6391V38.5605C82.6389 45.3553 77.079 50.8637 70.2208 50.8637Z" fill="#C39772"/>
<path d="M64.8986 38.5603V28.0148H57.8025V38.5603C57.8025 45.3552 63.3624 50.8635 70.2206 50.8635C71.4544 50.8635 72.6438 50.6791 73.7686 50.3473C68.6405 48.834 64.8986 44.1329 64.8986 38.5603Z" fill="#B48764"/>
<path d="M71.9948 19.2268H68.4468C61.5884 19.2268 56.0287 24.7352 56.0287 31.5299V34.3416C56.0287 35.644 57.4236 36.5284 58.5863 35.9209C60.386 34.9804 62.4971 33.2258 63.9157 31.333C64.4886 30.5686 65.5901 30.4553 66.3604 31.0248C71.9897 35.1865 79.8305 34.23 83.0002 33.6097C83.8263 33.4482 84.4133 32.7226 84.4133 31.8885V31.5301C84.4129 24.7352 78.853 19.2268 71.9948 19.2268Z" fill="#5C414B"/>
<path d="M58.5863 35.9209C60.386 34.9804 62.4969 33.2258 63.9155 31.333C64.1325 31.0434 64.4352 30.8781 64.7575 30.7771C62.2495 27.3182 62.0784 23.4625 62.39 20.7946C58.5962 22.9001 56.0285 26.9155 56.0285 31.5301V34.3418C56.0285 35.6442 57.4234 36.5286 58.5863 35.9209Z" fill="#503441"/>
<path d="M56.0285 72.3811C56.0285 70.9826 55.4678 69.6415 54.4697 68.6526L47.7971 62.0418C47.3858 62.9756 47.1584 64.0036 47.1584 65.0696V84.1112C47.1584 86.1335 48.7469 87.773 50.7063 87.773H56.0285V72.3811Z" fill="#6F6571"/>
<path d="M84.4127 72.3811C84.4127 70.9826 84.9733 69.6415 85.9715 68.6526L92.6441 62.0418C93.0554 62.9756 93.2828 64.0036 93.2828 65.0696V84.1112C93.2828 86.1335 91.6942 87.773 89.7348 87.773H84.4127V72.3811Z" fill="#6F6571"/>
<path d="M68.4466 61.2245V87.7732L71.9946 87.773V61.2245C70.8979 61.8552 69.5435 61.8552 68.4466 61.2245Z" fill="#6F6571"/>
</svg>
