<svg width="32" height="32" viewBox="0 0 32 32" fill="none" xmlns="http://www.w3.org/2000/svg">
<path d="M13.1189 9.8093V2.46603L0.863037 14.6268L13.1189 26.904V19.5613C13.1189 19.5613 23.8449 16.9069 31.2284 29.3133C31.2284 29.3133 33.069 19.8441 24.8225 12.9824C24.8231 12.9817 21.171 9.56672 13.1189 9.8093Z" fill="#FCFFFE"/>
<path d="M31.5222 30.9974L30.7048 29.6248C24.4794 19.1633 15.8324 19.749 13.7284 20.0678V28.3777L0 14.625L13.7284 1.00201V9.18822C21.4861 9.12544 25.0919 12.3991 25.2394 12.5368C33.6389 19.5247 31.8458 29.331 31.8269 29.4291L31.5222 30.9974ZM15.6306 18.7129C19.142 18.7129 25.5923 19.8941 30.7792 27.4751C30.8572 24.505 30.2331 18.2753 24.4343 13.4505C24.3739 13.3968 20.7882 10.1756 13.1384 10.4182L12.5106 10.4365V3.92945L1.72611 14.6286L12.5094 25.4314V19.0841L12.9726 18.9695C13.0153 18.9585 14.027 18.7129 15.6306 18.7129Z" fill="#FCFFFE"/>
</svg>
