<svg width="149" height="147" viewBox="0 0 149 147" fill="none" xmlns="http://www.w3.org/2000/svg">
<g filter="url(#filter0_d)">
<ellipse cx="74.1557" cy="69.5" rx="70.1557" ry="69.5" fill="#E9CFF2"/>
<path d="M142.311 69.5C142.311 106.762 111.815 137 74.1557 137C36.4966 137 6 106.762 6 69.5C6 32.2384 36.4966 2 74.1557 2C111.815 2 142.311 32.2384 142.311 69.5Z" stroke="#CD71F8" stroke-width="4"/>
</g>
<path d="M112.219 83.7805C112.132 83.635 112.04 83.4956 111.949 83.3726C111.04 82.102 109.688 81.2621 108.146 81.0085C106.611 80.755 105.056 81.1164 103.79 82.0255L87.0199 94.0001H69.5C68.6735 94.0001 68 93.3281 68 92.5002C68 91.6722 68.6735 91.0002 69.5 91.0002H79.25C82.145 91.0002 84.5001 88.6453 84.5001 85.7502C84.5001 85.7337 84.4985 85.5957 84.4971 85.5807C84.4041 82.6872 81.9636 80.4312 79.1302 80.5003H59.6167C57.8872 80.5152 56.2027 81.1349 54.8752 82.2418L47.5402 88.3468C47.1981 88.6333 47.0002 89.0549 47.0002 89.5003V107.5C47.0002 108.33 47.6722 109 48.5001 109H85.7167C88.1527 108.997 90.5257 108.139 92.4008 106.587L110.585 91.5613C113.056 89.8014 113.773 86.3846 112.219 83.7805ZM108.761 89.1835L90.4895 104.275C89.1484 105.385 87.452 105.997 85.7149 106H50V90.2034L56.7964 84.5454C57.5945 83.8809 58.604 83.5088 59.63 83.4998L79.178 83.4984C80.4214 83.4968 81.4594 84.4374 81.5 85.75C81.5 86.9905 80.4905 88 79.25 88H69.5C67.019 88 65 90.019 65 92.5C65 94.981 67.019 97 69.5 97H87.5C87.812 97 88.1164 96.9024 88.3745 96.721L105.537 84.4645C106.155 84.0205 106.907 83.848 107.66 83.9679C108.411 84.0924 109.069 84.5004 109.52 85.1304C109.565 85.1919 109.605 85.2548 109.644 85.3193C110.404 86.5901 110.051 88.2595 108.761 89.1835Z" fill="#871E98"/>
<path d="M48.4551 86.5001H32V89.5001H46.9549V112H32V115H48.4551C49.283 115 49.955 114.33 49.955 113.5V88C49.955 87.1705 49.283 86.5001 48.4551 86.5001Z" fill="#871E98"/>
<path d="M39.5001 100C37.0191 100 35.0001 102.019 35.0001 104.5C35.0001 106.981 37.0191 109 39.5001 109C41.981 109 44.0001 106.981 44.0001 104.5C44.0001 102.019 41.981 100 39.5001 100ZM39.5001 106C38.6735 106 38.0001 105.328 38.0001 104.5C38.0001 103.672 38.6735 103 39.5001 103C40.3266 103 41 103.672 41 104.5C41 105.328 40.3266 106 39.5001 106Z" fill="#871E98"/>
<path d="M120.5 71.4999H33.4999C32.672 71.4999 32 72.1704 32 72.9999C32 78.7884 36.7101 83.4998 42.4999 83.4998H111.5C117.288 83.4998 122 78.7884 122 72.9999C122 72.1706 121.33 71.4999 120.5 71.4999ZM111.5 80.4999H42.4999C38.8774 80.4999 35.8475 77.9184 35.1514 74.5H118.848C118.152 77.9184 115.123 80.4999 111.5 80.4999Z" fill="#871E98"/>
<path d="M77 32.5001C55.496 32.5001 37.9999 49.9961 37.9999 71.5001V73.0001C37.9999 73.8296 38.672 74.5 39.4999 74.5H114.5C115.329 74.5 116 73.8296 116 73.0001V71.5001C116 49.9959 98.5054 32.5001 77 32.5001ZM41 71.4999C41 51.6504 57.1504 35.4999 77 35.4999C96.8496 35.4999 113 51.6504 113 71.4999H41Z" fill="#871E98"/>
<path d="M52.3281 49.6104C51.2796 50.7894 50.3077 52.051 49.4391 53.3619L51.9396 55.0194C52.7317 53.8253 53.6166 52.6748 54.5706 51.6024L52.3281 49.6104Z" fill="#871E98"/>
<path d="M77 38.5C68.576 38.5046 60.5555 41.6874 54.4175 47.458L56.4726 49.6435C62.0526 44.3964 69.344 41.5045 77.0016 41.5001L77 38.5Z" fill="#871E98"/>
<path d="M81.5 25H72.5V28.0001H81.5V25Z" fill="#871E98"/>
<path d="M78.5001 26.4999H75.5V34H78.5001V26.4999Z" fill="#871E98"/>
<defs>
<filter id="filter0_d" x="0" y="0" width="148.311" height="147" filterUnits="userSpaceOnUse" color-interpolation-filters="sRGB">
<feFlood flood-opacity="0" result="BackgroundImageFix"/>
<feColorMatrix in="SourceAlpha" type="matrix" values="0 0 0 0 0 0 0 0 0 0 0 0 0 0 0 0 0 0 127 0"/>
<feOffset dy="4"/>
<feGaussianBlur stdDeviation="2"/>
<feColorMatrix type="matrix" values="0 0 0 0 0 0 0 0 0 0 0 0 0 0 0 0 0 0 0.25 0"/>
<feBlend mode="normal" in2="BackgroundImageFix" result="effect1_dropShadow"/>
<feBlend mode="normal" in="SourceGraphic" in2="effect1_dropShadow" result="shape"/>
</filter>
</defs>
</svg>
