<svg width="149" height="147" viewBox="0 0 149 147" fill="none" xmlns="http://www.w3.org/2000/svg">
<g filter="url(#filter0_d)">
<ellipse cx="74.1557" cy="69.5" rx="70.1557" ry="69.5" fill="#F1D0D6"/>
<path d="M142.311 69.5C142.311 106.762 111.815 137 74.1557 137C36.4966 137 6 106.762 6 69.5C6 32.2384 36.4966 2 74.1557 2C111.815 2 142.311 32.2384 142.311 69.5Z" stroke="#FD659C" stroke-width="4"/>
</g>
<path d="M108.868 56.6656L97.618 31.766C97.5142 31.5362 97.3546 31.343 97.1571 31.208C96.9597 31.0729 96.7321 31.0014 96.5 31.0014C94.8744 31.0012 93.2721 31.4286 91.825 32.2483C90.378 33.068 89.1277 34.2565 88.1772 35.7158C87.2266 37.1752 86.6031 38.8636 86.358 40.642C86.1128 42.4204 86.2531 44.2378 86.7672 45.9444L88.5073 51.7232L87.2659 53.097C87.1 53.1727 85.64 51.9234 85.4636 51.8091C85.4497 51.8001 85.4358 51.7918 85.4219 51.7832C82.8156 50.0814 79.9706 48.8738 77.0045 48.2103C78.4108 46.9508 79.4297 45.24 79.9211 43.3132C80.4125 41.3865 80.3521 39.3386 79.7483 37.4513C79.1445 35.5641 78.027 33.9304 76.5496 32.7751C75.0721 31.6198 73.3074 30.9996 71.4983 31C69.6892 31.0004 67.9247 31.6213 66.4477 32.7773C64.9707 33.9333 63.8537 35.5675 63.2506 37.455C62.6475 39.3425 62.5879 41.3904 63.08 43.317C63.572 45.2435 64.5916 46.9539 65.9983 48.2127C62.3101 49.043 58.8164 50.7067 55.7359 53.0998L52.0181 48.9844C51.5488 48.4663 50.9129 48.1753 50.2499 48.1753C49.587 48.1753 48.9511 48.4663 48.4817 48.9844L45.25 52.5608C44.8601 52.9911 44.6099 53.5522 44.5384 54.1564C44.4669 54.7606 44.5781 55.374 44.8547 55.901H41.5C40.335 55.8958 39.1852 56.1933 38.1431 56.7697C37.101 57.346 36.1957 58.185 35.5 59.2192L37.5 60.8809C37.9637 60.1913 38.5672 59.6318 39.262 59.2474C39.9567 58.863 40.7233 58.6644 41.5 58.6676H49C50.3261 58.6676 51.5979 59.2505 52.5355 60.2882C53.4732 61.3259 54 62.7333 54 64.2008C54 65.6683 53.4732 67.0757 52.5355 68.1134C51.5979 69.1511 50.3261 69.7341 49 69.7341H41.5C40.7587 69.7331 40.0268 69.55 39.3572 69.1979C38.6877 68.8458 38.0971 68.3335 37.6283 67.6981C37.1594 67.0626 36.824 66.3198 36.6461 65.5234C36.4683 64.727 36.4526 63.8968 36.6 63.0928L34.15 62.5422C33.8527 64.1629 33.9994 65.8448 34.5714 67.3726C35.1434 68.9004 36.1146 70.2043 37.3605 71.1174C36.1356 72.0141 35.1758 73.2893 34.6001 74.7846C34.0245 76.2799 33.8585 77.9293 34.1227 79.5281C34.3869 81.1269 35.0697 82.6045 36.0863 83.7776C37.1028 84.9506 38.4084 85.7673 39.8408 86.1263C38.9796 87.1178 38.3548 88.3308 38.0226 89.656C37.6905 90.9813 37.6614 92.3771 37.9381 93.7179C38.2148 95.0587 38.7885 96.3022 39.6075 97.3365C40.4266 98.3708 41.4653 99.1635 42.63 99.643C41.5301 100.779 40.7647 102.256 40.4334 103.88C40.1022 105.505 40.2205 107.202 40.7729 108.751C41.3253 110.3 42.2862 111.629 43.5306 112.565C44.775 113.501 46.2453 114.001 47.75 114H55.25C57.0562 113.997 58.8011 113.274 60.1647 111.964C61.5284 110.653 62.4195 108.842 62.6749 106.864C65.5172 107.93 68.4987 108.471 71.5 108.467C86.6636 108.467 99 94.8147 99 78.0339C99.0184 71.7892 97.2828 65.6924 94.0333 60.5869L97.75 56.4745C97.9823 56.2176 98.1666 55.9125 98.2923 55.5768C98.418 55.241 98.4827 54.8811 98.4827 54.5176C98.4827 54.1542 98.418 53.7943 98.2923 53.4585C98.1666 53.1228 97.9823 52.8177 97.75 52.5608L94.5181 48.9844C94.0488 48.4663 93.4129 48.1753 92.7499 48.1753C92.087 48.1753 91.4511 48.4663 90.9817 48.9844L90.4839 49.5353L89.1389 45.0688C88.7704 43.845 88.6558 42.5451 88.8035 41.2655C88.9512 39.986 89.3575 38.7597 89.9921 37.6778C90.6268 36.5958 91.4735 35.686 92.4695 35.0158C93.4655 34.3457 94.5851 33.9324 95.7452 33.8067L106.5 57.6109V96.017C106.496 100.051 105.046 103.919 102.468 106.772C99.8904 109.624 96.3955 111.229 92.75 111.233H62.75V114H92.75C97.0583 113.995 101.189 112.098 104.235 108.727C107.282 105.356 108.995 100.785 109 96.017V57.2843C109 57.0695 108.955 56.8577 108.868 56.6656ZM74 42.0679H69V39.3012H74V42.0679ZM70.25 44.8345H72.75V47.6334C71.9202 47.5926 71.0781 47.5926 70.25 47.6334V44.8345ZM71.5 33.768C72.8118 33.768 74.0903 34.2247 75.1544 35.0735C76.2186 35.9223 77.0145 37.1202 77.4293 38.4973C77.8441 39.8745 77.8568 41.3612 77.4657 42.7468C77.0746 44.1325 76.2994 45.3468 75.25 46.2178V44.8345C75.5815 44.8345 75.8995 44.6887 76.1339 44.4293C76.3683 44.1699 76.5 43.818 76.5 43.4512V37.9179C76.5 37.551 76.3683 37.1992 76.1339 36.9398C75.8995 36.6804 75.5815 36.5346 75.25 36.5346H67.75C67.4185 36.5346 67.1005 36.6804 66.8661 36.9398C66.6317 37.1992 66.5 37.551 66.5 37.9179V43.4512C66.5 43.818 66.6317 44.1699 66.8661 44.4293C67.1005 44.6887 67.4185 44.8345 67.75 44.8345V46.2178C66.7006 45.3468 65.9254 44.1325 65.5343 42.7468C65.1432 41.3612 65.1559 39.8745 65.5707 38.4973C65.9856 37.1202 66.7814 35.9223 67.8456 35.0735C68.9097 34.2247 70.1882 33.768 71.5 33.768ZM48.268 55.901L47.018 54.5176L50.25 50.9413L53.7389 54.8023C53.1336 55.3694 52.5503 55.9656 51.9889 56.5907C51.0463 56.1351 50.0286 55.9002 49 55.901H48.268ZM36.5 78.0339C36.5015 76.5669 37.0288 75.1605 37.9661 74.1232C38.9035 73.0858 40.1744 72.5023 41.5 72.5007H49C50.3261 72.5007 51.5979 73.0837 52.5355 74.1213C53.4732 75.159 54 76.5664 54 78.0339C54 79.5014 53.4732 80.9088 52.5355 81.9465C51.5979 82.9842 50.3261 83.5672 49 83.5672H41.5C40.1744 83.5655 38.9035 82.982 37.9661 81.9447C37.0288 80.9074 36.5015 79.5009 36.5 78.0339ZM45.25 97.4003C43.9239 97.4003 42.6522 96.8173 41.7145 95.7796C40.7768 94.7419 40.25 93.3345 40.25 91.867C40.25 90.3995 40.7768 88.9921 41.7145 87.9544C42.6522 86.9168 43.9239 86.3338 45.25 86.3338H52.75C54.0761 86.3338 55.3479 86.9168 56.2855 87.9544C57.2232 88.9921 57.75 90.3995 57.75 91.867C57.75 93.3345 57.2232 94.7419 56.2855 95.7796C55.3479 96.8173 54.0761 97.4003 52.75 97.4003H45.25ZM55.25 111.233H47.75C46.4239 111.233 45.1522 110.65 44.2145 109.613C43.2768 108.575 42.75 107.168 42.75 105.7C42.75 104.233 43.2768 102.825 44.2145 101.788C45.1522 100.75 46.4239 100.167 47.75 100.167H55.25C56.5761 100.167 57.8479 100.75 58.7855 101.788C59.7232 102.825 60.25 104.233 60.25 105.7C60.25 107.168 59.7232 108.575 58.7855 109.613C57.8479 110.65 56.5761 111.233 55.25 111.233ZM71.5 105.7C68.4464 105.706 65.4179 105.089 62.5663 103.88C62.2904 102.535 61.7169 101.286 60.8972 100.246C60.0775 99.2068 59.0373 98.4087 57.87 97.9239C59.1338 96.6198 59.9509 94.872 60.1825 92.977C60.4141 91.082 60.0459 89.1568 59.1405 87.5281L61.3 86.1486L60.05 83.7524L57.455 85.4101C56.5661 84.6143 55.524 84.0547 54.4091 83.7743C55.4509 82.5753 56.1424 81.0569 56.3934 79.4169H59V76.6506H56.3939C56.2217 75.5313 55.844 74.4628 55.2843 73.5112C54.7246 72.5595 53.9947 71.7448 53.1395 71.1174C54.0841 70.4268 54.875 69.5083 55.4526 68.4308C56.0301 67.3533 56.3794 66.1449 56.4742 64.8964C56.5689 63.648 56.4067 62.392 55.9996 61.223C55.5925 60.054 54.9512 59.0023 54.1239 58.1471C56.7215 55.3659 59.8333 53.2413 63.2447 51.9199C66.6561 50.5985 70.2859 50.1117 73.8838 50.4931C86.3914 51.8316 96.5 64.0002 96.5 78.0339C96.5 93.2892 85.285 105.7 71.5 105.7ZM92.75 50.9413L95.9817 54.5176L92.4911 58.3805C91.5052 57.0912 90.4244 55.8947 89.2597 54.8031L92.75 50.9413Z" fill="#D61057"/>
<path d="M71.5 53.1344C66.1669 53.1351 61.0074 55.2313 56.9407 59.0494L58.5592 61.1576C61.2883 58.5981 64.588 56.8958 68.114 56.2282C71.6401 55.5605 75.2635 55.9519 78.6063 57.3615C81.9492 58.7712 84.8891 61.1475 87.1195 64.2427C89.3498 67.3378 90.7891 71.0385 91.287 74.9588C91.785 78.8791 91.3234 82.8754 89.9505 86.5311C88.5776 90.1868 86.3436 93.368 83.4815 95.7429C80.6194 98.1178 77.2339 99.5994 73.6782 100.033C70.1224 100.467 66.5266 99.8377 63.2656 98.2101L62.2343 100.731C65.1448 102.19 68.3046 102.942 71.5 102.934C83.9062 102.934 93.9999 91.7633 93.9999 78.034C93.9999 64.3046 83.9062 53.1344 71.5 53.1344Z" fill="#D61057"/>
<path d="M70.2499 91.867H72.7499V97.4003H70.2499V91.867Z" fill="#D61057"/>
<path d="M70.2499 58.6676H72.7499V64.2008H70.2499V58.6676Z" fill="#D61057"/>
<path d="M76.6663 90.7039L78.8313 89.3206L81.3313 94.1124L79.1663 95.4957L76.6663 90.7039Z" fill="#D61057"/>
<path d="M61.6666 61.9529L63.8316 60.5696L66.3316 65.3614L64.1666 66.7447L61.6666 61.9529Z" fill="#D61057"/>
<path d="M81.699 86.1494L82.949 83.7537L87.279 86.5203L86.029 88.916L81.699 86.1494Z" fill="#D61057"/>
<path d="M55.7186 69.5491L56.9685 67.1534L61.2985 69.92L60.0486 72.3158L55.7186 69.5491Z" fill="#D61057"/>
<path d="M84 76.6506H89V79.4172H84V76.6506Z" fill="#D61057"/>
<path d="M76.6667 65.3638L79.1667 60.572L81.3317 61.9553L78.8317 66.7471L76.6667 65.3638Z" fill="#D61057"/>
<path d="M61.666 94.115L64.166 89.3232L66.331 90.7065L63.831 95.4983L61.666 94.115Z" fill="#D61057"/>
<path d="M67.75 78.0339C67.7496 78.612 67.8584 79.1839 68.0693 79.7127C68.2802 80.2416 68.5887 80.7159 68.9749 81.1052C69.3612 81.4945 69.8166 81.7901 70.3121 81.9733C70.8076 82.1564 71.3322 82.2229 71.8523 82.1686C72.3724 82.1143 72.8765 81.9404 73.3323 81.6579C73.7881 81.3754 74.1855 80.9907 74.4991 80.5283C74.8127 80.066 75.0356 79.5362 75.1534 78.973C75.2712 78.4098 75.2814 77.8255 75.1833 77.2577L87.1298 69.5458L85.8702 67.1561L73.9219 74.8696C73.3765 74.3574 72.7101 74.0286 72.0013 73.9222C71.2925 73.8157 70.571 73.9359 69.922 74.2686C69.273 74.6014 68.7236 75.1328 68.3387 75.8C67.9538 76.4672 67.7495 77.2424 67.75 78.0339ZM71.5 76.6506C71.7472 76.6506 71.9889 76.7317 72.1945 76.8837C72.4 77.0357 72.5602 77.2518 72.6548 77.5046C72.7495 77.7573 72.7742 78.0355 72.726 78.3038C72.6778 78.5721 72.5587 78.8186 72.3839 79.0121C72.2091 79.2055 71.9863 79.3373 71.7439 79.3907C71.5014 79.444 71.2501 79.4166 71.0216 79.3119C70.7932 79.2072 70.598 79.0299 70.4607 78.8025C70.3233 78.575 70.25 78.3075 70.25 78.0339C70.2504 77.6672 70.3822 77.3156 70.6165 77.0562C70.8509 76.7969 71.1686 76.651 71.5 76.6506Z" fill="#D61057"/>
<defs>
<filter id="filter0_d" x="0" y="0" width="148.311" height="147" filterUnits="userSpaceOnUse" color-interpolation-filters="sRGB">
<feFlood flood-opacity="0" result="BackgroundImageFix"/>
<feColorMatrix in="SourceAlpha" type="matrix" values="0 0 0 0 0 0 0 0 0 0 0 0 0 0 0 0 0 0 127 0"/>
<feOffset dy="4"/>
<feGaussianBlur stdDeviation="2"/>
<feColorMatrix type="matrix" values="0 0 0 0 0 0 0 0 0 0 0 0 0 0 0 0 0 0 0.25 0"/>
<feBlend mode="normal" in2="BackgroundImageFix" result="effect1_dropShadow"/>
<feBlend mode="normal" in="SourceGraphic" in2="effect1_dropShadow" result="shape"/>
</filter>
</defs>
</svg>
