<svg width="149" height="147" viewBox="0 0 149 147" fill="none" xmlns="http://www.w3.org/2000/svg">
<g filter="url(#filter0_d)">
<ellipse cx="74.1557" cy="69.5" rx="70.1557" ry="69.5" fill="#BCE4FA"/>
<path d="M142.311 69.5C142.311 106.762 111.815 137 74.1557 137C36.4966 137 6 106.762 6 69.5C6 32.2384 36.4966 2 74.1557 2C111.815 2 142.311 32.2384 142.311 69.5Z" stroke="#6B77E0" stroke-width="4"/>
</g>
<g clip-path="url(#clip0)">
<path d="M98.0007 35.4979V29.7139C98.0154 28.2322 97.3561 26.8241 96.2083 25.8868C95.2354 25.1074 93.9571 24.8209 92.7447 25.1104L49.6895 35.5292C47.3361 35.6878 45.5061 37.6395 45.4993 39.998V110.5C45.5019 112.984 47.5152 114.997 49.9994 115H98.0007C100.485 114.997 102.498 112.984 102.501 110.5V39.998C102.498 37.5138 100.485 35.5007 98.0007 35.4979ZM93.4508 28.027C93.769 27.9532 94.1035 28.0337 94.3531 28.2445C94.7801 28.611 95.0183 29.1512 95.0005 29.7137V35.4979H62.5776L93.4508 28.027ZM99.5006 110.5C99.4996 111.328 98.8286 111.999 98.0007 112H49.9994C49.1714 111.999 48.5005 111.328 48.4994 110.5V39.998C48.5005 39.1701 49.1714 38.4991 49.9994 38.4981H98.0007C98.8286 38.4991 99.4996 39.1701 99.5006 39.998V110.5Z" fill="#4B59D8"/>
<path d="M81.5001 89.1486C83.9843 89.146 85.9976 87.1327 86.0002 84.6485V66.648C87.6565 66.6465 88.9986 65.3042 89.0004 63.6479V54.6477C89.0004 48.0909 85.6269 43.5387 80.1956 42.7667L78.7102 42.5564C78.2801 42.4956 77.8446 42.6245 77.5165 42.9092C77.1884 43.1942 77 43.6073 76.9998 44.0418V84.6483C77.0028 87.1327 79.0159 89.1458 81.5001 89.1486ZM80.0001 45.7726C85.4099 46.6897 86.0002 52.2672 86.0002 54.6475V63.6477H84.5002C83.6718 63.6477 83.0003 64.3194 83.0003 65.1477V84.6481C83.0003 85.4766 82.3288 86.1481 81.5003 86.1481C80.6718 86.1481 80.0003 85.4766 80.0003 84.6481V45.7726H80.0001Z" fill="#4B59D8"/>
<path d="M61.9997 61.3393V84.6485C61.9997 87.1339 64.0144 89.1486 66.4998 89.1486C68.9852 89.1486 70.9999 87.1339 70.9999 84.6485V61.3393C72.8594 60.2728 74.0043 58.2914 74.0001 56.1478V44.1475C74.0001 43.319 73.3286 42.6475 72.5001 42.6475C71.6716 42.6475 71.0001 43.319 71.0001 44.1475V51.6477C71.0001 52.4762 70.3284 53.1477 69.5001 53.1477C68.6716 53.1477 68.0001 52.4762 68.0001 51.6477V44.1475C68.0001 43.319 67.3286 42.6475 66.5002 42.6475C65.6717 42.6475 65.0002 43.319 65.0002 44.1475V51.6477C65.0002 52.4762 64.3287 53.1477 63.5002 53.1477C62.6717 53.1477 62.0002 52.4762 62.0002 51.6477V44.1475C62.0002 43.319 61.3287 42.6475 60.5002 42.6475C59.6718 42.6475 59.0003 43.319 59.0003 44.1475V56.1478C58.9952 58.2912 60.1402 60.2726 61.9997 61.3393ZM61.9997 55.8711C62.4801 56.049 62.9876 56.1426 63.4997 56.1477C64.6105 56.1441 65.6801 55.7268 66.4998 54.9773C67.709 56.1044 69.4518 56.4507 70.9999 55.8713V56.1477C71.0073 57.4124 70.2096 58.542 69.0149 58.9581C68.4078 59.1654 67.9998 59.736 67.9998 60.3776V84.6485C67.9998 85.477 67.3283 86.1485 66.4998 86.1485C65.6713 86.1485 64.9998 85.477 64.9998 84.6485V60.3776C64.9998 59.736 64.5918 59.1654 63.9847 58.9581C62.7902 58.542 61.9925 57.4126 61.9997 56.1477V55.8711Z" fill="#4B59D8"/>
<path d="M58.9996 101.149H80.0002C80.8287 101.149 81.5002 100.477 81.5002 99.6488C81.5002 98.8203 80.8285 98.1488 80.0002 98.1488H58.9996C58.1711 98.1488 57.4996 98.8203 57.4996 99.6488C57.4996 100.477 58.1711 101.149 58.9996 101.149Z" fill="#4B59D8"/>
<path d="M89.0004 98.1488H86.0003C85.1718 98.1488 84.5003 98.8203 84.5003 99.6488C84.5003 100.477 85.1718 101.149 86.0003 101.149H89.0004C89.8289 101.149 90.5004 100.477 90.5004 99.6488C90.5004 98.8203 89.8289 98.1488 89.0004 98.1488Z" fill="#4B59D8"/>
<path d="M89.0004 104.149H77C76.1716 104.149 75.5001 104.82 75.5001 105.649C75.5001 106.477 76.1716 107.149 77 107.149H89.0004C89.8289 107.149 90.5004 106.477 90.5004 105.649C90.5004 104.82 89.8289 104.149 89.0004 104.149Z" fill="#4B59D8"/>
<path d="M71 104.149H69.5C68.6715 104.149 68 104.82 68 105.649C68 106.477 68.6717 107.149 69.5 107.149H71C71.8284 107.149 72.4999 106.477 72.4999 105.649C72.4999 104.82 71.8284 104.149 71 104.149Z" fill="#4B59D8"/>
<path d="M63.4997 104.149H58.9996C58.1711 104.149 57.4996 104.82 57.4996 105.649C57.4996 106.477 58.1711 107.149 58.9996 107.149H63.4997C64.3282 107.149 64.9997 106.477 64.9997 105.649C64.9997 104.82 64.3282 104.149 63.4997 104.149Z" fill="#4B59D8"/>
</g>
<defs>
<filter id="filter0_d" x="0" y="0" width="148.311" height="147" filterUnits="userSpaceOnUse" color-interpolation-filters="sRGB">
<feFlood flood-opacity="0" result="BackgroundImageFix"/>
<feColorMatrix in="SourceAlpha" type="matrix" values="0 0 0 0 0 0 0 0 0 0 0 0 0 0 0 0 0 0 127 0"/>
<feOffset dy="4"/>
<feGaussianBlur stdDeviation="2"/>
<feColorMatrix type="matrix" values="0 0 0 0 0 0 0 0 0 0 0 0 0 0 0 0 0 0 0.25 0"/>
<feBlend mode="normal" in2="BackgroundImageFix" result="effect1_dropShadow"/>
<feBlend mode="normal" in="SourceGraphic" in2="effect1_dropShadow" result="shape"/>
</filter>
<clipPath id="clip0">
<rect width="90" height="90" fill="white" transform="translate(29 25)"/>
</clipPath>
</defs>
</svg>
