<svg width="149" height="147" viewBox="0 0 149 147" fill="none" xmlns="http://www.w3.org/2000/svg">
<g filter="url(#filter0_d)">
<ellipse cx="74.1557" cy="69.5" rx="70.1557" ry="69.5" fill="#CEFEED"/>
<path d="M142.311 69.5C142.311 106.762 111.815 137 74.1557 137C36.4966 137 6 106.762 6 69.5C6 32.2384 36.4966 2 74.1557 2C111.815 2 142.311 32.2384 142.311 69.5Z" stroke="#1ED0A5" stroke-width="4"/>
</g>
<g clip-path="url(#clip0)">
<path d="M91.2119 73.4317L82.9552 69.762C82.3719 69.5028 81.9953 68.9229 81.9953 68.2848V66.0175C84.7688 63.8075 86.5516 60.4044 86.5516 56.5907V53.3991C87.4653 52.8942 88.0702 51.9185 88.0702 50.8257V50.516C88.0702 43.8708 82.6638 38.4644 76.0186 38.4644H72.9813C66.3361 38.4644 60.9298 43.8708 60.9298 50.516V53.3265C60.9298 54.287 61.3432 55.1572 62.0636 55.714C62.1858 55.8083 62.3145 55.8913 62.4484 55.9631V56.5906C62.4484 60.4042 64.231 63.8073 67.0043 66.0171V68.2846C67.0043 68.9227 66.6275 69.5026 66.0444 69.7618L57.7877 73.4315C55.0837 74.6332 53.3364 77.3219 53.3364 80.2809V99.1131C53.3364 99.8979 53.9725 100.534 54.7573 100.534C55.542 100.534 56.1781 99.8979 56.1781 99.1131V80.2811C56.1781 80.1165 56.1899 79.9537 56.2069 79.7923L60.0115 83.5969C60.6035 84.1891 60.9298 84.9763 60.9298 85.8138V99.1133C60.9298 99.898 61.5659 100.534 62.3507 100.534C63.1354 100.534 63.7715 99.898 63.7715 99.1133V85.8138C63.7715 84.2173 63.15 82.7165 62.021 81.5875L57.4854 77.0517C57.894 76.6277 58.3843 76.2763 58.942 76.0283L67.0595 72.4206L73.0793 78.4404V99.1131C73.0793 99.8979 73.7155 100.534 74.5002 100.534C75.2849 100.534 75.9211 99.8979 75.9211 99.1131V78.4406L81.9409 72.4207L90.0581 76.0283C90.6159 76.2763 91.1062 76.6277 91.5148 77.0519L86.9792 81.5875C85.8502 82.7165 85.2286 84.2173 85.2286 85.8138V99.1133C85.2286 99.898 85.8648 100.534 86.6495 100.534C87.4342 100.534 88.0704 99.898 88.0704 99.1133V85.8138C88.0704 84.9765 88.3965 84.1891 88.9887 83.5969L92.7931 79.7925C92.8101 79.9539 92.8219 80.1163 92.8219 80.2809V99.1131C92.8219 99.8979 93.458 100.534 94.2427 100.534C95.0274 100.534 95.6636 99.8979 95.6636 99.1131V80.2811C95.6631 77.322 93.9159 74.6334 91.2119 73.4317ZM74.4996 75.8426L69.2175 70.5603C69.6192 69.8846 69.8459 69.1027 69.8459 68.2848V67.7066C71.2787 68.3087 72.851 68.6423 74.4998 68.6423C76.1486 68.6423 77.7207 68.3089 79.1533 67.7068V68.2848C79.1533 69.1029 79.3801 69.8846 79.7819 70.5605L74.4996 75.8426ZM74.4998 65.8004C69.4216 65.8006 65.29 61.669 65.29 56.5907V55.9517C66.1766 55.6003 67.042 55.041 67.8705 54.2766C68.447 53.7444 68.4832 52.8455 67.9508 52.2688C67.4187 51.6923 66.5199 51.6561 65.943 52.1883C65.2324 52.8443 64.5223 53.2681 63.8331 53.4481C63.8164 53.4525 63.8041 53.4544 63.7954 53.4551C63.7852 53.4352 63.7714 53.3936 63.7714 53.3267V50.5162C63.7714 45.4379 67.9029 41.3064 72.9812 41.3064H76.0184C81.0969 41.3064 85.2283 45.4379 85.2283 50.5162V50.8259C85.2283 50.872 85.2006 50.9119 85.1642 50.9191C76.6558 52.5996 72.3882 49.4325 70.9483 47.9927C70.3934 47.4378 69.4937 47.4378 68.939 47.9927C68.3841 48.5476 68.3841 49.4473 68.939 50.002C73.3513 54.4143 79.7899 54.4939 83.7096 54.0229V56.5906C83.7096 61.6688 79.5781 65.8004 74.4998 65.8004Z" fill="#1AAF7A"/>
<path d="M51.6218 65.7032V62.6653C51.6218 58.9585 49.6955 55.6954 46.7929 53.8175C46.9721 53.2426 47.0657 52.6403 47.0657 52.0346C47.0657 48.7389 44.3846 46.0578 41.0889 46.0578C37.7932 46.0578 35.112 48.7391 35.112 52.0346C35.112 52.6479 35.2049 53.2443 35.3845 53.8179C32.4821 55.6956 30.5559 58.9587 30.5559 62.6653V65.7026C30.5559 69.2921 32.362 72.4662 35.1119 74.3687V77.4933C35.1119 78.1096 34.7695 78.6635 34.2184 78.9392L29.3038 81.3964C27.2659 82.4156 26 84.464 26 86.7425V99.1135C26 99.8982 26.6362 100.534 27.4209 100.534C28.2056 100.534 28.8418 99.8982 28.8418 99.1135V87.3571L31.1565 89.6718C31.7485 90.264 32.0748 91.0512 32.0748 91.8888V99.1135C32.0748 99.8982 32.7109 100.534 33.4956 100.534C34.2804 100.534 34.9165 99.8982 34.9165 99.1135V91.8888C34.9165 90.2923 34.2948 88.7914 33.166 87.6625L29.9444 84.4409C29.9288 84.4253 29.9122 84.4119 29.8963 84.3973C30.0984 84.2188 30.3252 84.0635 30.5749 83.9384L35.4894 81.4813C35.7412 81.3553 35.9756 81.2066 36.194 81.0414L39.668 84.5155V99.1137C39.668 99.8984 40.3042 100.535 41.0889 100.535C41.8736 100.535 42.5098 99.8984 42.5098 99.1137V84.5153L45.9839 81.0412C46.2025 81.2066 46.4367 81.3553 46.6885 81.4811L48.0436 82.1587C48.2477 82.2609 48.4644 82.3092 48.6781 82.3092C49.1993 82.3092 49.7011 82.0212 49.9501 81.5235C50.3011 80.8216 50.0166 79.9681 49.3147 79.6172L47.9595 78.9396C47.4082 78.6639 47.0659 78.11 47.0659 77.4939V74.3692C49.8158 72.4668 51.6218 69.2925 51.6218 65.7032ZM41.0889 48.8996C42.8176 48.8996 44.2239 50.3061 44.2239 52.0346C44.2239 52.225 44.2069 52.4116 44.1743 52.5944C43.1978 52.2947 42.1621 52.1324 41.0889 52.1324C40.0171 52.1324 38.9827 52.2942 38.0078 52.5931C37.975 52.4103 37.9538 52.2246 37.9538 52.0346C37.9538 50.3059 39.3601 48.8996 41.0889 48.8996ZM41.0889 54.9743C45.3297 54.9743 48.78 58.4246 48.78 62.6655V63.1804C42.8644 64.9916 39.3389 60.4915 39.1883 60.2943C38.9411 59.9649 38.5631 59.7587 38.1524 59.7296C37.7416 59.7008 37.3381 59.851 37.0469 60.1422C35.6906 61.4985 34.3622 62.1527 33.4028 62.4685C33.508 58.3183 36.9141 54.9743 41.0889 54.9743ZM41.0889 81.9172L37.8055 78.6338C37.9013 78.2674 37.9538 77.8855 37.9538 77.4935V75.7591C38.9445 76.0686 39.9976 76.2355 41.0889 76.2355C42.1801 76.2355 43.2333 76.0686 44.2239 75.7591V77.4935C44.2239 77.8855 44.2764 78.2676 44.3722 78.6338L41.0889 81.9172ZM41.0889 73.3938C36.848 73.3938 33.3977 69.9435 33.3977 65.7026V65.4082C34.5308 65.1479 36.2109 64.543 37.9635 63.1334C38.5836 63.7185 39.4698 64.4361 40.5984 65.0516C41.9333 65.7797 43.7768 66.4532 46.0286 66.4532C46.8844 66.4532 47.8 66.3537 48.7679 66.1253C48.5476 70.1704 45.1878 73.3938 41.0889 73.3938Z" fill="#1AAF7A"/>
<path d="M119.695 78.3593L111.743 74.3833C111.192 74.1076 110.85 73.5537 110.85 72.9376V70.9239C112.711 69.2713 113.887 66.863 113.887 64.1841V62.5668C113.92 62.5668 113.952 62.5677 113.985 62.5677C114.77 62.5677 115.406 61.9316 115.406 61.1469V58.1096C115.406 53.1391 111.362 49.0953 106.392 49.0953H103.354C98.3839 49.0953 94.3401 53.1391 94.3401 58.1096V61.1469C94.3401 61.9316 94.9763 62.5677 95.761 62.5677C95.7727 62.5677 95.8068 62.5674 95.8587 62.5653V64.1841C95.8587 66.8632 97.0348 69.2715 98.8962 70.9241V72.9377C98.8962 73.554 98.5539 74.108 98.0026 74.3835C97.3006 74.7343 97.0161 75.5878 97.3671 76.2897C97.6161 76.7876 98.1179 77.0756 98.6391 77.0756C98.8526 77.0756 99.0694 77.0273 99.2734 76.9253C99.5252 76.7993 99.7595 76.6506 99.978 76.4854L103.452 79.9596V99.1137C103.452 99.8984 104.088 100.535 104.873 100.535C105.658 100.535 106.294 99.8984 106.294 99.1137V79.9592L109.768 76.485C109.987 76.6504 110.221 76.7991 110.472 76.9249L118.167 80.7723L115.833 83.1062C114.704 84.2351 114.083 85.736 114.083 87.3325V99.1133C114.083 99.898 114.719 100.534 115.504 100.534C116.288 100.534 116.924 99.898 116.924 99.1133V87.3325C116.924 86.4951 117.25 85.7077 117.843 85.1155L120.053 82.9048C120.12 83.1619 120.157 83.43 120.157 83.705V99.1133C120.157 99.898 120.793 100.534 121.578 100.534C122.363 100.534 122.999 99.898 122.999 99.1133V83.705C122.999 81.4267 121.733 79.3783 119.695 78.3593ZM97.1817 59.4336V58.1094H97.1819C97.1819 54.7059 99.9509 51.9369 103.354 51.9369H106.392C109.795 51.9369 112.564 54.7059 112.564 58.1094V59.6877C106.387 59.3545 102.66 56.9509 102.624 56.9272C102.383 56.7669 102.109 56.6885 101.836 56.6885C101.469 56.6885 101.106 56.8302 100.831 57.1047C99.4714 58.4642 98.1393 59.1186 97.1817 59.4336ZM104.873 77.3613L101.59 74.0779C101.686 73.7115 101.738 73.3295 101.738 72.9376V72.635C102.715 72.9986 103.771 73.1982 104.873 73.1982C105.975 73.1982 107.031 72.9986 108.008 72.635V72.9376C108.008 73.3295 108.06 73.7115 108.156 74.0779L104.873 77.3613ZM104.873 70.3567C101.47 70.3567 98.7005 67.5878 98.7005 64.1841V61.8935C99.6957 61.4958 100.855 60.8636 102.035 59.8584C103.527 60.6348 106.649 61.9767 111.046 62.42V64.1841C111.046 67.5876 108.277 70.3567 104.873 70.3567Z" fill="#1AAF7A"/>
</g>
<defs>
<filter id="filter0_d" x="0" y="0" width="148.311" height="147" filterUnits="userSpaceOnUse" color-interpolation-filters="sRGB">
<feFlood flood-opacity="0" result="BackgroundImageFix"/>
<feColorMatrix in="SourceAlpha" type="matrix" values="0 0 0 0 0 0 0 0 0 0 0 0 0 0 0 0 0 0 127 0"/>
<feOffset dy="4"/>
<feGaussianBlur stdDeviation="2"/>
<feColorMatrix type="matrix" values="0 0 0 0 0 0 0 0 0 0 0 0 0 0 0 0 0 0 0.25 0"/>
<feBlend mode="normal" in2="BackgroundImageFix" result="effect1_dropShadow"/>
<feBlend mode="normal" in="SourceGraphic" in2="effect1_dropShadow" result="shape"/>
</filter>
<clipPath id="clip0">
<rect width="96.999" height="96.999" fill="white" transform="translate(26 21)"/>
</clipPath>
</defs>
</svg>
