<svg width="149" height="147" viewBox="0 0 149 147" fill="none" xmlns="http://www.w3.org/2000/svg">
<g filter="url(#filter0_d)">
<ellipse cx="74.1557" cy="69.5" rx="70.1557" ry="69.5" fill="#B7FAC2"/>
<path d="M142.311 69.5C142.311 106.762 111.815 137 74.1557 137C36.4966 137 6 106.762 6 69.5C6 32.2384 36.4966 2 74.1557 2C111.815 2 142.311 32.2384 142.311 69.5Z" stroke="#35D859" stroke-width="4"/>
</g>
<path d="M41.8125 68.2291V71.3125H44.6875V68.2291C46.3478 67.7029 47.5625 66.1663 47.5625 64.3349C47.5625 62.7723 46.6943 61.365 45.2941 60.6649L42.491 59.2648C42.0727 59.0549 41.8125 58.6337 41.8125 58.1651C41.8125 57.4881 42.3631 56.9375 43.0401 56.9375H43.4599C44.1369 56.9375 44.6875 57.4881 44.6875 58.1651V58.375H47.5625V58.1651C47.5625 56.3338 46.3478 54.7971 44.6875 54.2709V51.1875H41.8125V54.2709C40.1522 54.7971 38.9375 56.3338 38.9375 58.1651C38.9375 59.7277 39.8058 61.135 41.2059 61.8351L44.009 63.2352C44.4273 63.4451 44.6875 63.8663 44.6875 64.3349C44.6875 65.0119 44.1369 65.5625 43.4599 65.5625H43.0401C42.3631 65.5625 41.8125 65.0119 41.8125 64.3349V62.6875H38.9375V64.3349C38.9375 66.1663 40.1522 67.7029 41.8125 68.2291Z" fill="#056821"/>
<path d="M43.25 77.0625C51.9684 77.0625 59.0625 69.9684 59.0625 61.25C59.0625 60.8561 59.0323 60.4694 59.0036 60.0813L63.8796 59.2677C64.7766 61.2788 66.7862 62.6875 69.125 62.6875C72.2961 62.6875 74.875 60.1086 74.875 56.9375C74.875 56.4142 74.7816 55.9169 74.6508 55.4353L85.1373 49.4424C86.1824 50.5162 87.6371 51.1875 89.25 51.1875C92.4211 51.1875 95 48.6086 95 45.4375C95 44.3738 94.6909 43.3905 94.1849 42.5352L109.375 27.3451V35.375H112.25V22.4375H99.3125V25.3125H107.342L92.1523 40.5026C91.297 39.9966 90.3138 39.6875 89.25 39.6875C86.0789 39.6875 83.5 42.2664 83.5 45.4375C83.5 45.9608 83.5934 46.4581 83.7242 46.9397L73.2377 52.9326C72.1926 51.8588 70.7379 51.1875 69.125 51.1875C66.1278 51.1875 63.6884 53.5004 63.4268 56.4301L58.5292 57.2466C56.7496 50.463 50.5841 45.4375 43.25 45.4375C34.5316 45.4375 27.4375 52.5316 27.4375 61.25C27.4375 69.9684 34.5316 77.0625 43.25 77.0625ZM89.25 42.5625C90.8356 42.5625 92.125 43.8519 92.125 45.4375C92.125 47.0231 90.8356 48.3125 89.25 48.3125C87.6644 48.3125 86.375 47.0231 86.375 45.4375C86.375 43.8519 87.6644 42.5625 89.25 42.5625ZM69.125 54.0625C70.7106 54.0625 72 55.3519 72 56.9375C72 58.5231 70.7106 59.8125 69.125 59.8125C67.5394 59.8125 66.25 58.5231 66.25 56.9375C66.25 55.3519 67.5394 54.0625 69.125 54.0625ZM43.25 48.3125C50.3829 48.3125 56.1875 54.1171 56.1875 61.25C56.1875 68.3829 50.3829 74.1875 43.25 74.1875C36.1171 74.1875 30.3125 68.3829 30.3125 61.25C30.3125 54.1171 36.1171 48.3125 43.25 48.3125Z" fill="#056821"/>
<path d="M30.3125 111.562H44.6875V79.9375H30.3125V111.562ZM33.1875 82.8125H41.8125V108.688H33.1875V82.8125Z" fill="#056821"/>
<path d="M47.5625 111.562H61.9375V82.8125H47.5625V111.562ZM50.4375 85.6875H59.0625V108.688H50.4375V85.6875Z" fill="#056821"/>
<path d="M64.8125 111.562H79.1875V65.5625H64.8125V111.562ZM67.6875 68.4375H76.3125V108.688H67.6875V68.4375Z" fill="#056821"/>
<path d="M103.625 88.7709V85.6875H100.75V88.7709C99.0897 89.2971 97.875 90.8338 97.875 92.6651C97.875 94.2277 98.7432 95.6336 100.143 96.3351L102.946 97.7366C103.365 97.9451 103.625 98.3663 103.625 98.8349C103.625 99.5105 103.074 100.062 102.397 100.062H101.978C101.301 100.062 100.75 99.5105 100.75 98.8349V97.1875H97.875V98.8349C97.875 100.668 99.0897 102.204 100.75 102.729V105.812H103.625V102.729C105.285 102.203 106.5 100.666 106.5 98.8349C106.5 97.2723 105.632 95.8664 104.232 95.1649L101.429 93.7634C101.01 93.5549 100.75 93.1337 100.75 92.6651C100.75 91.9895 101.301 91.4375 101.978 91.4375H102.397C103.074 91.4375 103.625 91.9895 103.625 92.6651V92.875H106.5V92.6651C106.5 90.8338 105.285 89.2971 103.625 88.7709Z" fill="#056821"/>
<path d="M114.377 88.9664L109.496 81.1551L112.05 72.2152C112.182 71.7481 112.25 71.2665 112.25 70.7835C112.25 67.9042 109.908 65.5625 107.03 65.5625H103.096C101.065 65.5625 99.3211 66.7398 98.4586 68.4375H96.4375V54.0625H82.0625V111.562H102.188C110.114 111.562 116.562 105.114 116.562 97.1875V96.5852C116.562 93.887 115.806 91.2535 114.377 88.9664ZM100.75 70.7835C100.75 69.4897 101.802 68.4375 103.095 68.4375H107.029C108.323 68.4375 109.375 69.4897 109.375 70.7835C109.375 71.0006 109.345 71.2176 109.284 71.4275L106.854 79.9375H97.0326L92.8941 75.7989C92.4053 75.3087 92.125 74.6331 92.125 73.9402C92.125 72.4912 93.3037 71.3125 94.7542 71.3125H97.875V74.1875H100.75V70.7835ZM84.9375 108.688V56.9375H93.5625V68.5755C91.1001 69.1218 89.25 71.3168 89.25 73.9402C89.25 75.4108 89.8221 76.7922 90.8629 77.8316L94.6133 81.582L89.9989 88.9664C88.5686 91.2535 87.8125 93.887 87.8125 96.5852V97.1875C87.8125 101.892 90.0953 106.064 93.5999 108.688H84.9375ZM113.688 97.1875C113.688 103.528 108.528 108.688 102.188 108.688C95.8467 108.688 90.6875 103.528 90.6875 97.1875V96.5852C90.6875 94.4275 91.2912 92.3201 92.4355 90.4916L97.2339 82.8125H107.141L111.94 90.4916C113.084 92.3201 113.688 94.4275 113.688 96.5852V97.1875Z" fill="#056821"/>
<defs>
<filter id="filter0_d" x="0" y="0" width="148.311" height="147" filterUnits="userSpaceOnUse" color-interpolation-filters="sRGB">
<feFlood flood-opacity="0" result="BackgroundImageFix"/>
<feColorMatrix in="SourceAlpha" type="matrix" values="0 0 0 0 0 0 0 0 0 0 0 0 0 0 0 0 0 0 127 0"/>
<feOffset dy="4"/>
<feGaussianBlur stdDeviation="2"/>
<feColorMatrix type="matrix" values="0 0 0 0 0 0 0 0 0 0 0 0 0 0 0 0 0 0 0.25 0"/>
<feBlend mode="normal" in2="BackgroundImageFix" result="effect1_dropShadow"/>
<feBlend mode="normal" in="SourceGraphic" in2="effect1_dropShadow" result="shape"/>
</filter>
</defs>
</svg>
