<svg width="149" height="147" viewBox="0 0 149 147" fill="none" xmlns="http://www.w3.org/2000/svg">
<g filter="url(#filter0_d)">
<ellipse cx="74.1557" cy="69.5" rx="70.1557" ry="69.5" fill="#FCECB6"/>
<path d="M142.311 69.5C142.311 106.762 111.815 137 74.1557 137C36.4966 137 6 106.762 6 69.5C6 32.2384 36.4966 2 74.1557 2C111.815 2 142.311 32.2384 142.311 69.5Z" stroke="#FF9A03" stroke-width="4"/>
</g>
<path d="M116.813 59.4891C117.013 58.9924 117.129 58.4541 117.129 57.8871V26.3065C117.129 23.9322 115.197 22 112.823 22H78.371C75.9967 22 74.0645 23.9322 74.0645 26.3065V57.8871C74.0645 58.4541 74.1808 58.9924 74.3803 59.4891C72.5501 59.9843 71.1935 61.6438 71.1935 63.629V70.8064H68.3226V76.5484H65.4516V81.2065L55.7621 83.9756C55.2123 82.9923 54.6195 82.0348 53.9677 81.1175V70.7505C55.4334 70.6141 56.8 70.0069 57.855 68.9518C59.0508 67.7546 59.7097 66.1627 59.7097 64.4702V61.793L64.0161 60.3576V59.3226C64.0161 56.354 62.2878 52.3605 60.8394 49.534C60.6973 49.257 60.5308 49 60.3513 48.7545C63.3271 47.622 65.4516 44.7481 65.4516 41.379C65.4516 37.0252 61.9103 33.4839 57.5564 33.4839H50.1795C39.6043 33.4839 31 42.0882 31 52.6634C31 59.9757 35.0624 66.5488 41.601 69.8188L42.4839 70.2595V72.6826L41.6255 73.0042C35.3667 75.3526 31.1392 81.3659 31.0115 88.0323H31V111H59.7097V102.776L65.4516 100.719V111H84.1129C86.4872 111 88.4194 109.068 88.4194 106.694V85.1613H91.5544C91.3937 85.612 91.2903 86.0915 91.2903 86.5968V103.823C91.2903 106.197 93.2225 108.129 95.5968 108.129H112.823C115.197 108.129 117.129 106.197 117.129 103.823V86.5968C117.129 86.0298 117.013 85.4914 116.813 84.9948C118.643 84.4981 120 82.8401 120 80.8548V63.629C120 61.6438 118.643 59.9843 116.813 59.4891ZM91.2903 24.871H99.9032V30.6129H91.2903V24.871ZM76.9355 26.3065C76.9355 25.5155 77.58 24.871 78.371 24.871H88.4194V33.4839H102.774V24.871H112.823C113.614 24.871 114.258 25.5155 114.258 26.3065V57.8871C114.258 58.678 113.614 59.3226 112.823 59.3226H98.4677H92.7258H78.371C77.58 59.3226 76.9355 58.678 76.9355 57.8871V26.3065ZM105.645 62.1935H108.516V65.0645H105.645V62.1935ZM82.6774 62.1935H85.5484V65.0645H82.6774V62.1935ZM71.1935 73.6774H84.1129C84.9039 73.6774 85.5484 74.3205 85.5484 75.1129C85.5484 75.9053 84.9039 76.5484 84.1129 76.5484H71.1935V73.6774ZM47.5425 96.4873L68.0096 90.6391L69.0432 87.5413C69.303 86.7604 69.9231 86.1403 70.704 85.8805C71.6515 85.5661 72.6807 85.8073 73.3898 86.515L74.9057 88.0323H77.1609C78.6193 88.0323 79.8064 89.2194 79.8064 90.6793C79.8064 91.8607 79.0112 92.9086 77.7767 93.2574L54.4903 101.598C53.0261 102.12 51.4944 102.387 49.9369 102.387H48.0105C46.1817 102.387 44.3902 102.002 42.7308 101.298L47.5425 96.4873ZM65.4516 84.1938V88.3854L58.4393 90.3879C58.0603 89.0902 57.611 87.8198 57.0684 86.5896L65.4516 84.1938ZM61.0648 58.3149L56.8387 59.7245V64.4717C56.8387 65.3975 56.4784 66.2674 55.8224 66.9235C55.1692 67.578 54.2993 67.9384 53.3735 67.9384L48.2258 67.9355V70.8064L51.0968 70.8079V77.6508C49.3857 75.8536 47.4636 74.2602 45.3548 72.9152V61.5993L42.9045 59.1489C42.6332 58.8776 42.4839 58.5158 42.4839 58.1326V57.8871C42.4839 57.0961 43.1284 56.4516 43.9194 56.4516H45.3548V52.1452C45.3548 50.5618 46.6425 49.2742 48.2258 49.2742H55.4032H55.7233C56.8071 49.2742 57.7876 49.8757 58.2842 50.8432C59.8274 53.8534 60.7892 56.4516 61.0648 58.3149ZM33.871 52.6634C33.871 43.6715 41.1876 36.3548 50.1795 36.3548H57.5564C60.3269 36.3548 62.5806 38.6085 62.5806 41.379C62.5806 44.1495 60.3269 46.4032 57.5564 46.4032H55.7233H55.4032H48.2258C45.0591 46.4032 42.4839 48.9785 42.4839 52.1452V53.8261C40.813 54.419 39.6129 56.0152 39.6129 57.8871V58.1326C39.6129 59.2824 40.0608 60.3647 40.8747 61.1787L42.4839 62.7878V67.0125C37.1683 64.1645 33.871 58.7225 33.871 52.6634ZM42.6346 75.6928L43.7342 75.2794C49.4991 78.9313 53.7711 84.6345 55.6831 91.176L47.7176 93.4512L47.1521 91.7559C45.8242 87.7739 42.5987 84.7866 38.5248 83.7689L37.8286 86.5537C40.945 87.3332 43.4126 89.6185 44.429 92.666L45.1481 94.8235L40.1268 99.8448C39.8167 99.6224 39.5139 99.3869 39.2225 99.1372L38.588 98.5931C35.5907 96.0222 33.871 92.2856 33.871 88.338C33.871 82.7396 37.3922 77.658 42.6346 75.6928ZM56.8387 108.129H33.871V97.561C34.6734 98.7352 35.6151 99.8248 36.719 100.771L37.3535 101.315C40.3192 103.857 44.1031 105.258 48.0105 105.258H49.9369C51.8246 105.258 53.6821 104.935 55.4592 104.299L56.8387 103.805V108.129ZM84.1129 108.129H68.3226V99.6898L78.648 95.9906C81.0209 95.326 82.6774 93.1426 82.6774 90.6793C82.6774 87.6375 80.2026 85.1613 77.1609 85.1613H76.0943L75.4182 84.4852C73.9368 83.0023 71.7821 82.4927 69.7954 83.1559C69.2571 83.3354 68.7733 83.6225 68.3226 83.9512V79.4194H84.1129C84.6182 79.4194 85.0976 79.316 85.5484 79.1552V106.694C85.5484 107.486 84.9039 108.129 84.1129 108.129ZM88.4194 75.1129C88.4194 72.7386 86.4872 70.8064 84.1129 70.8064H74.0645V63.629C74.0645 62.8381 74.709 62.1935 75.5 62.1935H78.371H79.8064V67.9355H88.4194V62.1935H92.7258C93.5168 62.1935 94.1613 62.8381 94.1613 63.629V80.8548C94.1613 81.6472 93.5168 82.2903 92.7258 82.2903H88.4194V75.1129ZM114.258 103.823C114.258 104.615 113.614 105.258 112.823 105.258H95.5968C94.8058 105.258 94.1613 104.615 94.1613 103.823V86.5968C94.1613 85.8044 94.8058 85.1613 95.5968 85.1613H98.4677H99.9032V90.9032H108.516V85.1613H112.823C113.614 85.1613 114.258 85.8044 114.258 86.5968V103.823ZM102.774 85.1613H105.645V88.0323H102.774V85.1613ZM117.129 80.8548C117.129 81.6472 116.484 82.2903 115.694 82.2903H112.823H98.4677C97.6768 82.2903 97.0323 81.6472 97.0323 80.8548V63.629C97.0323 62.8381 97.6768 62.1935 98.4677 62.1935H102.774V67.9355H111.387V62.1935H112.823H115.694C116.484 62.1935 117.129 62.8381 117.129 63.629V80.8548Z" fill="#BC991B"/>
<path d="M102.774 53.5806H105.645V56.4516H102.774V53.5806Z" fill="#BC991B"/>
<path d="M108.516 53.5806H111.387V56.4516H108.516V53.5806Z" fill="#BC991B"/>
<path d="M97.0322 53.5806H99.9032V56.4516H97.0322V53.5806Z" fill="#BC991B"/>
<path d="M97.0322 47.8387H111.387V50.7097H97.0322V47.8387Z" fill="#BC991B"/>
<defs>
<filter id="filter0_d" x="0" y="0" width="148.311" height="147" filterUnits="userSpaceOnUse" color-interpolation-filters="sRGB">
<feFlood flood-opacity="0" result="BackgroundImageFix"/>
<feColorMatrix in="SourceAlpha" type="matrix" values="0 0 0 0 0 0 0 0 0 0 0 0 0 0 0 0 0 0 127 0"/>
<feOffset dy="4"/>
<feGaussianBlur stdDeviation="2"/>
<feColorMatrix type="matrix" values="0 0 0 0 0 0 0 0 0 0 0 0 0 0 0 0 0 0 0.25 0"/>
<feBlend mode="normal" in2="BackgroundImageFix" result="effect1_dropShadow"/>
<feBlend mode="normal" in="SourceGraphic" in2="effect1_dropShadow" result="shape"/>
</filter>
</defs>
</svg>
