<svg width="181" height="114" viewBox="0 0 181 114" fill="none" xmlns="http://www.w3.org/2000/svg">
<path d="M0.820312 43V0.34375H15.7617C20.9375 0.34375 24.8633 1.33984 27.5391 3.33203C30.2148 5.30469 31.5527 8.20508 31.5527 12.0332C31.5527 14.123 31.0156 15.9688 29.9414 17.5703C28.8672 19.1523 27.373 20.3145 25.459 21.0566C27.6465 21.6035 29.3652 22.707 30.6152 24.3672C31.8848 26.0273 32.5195 28.0586 32.5195 30.4609C32.5195 34.5625 31.2109 37.668 28.5938 39.7773C25.9766 41.8867 22.2461 42.9609 17.4023 43H0.820312ZM9.60938 24.4258V35.9395H17.1387C19.209 35.9395 20.8203 35.4512 21.9727 34.4746C23.1445 33.4785 23.7305 32.1113 23.7305 30.373C23.7305 26.4668 21.709 24.4844 17.666 24.4258H9.60938ZM9.60938 18.2148H16.1133C20.5469 18.1367 22.7637 16.3691 22.7637 12.9121C22.7637 10.9785 22.1973 9.5918 21.0645 8.75195C19.9512 7.89258 18.1836 7.46289 15.7617 7.46289H9.60938V18.2148ZM47.9297 35.9395H66.5918V43H39.1406V0.34375H47.9297V35.9395ZM97.3242 24.5137H80.4492V35.9395H100.254V43H71.6602V0.34375H100.195V7.46289H80.4492V17.6289H97.3242V24.5137ZM140.098 43H131.309L114.199 14.9336V43H105.41V0.34375H114.199L131.338 28.4688V0.34375H140.098V43ZM147.773 43V0.34375H160.898C164.648 0.34375 167.998 1.19336 170.947 2.89258C173.916 4.57227 176.23 6.97461 177.891 10.0996C179.551 13.2051 180.381 16.7402 180.381 20.7051V22.668C180.381 26.6328 179.561 30.1582 177.92 33.2441C176.299 36.3301 174.004 38.7227 171.035 40.4219C168.066 42.1211 164.717 42.9805 160.986 43H147.773ZM156.562 7.46289V35.9395H160.811C164.248 35.9395 166.875 34.8164 168.691 32.5703C170.508 30.3242 171.436 27.1113 171.475 22.9316V20.6758C171.475 16.3398 170.576 13.0586 168.779 10.832C166.982 8.58594 164.355 7.46289 160.898 7.46289H156.562ZM47.6367 98.791C47.3047 103.381 45.6055 106.994 42.5391 109.631C39.4922 112.268 35.4688 113.586 30.4688 113.586C25 113.586 20.6934 111.75 17.5488 108.078C14.4238 104.387 12.8613 99.3281 12.8613 92.9023V90.2949C12.8613 86.1934 13.584 82.5801 15.0293 79.4551C16.4746 76.3301 18.5352 73.9375 21.2109 72.2773C23.9062 70.5977 27.0312 69.7578 30.5859 69.7578C35.5078 69.7578 39.4727 71.0762 42.4805 73.7129C45.4883 76.3496 47.2266 80.0508 47.6953 84.8164H38.9062C38.6914 82.0625 37.9199 80.0703 36.5918 78.8398C35.2832 77.5898 33.2812 76.9648 30.5859 76.9648C27.6562 76.9648 25.459 78.0195 23.9941 80.1289C22.5488 82.2188 21.8066 85.4707 21.7676 89.8848V93.1074C21.7676 97.7168 22.4609 101.086 23.8477 103.215C25.2539 105.344 27.4609 106.408 30.4688 106.408C33.1836 106.408 35.2051 105.793 36.5332 104.562C37.8809 103.312 38.6523 101.389 38.8477 98.791H47.6367ZM88.4473 92.6387C88.4473 96.8379 87.7051 100.52 86.2207 103.684C84.7363 106.848 82.6074 109.289 79.834 111.008C77.0801 112.727 73.916 113.586 70.3418 113.586C66.8066 113.586 63.6523 112.736 60.8789 111.037C58.1055 109.338 55.957 106.916 54.4336 103.771C52.9102 100.607 52.1387 96.9746 52.1191 92.873V90.7637C52.1191 86.5645 52.8711 82.873 54.375 79.6895C55.8984 76.4863 58.0371 74.0352 60.791 72.3359C63.5645 70.6172 66.7285 69.7578 70.2832 69.7578C73.8379 69.7578 76.9922 70.6172 79.7461 72.3359C82.5195 74.0352 84.6582 76.4863 86.1621 79.6895C87.6855 82.873 88.4473 86.5547 88.4473 90.7344V92.6387ZM79.541 90.7051C79.541 86.2324 78.7402 82.834 77.1387 80.5098C75.5371 78.1855 73.252 77.0234 70.2832 77.0234C67.334 77.0234 65.0586 78.1758 63.457 80.4805C61.8555 82.7656 61.0449 86.125 61.0254 90.5586V92.6387C61.0254 96.9941 61.8262 100.373 63.4277 102.775C65.0293 105.178 67.334 106.379 70.3418 106.379C73.291 106.379 75.5566 105.227 77.1387 102.922C78.7207 100.598 79.5215 97.2188 79.541 92.7852V90.7051ZM129.521 113H120.732L103.623 84.9336V113H94.834V70.3438H103.623L120.762 98.4688V70.3438H129.521V113ZM168.428 77.4629H155.361V113H146.572V77.4629H133.682V70.3438H168.428V77.4629Z" fill="#131212"/>
</svg>
