<svg width="224" height="239" viewBox="0 0 224 239" fill="none" xmlns="http://www.w3.org/2000/svg">
<ellipse cx="112" cy="119.5" rx="112" ry="119.5" fill="url(#paint0_diamond)"/>
<path d="M142.443 118.022L126.994 111.2C124.941 110.293 123.618 108.271 123.618 106.04V95.5933L100.885 95.5936V106.04C100.885 108.272 99.5627 110.293 97.51 111.2L82.0599 118.022C77.9549 119.834 75.3096 123.879 75.3096 128.341V157.704C75.3096 160.823 77.8542 163.351 80.9929 163.351H143.51C146.649 163.351 149.194 160.823 149.194 157.704V128.342C149.194 123.879 146.548 119.834 142.443 118.022Z" fill="#B48764"/>
<path d="M80.993 163.351L143.511 163.351C146.65 163.351 149.194 160.823 149.194 157.705V128.342C149.194 123.879 146.548 119.834 142.443 118.022L127.099 111.246L116.271 121.574C114.051 123.691 110.453 123.691 108.233 121.574L97.4047 111.246L82.0597 118.022C77.9547 119.834 75.3093 123.878 75.3093 128.341V157.705C75.3093 160.823 77.854 163.351 80.993 163.351Z" fill="#5D5360"/>
<path d="M100.885 95.5933V106.04C100.885 107.074 100.575 108.05 100.066 108.904C103.691 110.785 107.843 111.855 112.252 111.855C116.661 111.855 120.812 110.786 124.437 108.904C123.928 108.05 123.618 107.074 123.618 106.04V95.5933H100.885Z" fill="#966D50"/>
<path d="M112.252 106.435C101.266 106.435 92.3599 97.9403 92.3599 87.4625V71.2007H132.144V87.4625C132.144 97.9403 123.238 106.435 112.252 106.435Z" fill="#C39772"/>
<path d="M103.727 87.4622V71.2003H92.3596V87.4622C92.3596 97.9403 101.266 106.434 112.252 106.434C114.228 106.434 116.133 106.15 117.935 105.638C109.72 103.305 103.727 96.0554 103.727 87.4622Z" fill="#B48764"/>
<path d="M115.094 57.6488H109.41C98.4241 57.6488 89.5183 66.143 89.5183 76.6209V80.9566C89.5183 82.965 91.7528 84.3288 93.6152 83.392C96.4981 81.9418 99.8797 79.2361 102.152 76.3173C103.07 75.1384 104.834 74.9638 106.068 75.842C115.085 82.2596 127.645 80.7845 132.723 79.8281C134.046 79.5789 134.986 78.46 134.986 77.1739V76.6212C134.986 66.1431 126.079 57.6488 115.094 57.6488Z" fill="#5C414B"/>
<path d="M93.6151 83.392C96.498 81.9418 99.8792 79.2361 102.152 76.3173C102.499 75.8706 102.984 75.6157 103.5 75.4601C99.4829 70.1263 99.2089 64.1804 99.7079 60.0664C93.631 63.3132 89.5178 69.5052 89.5178 76.6212V80.957C89.5178 82.9653 91.7523 84.3291 93.6151 83.392Z" fill="#503441"/>
<path d="M89.518 139.616C89.518 137.459 88.6199 135.391 87.021 133.866L76.3325 123.672C75.6736 125.112 75.3093 126.697 75.3093 128.341V157.704C75.3093 160.823 77.854 163.351 80.9926 163.351H89.518V139.616Z" fill="#6F6571"/>
<path d="M134.985 139.616C134.985 137.459 135.883 135.391 137.482 133.866L148.171 123.672C148.83 125.112 149.194 126.697 149.194 128.341V157.704C149.194 160.823 146.649 163.351 143.51 163.351H134.985V139.616Z" fill="#6F6571"/>
<path d="M109.41 122.412V163.351L115.093 163.351V122.412C113.337 123.384 111.167 123.384 109.41 122.412Z" fill="#6F6571"/>
<defs>
<radialGradient id="paint0_diamond" cx="0" cy="0" r="1" gradientUnits="userSpaceOnUse" gradientTransform="translate(112 119.5) rotate(90) scale(119.5 112)">
<stop offset="0.484375" stop-color="#FA9F6C"/>
<stop offset="1" stop-color="#E4C9A0" stop-opacity="0"/>
</radialGradient>
</defs>
</svg>
