<svg width="280" height="57" viewBox="0 0 280 57" fill="none" xmlns="http://www.w3.org/2000/svg">
<g filter="url(#filter0_d)">
<rect x="35" width="210" height="49" rx="20" fill="#DB1B0F" fill-opacity="0.7"/>
</g>
<path d="M58.4827 31.16C56.4827 31.16 54.8293 30.5333 53.5227 29.28C52.2293 28.0133 51.5827 26.3533 51.5827 24.3C51.5827 22.2333 52.2227 20.56 53.5027 19.28C54.796 17.9867 56.456 17.34 58.4827 17.34C59.9627 17.34 61.116 17.5867 61.9427 18.08V20.54C60.9293 19.9533 59.8093 19.66 58.5827 19.66C57.356 19.66 56.3293 20.08 55.5027 20.92C54.6893 21.7467 54.2827 22.86 54.2827 24.26C54.2827 25.66 54.6893 26.7733 55.5027 27.6C56.3293 28.4267 57.3893 28.84 58.6827 28.84C59.976 28.84 61.0693 28.5067 61.9627 27.84V30.36C61.136 30.8933 59.976 31.16 58.4827 31.16ZM66.8502 31.08C65.8902 31.08 65.1235 30.8 64.5502 30.24C63.9902 29.68 63.7102 28.9467 63.7102 28.04C63.7102 27.1333 64.0702 26.4067 64.7902 25.86C65.5102 25.3133 66.5502 25.04 67.9102 25.04H69.3902V24.42C69.3902 23.86 69.2435 23.4333 68.9502 23.14C68.6568 22.8467 68.1568 22.7 67.4502 22.7C66.3702 22.7 65.3768 23 64.4702 23.6V21.38C65.2302 20.9133 66.3235 20.68 67.7502 20.68C70.4968 20.68 71.8702 21.96 71.8702 24.52V31H69.4902V29.78C69.0235 30.6467 68.1435 31.08 66.8502 31.08ZM67.6902 29.3C68.2235 29.3 68.6368 29.1467 68.9302 28.84C69.2368 28.52 69.3902 28.1067 69.3902 27.6V26.64H68.1502C67.5235 26.64 67.0435 26.7733 66.7102 27.04C66.3768 27.2933 66.2102 27.62 66.2102 28.02C66.2102 28.8733 66.7035 29.3 67.6902 29.3ZM88.7269 31H86.3069V24.78C86.3069 23.42 85.7869 22.74 84.7469 22.74C84.2269 22.74 83.7602 22.9667 83.3469 23.42C82.9469 23.8733 82.7469 24.5867 82.7469 25.56V31H80.3269V24.78C80.3269 23.42 79.8069 22.74 78.7669 22.74C78.2469 22.74 77.7802 22.9667 77.3669 23.42C76.9535 23.8733 76.7469 24.5867 76.7469 25.56V31H74.3469V20.86H76.7469V22.46C77.3202 21.3133 78.3069 20.74 79.7069 20.74C81.1202 20.74 82.0469 21.38 82.4869 22.66C82.7535 22.0467 83.1535 21.5733 83.6869 21.24C84.2202 20.9067 84.8269 20.74 85.5069 20.74C86.5335 20.74 87.3269 21.0533 87.8869 21.68C88.4469 22.2933 88.7269 23.1733 88.7269 24.32V31ZM96.1623 22.76C95.4957 22.76 94.909 23.02 94.4023 23.54C93.8957 24.0467 93.6423 24.82 93.6423 25.86C93.6423 26.9 93.8823 27.7 94.3623 28.26C94.8423 28.8067 95.4357 29.08 96.1423 29.08C96.849 29.08 97.4357 28.7933 97.9023 28.22C98.369 27.6467 98.6023 26.88 98.6023 25.92C98.6023 24.9467 98.3623 24.18 97.8823 23.62C97.4157 23.0467 96.8423 22.76 96.1623 22.76ZM93.6423 31H91.2223V16.86H93.6423V22.4C94.349 21.28 95.349 20.72 96.6423 20.72C97.9357 20.72 98.989 21.1933 99.8023 22.14C100.629 23.0733 101.042 24.3 101.042 25.82C101.042 27.34 100.649 28.6067 99.8623 29.62C99.089 30.6333 98.0357 31.14 96.7023 31.14C95.369 31.14 94.349 30.5733 93.6423 29.44V31ZM104.397 16.38C104.797 16.38 105.137 16.52 105.417 16.8C105.697 17.08 105.837 17.4267 105.837 17.84C105.837 18.24 105.697 18.58 105.417 18.86C105.137 19.14 104.797 19.28 104.397 19.28C103.997 19.28 103.657 19.14 103.377 18.86C103.097 18.58 102.957 18.24 102.957 17.84C102.957 17.4267 103.097 17.08 103.377 16.8C103.657 16.52 103.997 16.38 104.397 16.38ZM105.597 31H103.197V20.86H105.597V31ZM110.932 31.08C109.972 31.08 109.206 30.8 108.632 30.24C108.072 29.68 107.792 28.9467 107.792 28.04C107.792 27.1333 108.152 26.4067 108.872 25.86C109.592 25.3133 110.632 25.04 111.992 25.04H113.472V24.42C113.472 23.86 113.326 23.4333 113.032 23.14C112.739 22.8467 112.239 22.7 111.532 22.7C110.452 22.7 109.459 23 108.552 23.6V21.38C109.312 20.9133 110.406 20.68 111.832 20.68C114.579 20.68 115.952 21.96 115.952 24.52V31H113.572V29.78C113.106 30.6467 112.226 31.08 110.932 31.08ZM111.772 29.3C112.306 29.3 112.719 29.1467 113.012 28.84C113.319 28.52 113.472 28.1067 113.472 27.6V26.64H112.232C111.606 26.64 111.126 26.7733 110.792 27.04C110.459 27.2933 110.292 27.62 110.292 28.02C110.292 28.8733 110.786 29.3 111.772 29.3ZM120.829 31H118.409L118.429 20.86H120.829V22.66C121.296 21.4067 122.149 20.78 123.389 20.78C123.669 20.78 123.896 20.8 124.069 20.84V23.16C123.762 23.0267 123.422 22.96 123.049 22.96C122.396 22.96 121.862 23.2267 121.449 23.76C121.036 24.2933 120.829 24.96 120.829 25.76V31ZM136.901 31.16C134.901 31.16 133.247 30.5333 131.941 29.28C130.647 28.0133 130.001 26.3533 130.001 24.3C130.001 22.2333 130.641 20.56 131.921 19.28C133.214 17.9867 134.874 17.34 136.901 17.34C138.381 17.34 139.534 17.5867 140.361 18.08V20.54C139.347 19.9533 138.227 19.66 137.001 19.66C135.774 19.66 134.747 20.08 133.921 20.92C133.107 21.7467 132.701 22.86 132.701 24.26C132.701 25.66 133.107 26.7733 133.921 27.6C134.747 28.4267 135.807 28.84 137.101 28.84C138.394 28.84 139.487 28.5067 140.381 27.84V30.36C139.554 30.8933 138.394 31.16 136.901 31.16ZM147.008 22.66C146.221 22.66 145.621 22.9733 145.208 23.6C144.808 24.2267 144.608 25.0133 144.608 25.96C144.608 26.8933 144.815 27.6733 145.228 28.3C145.641 28.9267 146.235 29.24 147.008 29.24C147.781 29.24 148.368 28.9333 148.768 28.32C149.168 27.7067 149.368 26.92 149.368 25.96C149.368 25 149.175 24.2133 148.788 23.6C148.401 22.9733 147.808 22.66 147.008 22.66ZM147.028 20.7C148.548 20.7 149.735 21.1933 150.588 22.18C151.441 23.1533 151.868 24.4 151.868 25.92C151.868 27.44 151.435 28.6933 150.568 29.68C149.715 30.6667 148.515 31.16 146.968 31.16C145.435 31.16 144.235 30.68 143.368 29.72C142.515 28.76 142.088 27.52 142.088 26C142.088 24.48 142.535 23.22 143.428 22.22C144.321 21.2067 145.521 20.7 147.028 20.7ZM162.737 31H160.337V24.76C160.337 24.0933 160.177 23.5933 159.857 23.26C159.537 22.9133 159.083 22.74 158.497 22.74C157.91 22.74 157.403 22.9867 156.977 23.48C156.55 23.96 156.337 24.6533 156.337 25.56V31H153.937V20.86H156.337V22.6C156.91 21.36 157.95 20.74 159.457 20.74C160.47 20.74 161.27 21.0467 161.857 21.66C162.443 22.2733 162.737 23.14 162.737 24.26V31ZM169.045 31.1C166.859 31.1 165.765 29.9933 165.765 27.78V22.66H164.245V20.86H165.765V18.42H168.165V20.86H170.685V22.66H168.165V27.82C168.165 28.2467 168.279 28.5733 168.505 28.8C168.732 29.0133 169.072 29.12 169.525 29.12C169.979 29.12 170.419 28.98 170.845 28.7V30.76C170.379 30.9867 169.779 31.1 169.045 31.1ZM175.223 31H172.803L172.823 20.86H175.223V22.66C175.69 21.4067 176.543 20.78 177.783 20.78C178.063 20.78 178.29 20.8 178.463 20.84V23.16C178.157 23.0267 177.817 22.96 177.443 22.96C176.79 22.96 176.257 23.2267 175.843 23.76C175.43 24.2933 175.223 24.96 175.223 25.76V31ZM182.514 31.08C181.554 31.08 180.788 30.8 180.214 30.24C179.654 29.68 179.374 28.9467 179.374 28.04C179.374 27.1333 179.734 26.4067 180.454 25.86C181.174 25.3133 182.214 25.04 183.574 25.04H185.054V24.42C185.054 23.86 184.908 23.4333 184.614 23.14C184.321 22.8467 183.821 22.7 183.114 22.7C182.034 22.7 181.041 23 180.134 23.6V21.38C180.894 20.9133 181.988 20.68 183.414 20.68C186.161 20.68 187.534 21.96 187.534 24.52V31H185.154V29.78C184.688 30.6467 183.808 31.08 182.514 31.08ZM183.354 29.3C183.888 29.3 184.301 29.1467 184.594 28.84C184.901 28.52 185.054 28.1067 185.054 27.6V26.64H183.814C183.188 26.64 182.708 26.7733 182.374 27.04C182.041 27.2933 181.874 27.62 181.874 28.02C181.874 28.8733 182.368 29.3 183.354 29.3ZM196.631 28.08C196.631 29.0267 196.291 29.7667 195.611 30.3C194.931 30.8333 193.991 31.1 192.791 31.1C191.604 31.1 190.624 30.8933 189.851 30.48V28.28C190.744 28.88 191.711 29.18 192.751 29.18C193.191 29.18 193.531 29.1 193.771 28.94C194.024 28.7667 194.151 28.5667 194.151 28.34C194.151 28.1 194.111 27.9133 194.031 27.78C193.951 27.6333 193.798 27.4933 193.571 27.36C193.278 27.1867 192.978 27.04 192.671 26.92C192.378 26.7867 192.218 26.7133 192.191 26.7C192.178 26.6867 192.151 26.6733 192.111 26.66C192.071 26.6467 192.038 26.6333 192.011 26.62C190.531 25.9533 189.791 24.9933 189.791 23.74C189.791 22.8067 190.144 22.0733 190.851 21.54C191.558 21.0067 192.431 20.74 193.471 20.74C194.524 20.74 195.391 20.8867 196.071 21.18V23.3C195.404 22.9 194.571 22.7 193.571 22.7C193.158 22.7 192.831 22.7933 192.591 22.98C192.364 23.1533 192.251 23.38 192.251 23.66C192.251 23.8867 192.311 24.06 192.431 24.18C192.551 24.3 192.651 24.3933 192.731 24.46C192.811 24.5267 192.924 24.6 193.071 24.68C193.431 24.8533 193.704 24.98 193.891 25.06C194.811 25.4467 195.498 25.88 195.951 26.36C196.404 26.8267 196.631 27.4 196.631 28.08ZM204.646 24.8C204.619 24.1467 204.439 23.6267 204.106 23.24C203.786 22.84 203.326 22.64 202.726 22.64C202.126 22.64 201.613 22.8533 201.186 23.28C200.773 23.6933 200.506 24.3 200.386 25.1H204.646V24.8ZM203.226 31.1C201.613 31.1 200.339 30.62 199.406 29.66C198.473 28.7 198.006 27.44 198.006 25.88C198.006 24.3067 198.446 23.06 199.326 22.14C200.206 21.22 201.306 20.76 202.626 20.76C203.946 20.76 204.993 21.16 205.766 21.96C206.539 22.76 206.926 23.9267 206.926 25.46C206.926 25.8333 206.879 26.3133 206.786 26.9H200.426C200.599 27.6333 200.959 28.1933 201.506 28.58C202.066 28.9667 202.819 29.16 203.766 29.16C204.713 29.16 205.553 28.8933 206.286 28.36V30.44C205.579 30.88 204.559 31.1 203.226 31.1ZM214.872 19.4C214.472 19.4 214.012 19.2733 213.492 19.02C212.972 18.7667 212.579 18.64 212.312 18.64C212.059 18.64 211.832 18.7067 211.632 18.84C211.432 18.96 211.212 19.1867 210.972 19.52L209.832 18.46C210.045 18.02 210.345 17.6533 210.732 17.36C211.132 17.0533 211.565 16.9 212.032 16.9C212.499 16.9 213.005 17.0267 213.552 17.28C214.099 17.5333 214.499 17.66 214.752 17.66C215.325 17.66 215.752 17.3733 216.032 16.8L217.312 17.82C216.792 18.8733 215.979 19.4 214.872 19.4ZM217.932 31H215.532V24.76C215.532 24.0933 215.372 23.5933 215.052 23.26C214.732 22.9133 214.279 22.74 213.692 22.74C213.105 22.74 212.599 22.9867 212.172 23.48C211.745 23.96 211.532 24.6533 211.532 25.56V31H209.132V20.86H211.532V22.6C212.105 21.36 213.145 20.74 214.652 20.74C215.665 20.74 216.465 21.0467 217.052 21.66C217.639 22.2733 217.932 23.14 217.932 24.26V31ZM223.081 31.08C222.121 31.08 221.354 30.8 220.781 30.24C220.221 29.68 219.941 28.9467 219.941 28.04C219.941 27.1333 220.301 26.4067 221.021 25.86C221.741 25.3133 222.781 25.04 224.141 25.04H225.621V24.42C225.621 23.86 225.474 23.4333 225.181 23.14C224.887 22.8467 224.387 22.7 223.681 22.7C222.601 22.7 221.607 23 220.701 23.6V21.38C221.461 20.9133 222.554 20.68 223.981 20.68C226.727 20.68 228.101 21.96 228.101 24.52V31H225.721V29.78C225.254 30.6467 224.374 31.08 223.081 31.08ZM223.921 29.3C224.454 29.3 224.867 29.1467 225.161 28.84C225.467 28.52 225.621 28.1067 225.621 27.6V26.64H224.381C223.754 26.64 223.274 26.7733 222.941 27.04C222.607 27.2933 222.441 27.62 222.441 28.02C222.441 28.8733 222.934 29.3 223.921 29.3Z" fill="white"/>
<defs>
<filter id="filter0_d" x="31" y="0" width="218" height="57" filterUnits="userSpaceOnUse" color-interpolation-filters="sRGB">
<feFlood flood-opacity="0" result="BackgroundImageFix"/>
<feColorMatrix in="SourceAlpha" type="matrix" values="0 0 0 0 0 0 0 0 0 0 0 0 0 0 0 0 0 0 127 0"/>
<feOffset dy="4"/>
<feGaussianBlur stdDeviation="2"/>
<feColorMatrix type="matrix" values="0 0 0 0 0 0 0 0 0 0 0 0 0 0 0 0 0 0 0.25 0"/>
<feBlend mode="normal" in2="BackgroundImageFix" result="effect1_dropShadow"/>
<feBlend mode="normal" in="SourceGraphic" in2="effect1_dropShadow" result="shape"/>
</filter>
</defs>
</svg>
