<svg width="345" height="113" viewBox="0 0 345 113" fill="none" xmlns="http://www.w3.org/2000/svg">
<path d="M76.9861 86.06H84.9061C86.4861 86.06 87.6961 86.51 88.5361 87.41C89.3961 88.29 89.8261 89.64 89.8261 91.46C89.8261 92.3 89.7261 93 89.5261 93.56C89.3261 94.1 89.0661 94.54 88.7461 94.88C88.4461 95.2 88.1061 95.44 87.7261 95.6C87.3461 95.76 86.9761 95.85 86.6161 95.87V96.17C86.9761 96.17 87.3761 96.25 87.8161 96.41C88.2761 96.55 88.6961 96.81 89.0761 97.19C89.4761 97.55 89.8061 98.04 90.0661 98.66C90.3461 99.26 90.4861 100.02 90.4861 100.94C90.4861 102.86 90.0461 104.35 89.1661 105.41C88.2861 106.47 87.1361 107 85.7161 107H76.9861V86.06ZM79.3861 104.9H84.9961C85.9561 104.9 86.6761 104.65 87.1561 104.15C87.6561 103.63 87.9061 102.83 87.9061 101.75V100.37C87.9061 99.29 87.6561 98.5 87.1561 98C86.6761 97.48 85.9561 97.22 84.9961 97.22H79.3861V104.9ZM79.3861 95.12H84.6061C85.4661 95.12 86.1261 94.9 86.5861 94.46C87.0461 94 87.2761 93.29 87.2761 92.33V90.95C87.2761 89.99 87.0461 89.29 86.5861 88.85C86.1261 88.39 85.4661 88.16 84.6061 88.16H79.3861V95.12ZM99.7521 107V105.02H102.392V88.04H99.7521V86.06H107.432V88.04H104.792V105.02H107.432V107H99.7521ZM117.521 107V86.06H129.101V88.16H119.921V95.36H128.531V97.46H119.921V104.9H129.101V107H117.521ZM143.572 93.41L141.742 89.09H141.442L141.652 93.41V107H139.312V86.06H142.252L149.212 99.65L151.042 103.97H151.342L151.132 99.65V86.06H153.472V107H150.532L143.572 93.41ZM168.644 107L162.494 86.06H165.014L168.974 99.59L170.024 104.9H170.324L171.374 99.59L175.364 86.06H177.824L171.644 107H168.644ZM186.879 107V86.06H198.459V88.16H189.279V95.36H197.889V97.46H189.279V104.9H198.459V107H186.879ZM212.93 93.41L211.1 89.09H210.8L211.01 93.41V107H208.67V86.06H211.61L218.57 99.65L220.4 103.97H220.7L220.49 99.65V86.06H222.83V107H219.89L212.93 93.41ZM232.871 107V105.02H235.511V88.04H232.871V86.06H240.551V88.04H237.911V105.02H240.551V107H232.871ZM250.64 86.06H257.21C259.63 86.06 261.5 86.9 262.82 88.58C264.14 90.24 264.8 92.89 264.8 96.53C264.8 100.17 264.14 102.83 262.82 104.51C261.5 106.17 259.63 107 257.21 107H250.64V86.06ZM257.21 104.9C258.71 104.9 259.92 104.38 260.84 103.34C261.76 102.3 262.22 100.81 262.22 98.87V94.19C262.22 92.25 261.76 90.76 260.84 89.72C259.92 88.68 258.71 88.16 257.21 88.16H253.04V104.9H257.21ZM281.943 107.36C279.403 107.36 277.433 106.49 276.033 104.75C274.633 103.01 273.933 100.27 273.933 96.53C273.933 92.79 274.633 90.05 276.033 88.31C277.433 86.57 279.403 85.7 281.943 85.7C284.483 85.7 286.453 86.57 287.853 88.31C289.253 90.05 289.953 92.79 289.953 96.53C289.953 100.27 289.253 103.01 287.853 104.75C286.453 106.49 284.483 107.36 281.943 107.36ZM281.943 105.23C283.683 105.23 285.023 104.66 285.963 103.52C286.903 102.36 287.373 100.81 287.373 98.87V94.19C287.373 92.25 286.903 90.71 285.963 89.57C285.023 88.41 283.683 87.83 281.943 87.83C280.203 87.83 278.863 88.41 277.923 89.57C276.983 90.71 276.513 92.25 276.513 94.19V98.87C276.513 100.81 276.983 102.36 277.923 103.52C278.863 104.66 280.203 105.23 281.943 105.23Z" fill="#F40F0F"/>
<ellipse cx="16" cy="16.5" rx="16" ry="16.5" fill="#FF372B"/>
<ellipse cx="329" cy="16.5" rx="16" ry="16.5" fill="#FF372B"/>
<ellipse cx="41" cy="53.5" rx="8" ry="8.5" fill="#FF372B"/>
<ellipse cx="308" cy="53.5" rx="8" ry="8.5" fill="#FF372B"/>
</svg>
