<svg width="139" height="208" viewBox="0 0 139 208" fill="none" xmlns="http://www.w3.org/2000/svg">
<g filter="url(#filter0_d)">
<rect x="4" width="131" height="200" rx="5" fill="#77C88E"/>
</g>
<g filter="url(#filter1_d)">
<rect x="16.5" y="14.5" width="105" height="171" rx="4.5" stroke="white"/>
</g>
<path d="M41.8926 148L41.2476 145.435H38.0376L37.3926 148H35.3376L38.3076 137.53H41.0376L44.0076 148H41.8926ZM40.0776 141.295L39.7476 139.48H39.5076L39.1776 141.295L38.5626 143.71H40.7226L40.0776 141.295ZM51.1201 142.39L50.4601 140.725H50.2201L50.3401 142.48V148H48.3301V137.53H50.6701L53.3101 143.14L53.9701 144.805H54.2101L54.0901 143.05V137.53H56.1001V148H53.7601L51.1201 142.39ZM53.2951 136.54C53.1151 136.54 52.9551 136.52 52.8151 136.48C52.6751 136.44 52.4651 136.35 52.1851 136.21C51.9151 136.07 51.7001 135.975 51.5401 135.925C51.3901 135.875 51.2551 135.85 51.1351 135.85C50.9651 135.85 50.8301 135.88 50.7301 135.94C50.6301 136 50.5051 136.1 50.3551 136.24L49.6201 135.28C49.7901 135.01 50.0051 134.795 50.2651 134.635C50.5351 134.465 50.8251 134.38 51.1351 134.38C51.2251 134.38 51.3051 134.385 51.3751 134.395C51.4551 134.405 51.5351 134.42 51.6151 134.44C51.6951 134.46 51.7851 134.495 51.8851 134.545C51.9851 134.585 52.1051 134.64 52.2451 134.71C52.5151 134.85 52.7251 134.945 52.8751 134.995C53.0351 135.045 53.1751 135.07 53.2951 135.07C53.4651 135.07 53.6001 135.04 53.7001 134.98C53.8001 134.92 53.9251 134.82 54.0751 134.68L54.8101 135.64C54.6401 135.91 54.4201 136.13 54.1501 136.3C53.8901 136.46 53.6051 136.54 53.2951 136.54ZM66.9795 148L66.3345 145.435H63.1245L62.4795 148H60.4245L63.3945 137.53H66.1245L69.0945 148H66.9795ZM65.1645 141.295L64.8345 139.48H64.5945L64.2645 141.295L63.6495 143.71H65.8095L65.1645 141.295ZM73.417 137.53H77.092C77.732 137.53 78.302 137.63 78.802 137.83C79.312 138.02 79.742 138.325 80.092 138.745C80.442 139.165 80.712 139.705 80.902 140.365C81.092 141.025 81.187 141.825 81.187 142.765C81.187 143.705 81.092 144.505 80.902 145.165C80.712 145.825 80.442 146.365 80.092 146.785C79.742 147.205 79.312 147.515 78.802 147.715C78.302 147.905 77.732 148 77.092 148H73.417V137.53ZM77.092 146.125C78.302 146.125 78.907 145.425 78.907 144.025V141.505C78.907 140.105 78.302 139.405 77.092 139.405H75.562V146.125H77.092ZM85.5202 148V146.305H86.7502V139.225H85.5202V137.53H90.1252V139.225H88.8952V146.305H90.1252V148H85.5202ZM96.9721 148H94.8271V137.53H99.3571C100.297 137.53 101.012 137.825 101.502 138.415C101.992 139.005 102.237 139.795 102.237 140.785C102.237 141.555 102.092 142.205 101.802 142.735C101.512 143.265 101.082 143.635 100.512 143.845L102.342 148H100.017L98.3971 144.04H96.9721V148ZM99.0871 142.255C99.3771 142.255 99.6021 142.185 99.7621 142.045C99.9321 141.895 100.017 141.64 100.017 141.28V140.38C100.017 140.02 99.9321 139.77 99.7621 139.63C99.6021 139.48 99.3771 139.405 99.0871 139.405H96.9721V142.255H99.0871ZM28.5679 168V157.53H33.0979C34.0379 157.53 34.7529 157.83 35.2429 158.43C35.7329 159.03 35.9779 159.83 35.9779 160.83C35.9779 161.83 35.7329 162.63 35.2429 163.23C34.7529 163.83 34.0379 164.13 33.0979 164.13H30.7129V168H28.5679ZM30.7129 162.255H32.8279C33.1179 162.255 33.3429 162.18 33.5029 162.03C33.6729 161.88 33.7579 161.63 33.7579 161.28V160.38C33.7579 160.03 33.6729 159.78 33.5029 159.63C33.3429 159.48 33.1179 159.405 32.8279 159.405H30.7129V162.255ZM40.4888 168V157.53H42.6338V166.125H46.1888V168H40.4888ZM56.6333 168L55.9883 165.435H52.7783L52.1333 168H50.0783L53.0483 157.53H55.7783L58.7483 168H56.6333ZM54.8183 161.295L54.4883 159.48H54.2483L53.9183 161.295L53.3033 163.71H55.4633L54.8183 161.295ZM66.2262 159.405V168H64.0812V159.405H61.5762V157.53H68.7312V159.405H66.2262ZM72.7277 168V166.305H73.9577V159.225H72.7277V157.53H77.3327V159.225H76.1027V166.305H77.3327V168H72.7277ZM82.0346 168V157.53H84.1796V166.125H87.7346V168H82.0346ZM92.2417 168V157.53H94.3867V166.125H97.9417V168H92.2417ZM105.643 168.18C105.013 168.18 104.443 168.085 103.933 167.895C103.423 167.695 102.988 167.38 102.628 166.95C102.268 166.51 101.988 165.95 101.788 165.27C101.588 164.58 101.488 163.745 101.488 162.765C101.488 161.785 101.588 160.955 101.788 160.275C101.988 159.585 102.268 159.025 102.628 158.595C102.988 158.155 103.423 157.84 103.933 157.65C104.443 157.45 105.013 157.35 105.643 157.35C106.273 157.35 106.843 157.45 107.353 157.65C107.863 157.84 108.298 158.155 108.658 158.595C109.018 159.025 109.298 159.585 109.498 160.275C109.698 160.955 109.798 161.785 109.798 162.765C109.798 163.745 109.698 164.58 109.498 165.27C109.298 165.95 109.018 166.51 108.658 166.95C108.298 167.38 107.863 167.695 107.353 167.895C106.843 168.085 106.273 168.18 105.643 168.18ZM105.643 166.29C106.243 166.29 106.703 166.11 107.023 165.75C107.353 165.39 107.518 164.85 107.518 164.13V161.4C107.518 160.68 107.353 160.14 107.023 159.78C106.703 159.42 106.243 159.24 105.643 159.24C105.043 159.24 104.578 159.42 104.248 159.78C103.928 160.14 103.768 160.68 103.768 161.4V164.13C103.768 164.85 103.928 165.39 104.248 165.75C104.578 166.11 105.043 166.29 105.643 166.29Z" fill="white"/>
<line x1="16.0048" y1="124.5" x2="122.005" y2="125.51" stroke="white"/>
<g clip-path="url(#clip0)">
<path d="M94.3094 46.6906C87.4156 39.7967 78.2493 36 68.5 36C58.7507 36 49.5844 39.7967 42.6906 46.6906C35.7967 53.5844 32 62.7507 32 72.5C32 82.2493 35.7967 91.4156 42.6906 98.3094C49.5844 105.203 58.7507 109 68.5 109C78.2493 109 87.4156 105.203 94.3094 98.3094C101.203 91.4156 105 82.2493 105 72.5C105 62.7507 101.203 53.5844 94.3094 46.6906ZM68.5 103.297C51.5187 103.297 37.7031 89.4813 37.7031 72.5C37.7031 55.5187 51.5187 41.7031 68.5 41.7031C85.4813 41.7031 99.2969 55.5187 99.2969 72.5C99.2969 89.4813 85.4813 103.297 68.5 103.297ZM71.3516 69.6457H84.1836V75.3488H71.3516V88.1808H65.6484V75.3488H52.8164V69.6457H65.6484V56.8136H71.3516V69.6457Z" fill="#FFF2EF"/>
</g>
<defs>
<filter id="filter0_d" x="0" y="0" width="139" height="208" filterUnits="userSpaceOnUse" color-interpolation-filters="sRGB">
<feFlood flood-opacity="0" result="BackgroundImageFix"/>
<feColorMatrix in="SourceAlpha" type="matrix" values="0 0 0 0 0 0 0 0 0 0 0 0 0 0 0 0 0 0 127 0"/>
<feOffset dy="4"/>
<feGaussianBlur stdDeviation="2"/>
<feColorMatrix type="matrix" values="0 0 0 0 0 0 0 0 0 0 0 0 0 0 0 0 0 0 0.25 0"/>
<feBlend mode="normal" in2="BackgroundImageFix" result="effect1_dropShadow"/>
<feBlend mode="normal" in="SourceGraphic" in2="effect1_dropShadow" result="shape"/>
</filter>
<filter id="filter1_d" x="12" y="14" width="114" height="180" filterUnits="userSpaceOnUse" color-interpolation-filters="sRGB">
<feFlood flood-opacity="0" result="BackgroundImageFix"/>
<feColorMatrix in="SourceAlpha" type="matrix" values="0 0 0 0 0 0 0 0 0 0 0 0 0 0 0 0 0 0 127 0"/>
<feOffset dy="4"/>
<feGaussianBlur stdDeviation="2"/>
<feColorMatrix type="matrix" values="0 0 0 0 0 0 0 0 0 0 0 0 0 0 0 0 0 0 0.25 0"/>
<feBlend mode="normal" in2="BackgroundImageFix" result="effect1_dropShadow"/>
<feBlend mode="normal" in="SourceGraphic" in2="effect1_dropShadow" result="shape"/>
</filter>
<clipPath id="clip0">
<rect width="73" height="73" fill="white" transform="translate(32 36)"/>
</clipPath>
</defs>
</svg>
