<svg width="139" height="208" viewBox="0 0 139 208" fill="none" xmlns="http://www.w3.org/2000/svg">
<g filter="url(#filter0_d)">
<rect x="4" width="131" height="200" rx="5" fill="#EFA639"/>
</g>
<line x1="18.0048" y1="123.5" x2="124.005" y2="124.51" stroke="white"/>
<g filter="url(#filter1_d)">
<rect x="17.5" y="14.5" width="105" height="171" rx="4.5" stroke="white"/>
</g>
<path d="M30.7451 148V137.53H32.8901V146.125H36.4451V148H30.7451ZM40.6071 148V146.305H41.8371V139.225H40.6071V137.53H45.2121V139.225H43.9821V146.305H45.2121V148H40.6071ZM52.974 148.18C51.404 148.18 50.174 147.63 49.284 146.53L50.664 145.15C51.264 145.92 52.049 146.305 53.019 146.305C54.019 146.305 54.519 145.865 54.519 144.985C54.519 144.625 54.429 144.345 54.249 144.145C54.069 143.945 53.789 143.805 53.409 143.725L52.449 143.545C51.479 143.365 50.764 143.03 50.304 142.54C49.854 142.04 49.629 141.35 49.629 140.47C49.629 139.45 49.929 138.675 50.529 138.145C51.129 137.615 52.009 137.35 53.169 137.35C54.649 137.35 55.774 137.83 56.544 138.79L55.164 140.17C54.904 139.85 54.609 139.615 54.279 139.465C53.959 139.305 53.579 139.225 53.139 139.225C52.659 139.225 52.309 139.315 52.089 139.495C51.879 139.675 51.774 139.965 51.774 140.365C51.774 140.715 51.854 140.98 52.014 141.16C52.184 141.34 52.454 141.47 52.824 141.55L53.784 141.745C54.294 141.855 54.729 141.99 55.089 142.15C55.459 142.3 55.759 142.495 55.989 142.735C56.229 142.975 56.399 143.26 56.499 143.59C56.609 143.92 56.664 144.305 56.664 144.745C56.664 145.865 56.349 146.72 55.719 147.31C55.089 147.89 54.174 148.18 52.974 148.18ZM65.1075 139.405V148H62.9625V139.405H60.4575V137.53H67.6125V139.405H65.1075ZM76.9981 148L76.3531 145.435H73.1431L72.4981 148H70.4431L73.4131 137.53H76.1431L79.1131 148H76.9981ZM75.1831 141.295L74.8531 139.48H74.6131L74.2831 141.295L73.6681 143.71H75.8281L75.1831 141.295ZM89.6142 137.53H93.2892C93.9292 137.53 94.4992 137.63 94.9992 137.83C95.5092 138.02 95.9392 138.325 96.2892 138.745C96.6392 139.165 96.9092 139.705 97.0992 140.365C97.2892 141.025 97.3842 141.825 97.3842 142.765C97.3842 143.705 97.2892 144.505 97.0992 145.165C96.9092 145.825 96.6392 146.365 96.2892 146.785C95.9392 147.205 95.5092 147.515 94.9992 147.715C94.4992 147.905 93.9292 148 93.2892 148H89.6142V137.53ZM93.2892 146.125C94.4992 146.125 95.1042 145.425 95.1042 144.025V141.505C95.1042 140.105 94.4992 139.405 93.2892 139.405H91.7592V146.125H93.2892ZM102.062 148V137.53H108.542V139.405H104.207V141.775H107.882V143.635H104.207V146.125H108.542V148H102.062ZM24.9297 168V157.53H29.4597C30.3997 157.53 31.1147 157.83 31.6047 158.43C32.0947 159.03 32.3397 159.83 32.3397 160.83C32.3397 161.83 32.0947 162.63 31.6047 163.23C31.1147 163.83 30.3997 164.13 29.4597 164.13H27.0747V168H24.9297ZM27.0747 162.255H29.1897C29.4797 162.255 29.7047 162.18 29.8647 162.03C30.0347 161.88 30.1197 161.63 30.1197 161.28V160.38C30.1197 160.03 30.0347 159.78 29.8647 159.63C29.7047 159.48 29.4797 159.405 29.1897 159.405H27.0747V162.255ZM36.8506 168V157.53H38.9956V166.125H42.5506V168H36.8506ZM52.9951 168L52.3501 165.435H49.1401L48.4951 168H46.4401L49.4101 157.53H52.1401L55.1101 168H52.9951ZM51.1801 161.295L50.8501 159.48H50.6101L50.2801 161.295L49.6651 163.71H51.8251L51.1801 161.295ZM62.588 159.405V168H60.443V159.405H57.938V157.53H65.093V159.405H62.588ZM69.0896 168V166.305H70.3196V159.225H69.0896V157.53H73.6946V159.225H72.4646V166.305H73.6946V168H69.0896ZM78.3965 168V157.53H80.5415V166.125H84.0965V168H78.3965ZM88.6035 168V157.53H90.7485V166.125H94.3035V168H88.6035ZM102.005 168.18C101.375 168.18 100.805 168.085 100.295 167.895C99.7849 167.695 99.3499 167.38 98.9899 166.95C98.6299 166.51 98.3499 165.95 98.1499 165.27C97.9499 164.58 97.8499 163.745 97.8499 162.765C97.8499 161.785 97.9499 160.955 98.1499 160.275C98.3499 159.585 98.6299 159.025 98.9899 158.595C99.3499 158.155 99.7849 157.84 100.295 157.65C100.805 157.45 101.375 157.35 102.005 157.35C102.635 157.35 103.205 157.45 103.715 157.65C104.225 157.84 104.66 158.155 105.02 158.595C105.38 159.025 105.66 159.585 105.86 160.275C106.06 160.955 106.16 161.785 106.16 162.765C106.16 163.745 106.06 164.58 105.86 165.27C105.66 165.95 105.38 166.51 105.02 166.95C104.66 167.38 104.225 167.695 103.715 167.895C103.205 168.085 102.635 168.18 102.005 168.18ZM102.005 166.29C102.605 166.29 103.065 166.11 103.385 165.75C103.715 165.39 103.88 164.85 103.88 164.13V161.4C103.88 160.68 103.715 160.14 103.385 159.78C103.065 159.42 102.605 159.24 102.005 159.24C101.405 159.24 100.94 159.42 100.61 159.78C100.29 160.14 100.13 160.68 100.13 161.4V164.13C100.13 164.85 100.29 165.39 100.61 165.75C100.94 166.11 101.405 166.29 102.005 166.29ZM113.835 168.18C112.265 168.18 111.035 167.63 110.145 166.53L111.525 165.15C112.125 165.92 112.91 166.305 113.88 166.305C114.88 166.305 115.38 165.865 115.38 164.985C115.38 164.625 115.29 164.345 115.11 164.145C114.93 163.945 114.65 163.805 114.27 163.725L113.31 163.545C112.34 163.365 111.625 163.03 111.165 162.54C110.715 162.04 110.49 161.35 110.49 160.47C110.49 159.45 110.79 158.675 111.39 158.145C111.99 157.615 112.87 157.35 114.03 157.35C115.51 157.35 116.635 157.83 117.405 158.79L116.025 160.17C115.765 159.85 115.47 159.615 115.14 159.465C114.82 159.305 114.44 159.225 114 159.225C113.52 159.225 113.17 159.315 112.95 159.495C112.74 159.675 112.635 159.965 112.635 160.365C112.635 160.715 112.715 160.98 112.875 161.16C113.045 161.34 113.315 161.47 113.685 161.55L114.645 161.745C115.155 161.855 115.59 161.99 115.95 162.15C116.32 162.3 116.62 162.495 116.85 162.735C117.09 162.975 117.26 163.26 117.36 163.59C117.47 163.92 117.525 164.305 117.525 164.745C117.525 165.865 117.21 166.72 116.58 167.31C115.95 167.89 115.035 168.18 113.835 168.18Z" fill="white"/>
<path d="M43.0415 107.079C42.0658 107.079 41.2728 106.286 41.2728 105.311V50.8683C41.2728 49.8938 42.0658 49.1011 43.0415 49.1011H80.8717C81.8474 49.1011 82.6406 49.8937 82.6406 50.8683V74.4075C84.322 73.8475 86.0852 73.4758 87.9134 73.3184V50.8683C87.9134 46.9858 84.7545 43.8283 80.8717 43.8283H51.092V41.0399C51.092 40.0653 51.8849 39.2728 52.8606 39.2728H90.6911C91.6667 39.2728 92.4597 40.0653 92.4597 41.0399V73.3661C94.2926 73.5696 96.0542 74.0048 97.7323 74.6136V41.0399C97.7323 37.1576 94.5738 34 90.6911 34H52.8606C48.978 34 45.8192 37.1576 45.8192 41.0399V43.8283H43.0415C39.1589 43.8283 36 46.9859 36 50.8683V105.311C36 109.194 39.1589 112.352 43.0415 112.352H73.3851C71.8663 110.79 70.566 109.019 69.5333 107.079H43.0415Z" fill="#FFF2EF"/>
<path d="M52.0081 64.3744H67.2239C68.6814 64.3744 69.8602 63.1939 69.8602 61.7382C69.8602 60.2822 68.6814 59.1018 67.2239 59.1018H52.0081C50.5514 59.1018 49.3725 60.2823 49.3725 61.7382C49.3725 63.1939 50.5513 64.3744 52.0081 64.3744Z" fill="#FFF2EF"/>
<path d="M74.5432 73.4434C74.5432 71.9876 73.3644 70.8071 71.9068 70.8071H52.0081C50.5514 70.8071 49.3725 71.9876 49.3725 73.4434C49.3725 74.8995 50.5513 76.0798 52.0081 76.0798H71.9068C73.3644 76.0798 74.5432 74.8995 74.5432 73.4434Z" fill="#FFF2EF"/>
<path d="M71.4464 82.5087H52.0081C50.5514 82.5087 49.3725 83.689 49.3725 85.1449C49.3725 86.6008 50.5513 87.7813 52.0081 87.7813H68.4829C69.2369 85.8848 70.2413 84.1189 71.4464 82.5087Z" fill="#FFF2EF"/>
<path d="M52.0081 94.2112C50.5514 94.2112 49.3725 95.3918 49.3725 96.8475C49.3725 98.3033 50.5513 99.4839 52.0081 99.4839H67.085C66.9406 98.4361 66.838 97.3725 66.838 96.2846C66.838 95.5843 66.8816 94.8956 66.9437 94.2111H52.0081V94.2112Z" fill="#FFF2EF"/>
<path d="M89.9059 90.8383C85.3801 90.8383 81.3735 94.5882 79.793 96.2847C81.3735 97.9804 85.3801 101.729 89.9059 101.729C94.45 101.729 98.4453 97.9815 100.019 96.2863C98.4405 94.591 94.4347 90.8383 89.9059 90.8383ZM89.9059 100.239C87.7227 100.239 85.9518 98.4684 85.9518 96.2847C85.9518 94.0994 87.7227 92.3305 89.9059 92.3305C92.089 92.3305 93.86 94.0992 93.86 96.2847C93.86 98.4684 92.089 100.239 89.9059 100.239Z" fill="#FFF2EF"/>
<path d="M89.9059 79.8078C80.8051 79.8078 73.4287 87.184 73.4287 96.2847C73.4287 105.384 80.8051 112.762 89.9059 112.762C99.0068 112.762 106.383 105.384 106.383 96.2847C106.383 87.1839 99.0068 79.8078 89.9059 79.8078ZM89.9059 104.365C82.7952 104.365 77.2389 97.3957 77.005 97.0996C76.6318 96.6208 76.6318 95.9489 77.005 95.4715C77.2391 95.1742 82.7953 88.2021 89.9059 88.2021C97.0164 88.2021 102.573 95.1741 102.807 95.4715C103.18 95.9489 103.18 96.621 102.807 97.0996C102.573 97.3959 97.0164 104.365 89.9059 104.365Z" fill="#FFF2EF"/>
<defs>
<filter id="filter0_d" x="0" y="0" width="139" height="208" filterUnits="userSpaceOnUse" color-interpolation-filters="sRGB">
<feFlood flood-opacity="0" result="BackgroundImageFix"/>
<feColorMatrix in="SourceAlpha" type="matrix" values="0 0 0 0 0 0 0 0 0 0 0 0 0 0 0 0 0 0 127 0"/>
<feOffset dy="4"/>
<feGaussianBlur stdDeviation="2"/>
<feColorMatrix type="matrix" values="0 0 0 0 0 0 0 0 0 0 0 0 0 0 0 0 0 0 0.25 0"/>
<feBlend mode="normal" in2="BackgroundImageFix" result="effect1_dropShadow"/>
<feBlend mode="normal" in="SourceGraphic" in2="effect1_dropShadow" result="shape"/>
</filter>
<filter id="filter1_d" x="13" y="14" width="114" height="180" filterUnits="userSpaceOnUse" color-interpolation-filters="sRGB">
<feFlood flood-opacity="0" result="BackgroundImageFix"/>
<feColorMatrix in="SourceAlpha" type="matrix" values="0 0 0 0 0 0 0 0 0 0 0 0 0 0 0 0 0 0 127 0"/>
<feOffset dy="4"/>
<feGaussianBlur stdDeviation="2"/>
<feColorMatrix type="matrix" values="0 0 0 0 0 0 0 0 0 0 0 0 0 0 0 0 0 0 0.25 0"/>
<feBlend mode="normal" in2="BackgroundImageFix" result="effect1_dropShadow"/>
<feBlend mode="normal" in="SourceGraphic" in2="effect1_dropShadow" result="shape"/>
</filter>
</defs>
</svg>
