<svg width="212" height="217" viewBox="0 0 212 217" fill="none" xmlns="http://www.w3.org/2000/svg">
<g filter="url(#filter0_d)">
<ellipse cx="102.5" cy="122" rx="91.5" ry="87" fill="#EE5B3B"/>
<path d="M193.5 122C193.5 169.749 152.782 208.5 102.5 208.5C52.218 208.5 11.5 169.749 11.5 122C11.5 74.2508 52.218 35.5 102.5 35.5C152.782 35.5 193.5 74.2508 193.5 122Z" stroke="#FE560E"/>
</g>
<path d="M98.3125 65.375H105.688V78.125H98.3125V65.375Z" fill="#68BAD6"/>
<path d="M109.375 67.5H94.625C94.136 67.5 93.667 67.2761 93.3213 66.8776C92.9755 66.4791 92.7812 65.9386 92.7812 65.375C92.7812 64.8114 92.9755 64.2709 93.3213 63.8724C93.667 63.4739 94.136 63.25 94.625 63.25H109.375C109.864 63.25 110.333 63.4739 110.679 63.8724C111.024 64.2709 111.219 64.8114 111.219 65.375C111.219 65.9386 111.024 66.4791 110.679 66.8776C110.333 67.2761 109.864 67.5 109.375 67.5Z" fill="#B9E3F0"/>
<path d="M96.4688 73.875H107.531C117.311 73.875 126.69 78.3527 133.606 86.323C140.521 94.2933 144.406 105.103 144.406 116.375V122.75H59.5938V116.375C59.5938 105.103 63.4788 94.2933 70.3942 86.323C77.3096 78.3527 86.6889 73.875 96.4688 73.875Z" fill="#B9E3F0"/>
<path d="M103.844 180.125H125.969V188.625H103.844V180.125Z" fill="#F7C443"/>
<path d="M50.375 120.625H153.625V124.875C153.625 126.002 153.236 127.083 152.545 127.88C151.853 128.677 150.915 129.125 149.938 129.125H54.0625C53.0845 129.125 52.1466 128.677 51.455 127.88C50.7635 127.083 50.375 126.002 50.375 124.875V120.625Z" fill="#68BAD6"/>
<path d="M75.0142 135.5L73.4825 131.616C73.1895 130.874 72.7173 130.244 72.1221 129.802C71.527 129.36 70.834 129.125 70.1261 129.125H69.0743C65.7113 129.125 64.1035 133.889 66.5825 136.508L81.7187 152.5V135.5H75.0142Z" fill="#FABA8C"/>
<path d="M124.125 180.125V173.75L125.652 171.99C126.337 171.2 126.88 170.263 127.251 169.232C127.622 168.201 127.812 167.095 127.812 165.979V152.5L134.662 135.134C134.917 134.486 135.027 133.775 134.982 133.066C134.938 132.357 134.739 131.672 134.405 131.074C134.071 130.476 133.612 129.984 133.07 129.644C132.529 129.303 131.922 129.125 131.305 129.125H128.158C127.496 129.125 126.846 129.331 126.276 129.72C125.706 130.11 125.238 130.67 124.921 131.34L114.906 152.5L107.531 154.625L89.0937 146.125L82.7379 131.474C82.4316 130.768 81.9608 130.175 81.3783 129.76C80.7958 129.345 80.1245 129.125 79.4396 129.125H78.2267C77.6097 129.125 77.0025 129.303 76.4608 129.644C75.9192 129.984 75.4603 130.476 75.1263 131.074C74.7922 131.672 74.5937 132.357 74.5489 133.066C74.504 133.775 74.6143 134.486 74.8697 135.134L81.7187 152.5L109.375 180.125H124.125Z" fill="#E8B994"/>
<path d="M23.1066 68.5998L8.41977 59.1765L12.4969 52.822C13.3429 51.5034 14.4073 50.7705 15.69 50.6231C16.9726 50.4758 18.3153 50.8522 19.7181 51.7522C21.1209 52.6522 22.0225 53.7159 22.4232 54.9433C22.8238 56.1707 22.6011 57.4436 21.7551 58.7622L19.6085 62.1078L25.0372 65.5909L23.1066 68.5998ZM16.9784 60.4202L18.8819 57.4534C19.1429 57.0466 19.2402 56.6635 19.1738 56.304C19.1164 55.9306 18.8422 55.5863 18.3513 55.2713L17.0888 54.4613C16.5978 54.1463 16.1706 54.0405 15.8072 54.144C15.4528 54.2334 15.1451 54.4815 14.8841 54.8883L12.9805 57.8551L16.9784 60.4202Z" fill="#EE5B3B"/>
<path d="M87.7184 13.1507L88.9073 27.4263L85.3446 27.723L84.1557 13.4474L79.9951 13.7939L79.7358 10.6797L91.6196 9.68996L91.879 12.8042L87.7184 13.1507Z" fill="#EE5B3B"/>
<path d="M107.885 25.6247L108.979 23.0203L110.869 23.8145L115.441 12.9361L113.551 12.1419L114.645 9.53751L121.721 12.511L120.627 15.1154L118.737 14.3211L114.165 25.1996L116.055 25.9938L114.96 28.5982L107.885 25.6247Z" fill="#EE5B3B"/>
<path d="M130.3 32.044L137.84 16.3069L141.064 17.8515L134.874 30.7704L140.218 33.3304L138.868 36.1486L130.3 32.044Z" fill="#EE5B3B"/>
<path d="M186.66 80.3144C184.926 78.3553 184.253 76.2127 184.643 73.8868L187.889 74.0843C187.591 75.6837 187.978 77.0886 189.05 78.2991C190.155 79.5469 191.256 79.6848 192.354 78.7125C192.804 78.3148 193.054 77.8932 193.104 77.4476C193.155 77.002 193.02 76.4979 192.7 75.9353L191.864 74.5385C191.017 73.1292 190.645 71.8669 190.749 70.7515C190.875 69.6376 191.488 68.5945 192.586 67.6222C193.859 66.4954 195.157 66.0135 196.482 66.1767C197.806 66.3398 199.109 67.1452 200.39 68.5927C202.025 70.4396 202.669 72.3738 202.322 74.3952L199.075 74.1978C199.187 73.5198 199.155 72.8921 198.977 72.3145C198.824 71.7384 198.504 71.1759 198.017 70.6268C197.487 70.0278 196.988 69.6905 196.52 69.6148C196.064 69.5516 195.586 69.741 195.087 70.1829C194.65 70.5696 194.408 70.9622 194.36 71.3607C194.323 71.7717 194.459 72.2523 194.768 72.8024L195.585 74.2158C196.012 74.9737 196.324 75.6657 196.522 76.2917C196.743 76.9191 196.831 77.5089 196.786 78.0611C196.752 78.6257 196.584 79.1528 196.283 79.6421C195.992 80.144 195.573 80.638 195.024 81.1241C193.626 82.3615 192.211 82.913 190.779 82.7787C189.359 82.6333 187.986 81.8119 186.66 80.3144Z" fill="#EE5B3B"/>
<path d="M171.697 58.0445C170.932 57.3258 170.348 56.5601 169.945 55.7474C169.553 54.9226 169.384 54.0436 169.437 53.1105C169.502 52.1651 169.8 51.1653 170.333 50.1109C170.877 49.0444 171.708 47.9157 172.826 46.725C173.944 45.5343 175.013 44.6399 176.032 44.0418C177.062 43.4316 178.041 43.0706 178.969 42.9589C179.908 42.835 180.796 42.9485 181.633 43.2994C182.48 43.6383 183.287 44.167 184.052 44.8857C184.818 45.6045 185.396 46.3762 185.788 47.2011C186.191 48.0137 186.36 48.8927 186.295 49.838C186.242 50.7712 185.944 51.7711 185.4 52.8376C184.867 53.892 184.041 55.0145 182.923 56.2053C181.805 57.396 180.731 58.2965 179.701 58.9067C178.682 59.5047 177.703 59.8657 176.764 59.9896C175.836 60.1014 174.948 59.9879 174.1 59.6491C173.264 59.2981 172.463 58.7632 171.697 58.0445ZM173.854 55.7481C174.583 56.4326 175.347 56.7387 176.146 56.6663C176.958 56.6054 177.774 56.1375 178.596 55.2627L181.71 51.9457C182.532 51.0708 182.947 50.2265 182.957 49.4126C182.979 48.6101 182.625 47.8666 181.896 47.1822C181.167 46.4977 180.397 46.1859 179.585 46.2468C178.786 46.3192 177.975 46.7928 177.154 47.6676L174.04 50.9846C173.218 51.8594 172.796 52.6981 172.775 53.5006C172.765 54.3144 173.125 55.0636 173.854 55.7481Z" fill="#EE5B3B"/>
<path d="M150.537 42.5009L158.938 27.2065L162.072 28.9277L155.175 41.4832L160.368 44.3358L158.864 47.0747L150.537 42.5009Z" fill="#EE5B3B"/>
<path d="M36.0241 50.3346L25.9518 36.085L28.8711 34.0214L37.1396 45.7192L41.978 42.2992L43.7817 44.8511L36.0241 50.3346Z" fill="#EE5B3B"/>
<path d="M64.6657 33.9537L62.2325 30.278L57.1859 32.054L57.591 36.4435L54.3602 37.5804L53.2367 19.4768L57.5287 17.9663L67.9908 32.7835L64.6657 33.9537ZM58.1025 24.4166L56.5795 21.7457L56.2022 21.8785L56.6876 24.9146L57.0569 29.0516L60.4527 27.8565L58.1025 24.4166Z" fill="#EE5B3B"/>
<defs>
<filter id="filter0_d" x="7" y="35" width="191" height="182" filterUnits="userSpaceOnUse" color-interpolation-filters="sRGB">
<feFlood flood-opacity="0" result="BackgroundImageFix"/>
<feColorMatrix in="SourceAlpha" type="matrix" values="0 0 0 0 0 0 0 0 0 0 0 0 0 0 0 0 0 0 127 0"/>
<feOffset dy="4"/>
<feGaussianBlur stdDeviation="2"/>
<feColorMatrix type="matrix" values="0 0 0 0 0 0 0 0 0 0 0 0 0 0 0 0 0 0 0.25 0"/>
<feBlend mode="normal" in2="BackgroundImageFix" result="effect1_dropShadow"/>
<feBlend mode="normal" in="SourceGraphic" in2="effect1_dropShadow" result="shape"/>
</filter>
</defs>
</svg>
