<svg width="281" height="64" viewBox="0 0 281 64" fill="none" xmlns="http://www.w3.org/2000/svg">
<g filter="url(#filter0_d)">
<circle cx="32" cy="28" r="28" fill="#EE8E35"/>
</g>
<rect x="22" y="11" width="259" height="31" rx="5" fill="#EE8E35"/>
<path d="M94.2245 30V20.228H98.4525C99.3298 20.228 99.9971 20.508 100.454 21.068C100.912 21.628 101.14 22.3747 101.14 23.308C101.14 24.2413 100.912 24.988 100.454 25.548C99.9971 26.108 99.3298 26.388 98.4525 26.388H96.2265V30H94.2245ZM96.2265 24.638H98.2005C98.4711 24.638 98.6811 24.568 98.8305 24.428C98.9891 24.288 99.0685 24.0547 99.0685 23.728V22.888C99.0685 22.5613 98.9891 22.328 98.8305 22.188C98.6811 22.048 98.4711 21.978 98.2005 21.978H96.2265V24.638ZM107.353 30H105.351V20.228H109.579C110.456 20.228 111.123 20.5033 111.581 21.054C112.038 21.6047 112.267 22.342 112.267 23.266C112.267 23.9847 112.131 24.5913 111.861 25.086C111.59 25.5807 111.189 25.926 110.657 26.122L112.365 30H110.195L108.683 26.304H107.353V30ZM109.327 24.638C109.597 24.638 109.807 24.5727 109.957 24.442C110.115 24.302 110.195 24.064 110.195 23.728V22.888C110.195 22.552 110.115 22.3187 109.957 22.188C109.807 22.048 109.597 21.978 109.327 21.978H107.353V24.638H109.327ZM116.696 30V20.228H122.744V21.978H118.698V24.19H122.128V25.926H118.698V28.25H122.744V30H116.696ZM127.179 30V20.228H131.407C132.284 20.228 132.952 20.508 133.409 21.068C133.866 21.628 134.095 22.3747 134.095 23.308C134.095 24.2413 133.866 24.988 133.409 25.548C132.952 26.108 132.284 26.388 131.407 26.388H129.181V30H127.179ZM129.181 24.638H131.155C131.426 24.638 131.636 24.568 131.785 24.428C131.944 24.288 132.023 24.0547 132.023 23.728V22.888C132.023 22.5613 131.944 22.328 131.785 22.188C131.636 22.048 131.426 21.978 131.155 21.978H129.181V24.638ZM142.794 30L142.192 27.606H139.196L138.594 30H136.676L139.448 20.228H141.996L144.768 30H142.794ZM141.1 23.742L140.792 22.048H140.568L140.26 23.742L139.686 25.996H141.702L141.1 23.742ZM150.805 30H148.803V20.228H153.031C153.908 20.228 154.575 20.5033 155.033 21.054C155.49 21.6047 155.719 22.342 155.719 23.266C155.719 23.9847 155.583 24.5913 155.313 25.086C155.042 25.5807 154.641 25.926 154.109 26.122L155.817 30H153.647L152.135 26.304H150.805V30ZM152.779 24.638C153.049 24.638 153.259 24.5727 153.409 24.442C153.567 24.302 153.647 24.064 153.647 23.728V22.888C153.647 22.552 153.567 22.3187 153.409 22.188C153.259 22.048 153.049 21.978 152.779 21.978H150.805V24.638H152.779ZM165.594 30L164.992 27.606H161.996L161.394 30H159.476L162.248 20.228H164.796L167.568 30H165.594ZM163.9 23.742L163.592 22.048H163.368L163.06 23.742L162.486 25.996H164.502L163.9 23.742ZM174.912 30.168C174.324 30.168 173.788 30.0793 173.302 29.902C172.826 29.7247 172.416 29.44 172.07 29.048C171.734 28.656 171.468 28.1427 171.272 27.508C171.086 26.8733 170.992 26.0987 170.992 25.184C170.992 24.2693 171.086 23.49 171.272 22.846C171.468 22.1927 171.734 21.6607 172.07 21.25C172.416 20.8393 172.826 20.5407 173.302 20.354C173.788 20.158 174.324 20.06 174.912 20.06C175.79 20.06 176.48 20.2513 176.984 20.634C177.498 21.0073 177.918 21.5767 178.244 22.342L176.508 23.238C176.452 23.0327 176.387 22.8413 176.312 22.664C176.247 22.4867 176.154 22.3373 176.032 22.216C175.911 22.0947 175.757 22.0013 175.57 21.936C175.393 21.8613 175.174 21.824 174.912 21.824C174.352 21.824 173.914 21.992 173.596 22.328C173.279 22.664 173.12 23.168 173.12 23.84V26.388C173.12 27.06 173.279 27.564 173.596 27.9C173.914 28.236 174.352 28.404 174.912 28.404C175.174 28.404 175.398 28.3667 175.584 28.292C175.78 28.208 175.944 28.1007 176.074 27.97C176.205 27.83 176.312 27.6713 176.396 27.494C176.48 27.3073 176.555 27.1067 176.62 26.892L178.272 27.844C178.104 28.208 177.918 28.5347 177.712 28.824C177.507 29.1133 177.269 29.3607 176.998 29.566C176.737 29.762 176.434 29.9113 176.088 30.014C175.743 30.1167 175.351 30.168 174.912 30.168ZM182.051 30V28.418H183.199V21.81H182.051V20.228H186.349V21.81H185.201V28.418H186.349V30H182.051ZM194.279 30.168C193.691 30.168 193.159 30.0793 192.683 29.902C192.207 29.7153 191.801 29.4213 191.465 29.02C191.129 28.6093 190.868 28.0867 190.681 27.452C190.494 26.808 190.401 26.0287 190.401 25.114C190.401 24.1993 190.494 23.4247 190.681 22.79C190.868 22.146 191.129 21.6233 191.465 21.222C191.801 20.8113 192.207 20.5173 192.683 20.34C193.159 20.1533 193.691 20.06 194.279 20.06C194.867 20.06 195.399 20.1533 195.875 20.34C196.351 20.5173 196.757 20.8113 197.093 21.222C197.429 21.6233 197.69 22.146 197.877 22.79C198.064 23.4247 198.157 24.1993 198.157 25.114C198.157 26.0287 198.064 26.808 197.877 27.452C197.69 28.0867 197.429 28.6093 197.093 29.02C196.757 29.4213 196.351 29.7153 195.875 29.902C195.399 30.0793 194.867 30.168 194.279 30.168ZM194.279 28.404C194.839 28.404 195.268 28.236 195.567 27.9C195.875 27.564 196.029 27.06 196.029 26.388V23.84C196.029 23.168 195.875 22.664 195.567 22.328C195.268 21.992 194.839 21.824 194.279 21.824C193.719 21.824 193.285 21.992 192.977 22.328C192.678 22.664 192.529 23.168 192.529 23.84V26.388C192.529 27.06 192.678 27.564 192.977 27.9C193.285 28.236 193.719 28.404 194.279 28.404ZM194.489 19.64L193.341 19.094L194.629 16.322L196.295 17.134L194.489 19.64ZM205.123 24.764L204.507 23.21H204.283L204.395 24.848V30H202.519V20.228H204.703L207.167 25.464L207.783 27.018H208.007L207.895 25.38V20.228H209.771V30H207.587L205.123 24.764Z" fill="#FBF8F8"/>
<defs>
<filter id="filter0_d" x="0" y="0" width="64" height="64" filterUnits="userSpaceOnUse" color-interpolation-filters="sRGB">
<feFlood flood-opacity="0" result="BackgroundImageFix"/>
<feColorMatrix in="SourceAlpha" type="matrix" values="0 0 0 0 0 0 0 0 0 0 0 0 0 0 0 0 0 0 127 0"/>
<feOffset dy="4"/>
<feGaussianBlur stdDeviation="2"/>
<feColorMatrix type="matrix" values="0 0 0 0 0 0 0 0 0 0 0 0 0 0 0 0 0 0 0.25 0"/>
<feBlend mode="normal" in2="BackgroundImageFix" result="effect1_dropShadow"/>
<feBlend mode="normal" in="SourceGraphic" in2="effect1_dropShadow" result="shape"/>
</filter>
</defs>
</svg>
