<svg width="140" height="140" viewBox="0 0 140 140" fill="none" xmlns="http://www.w3.org/2000/svg">
<circle cx="69.5" cy="72.5" r="52.5" fill="#FCF3F3"/>
<path d="M93.4224 76.382L80.9198 70.5936C79.2589 69.8247 78.1884 68.1089 78.1884 66.2156V57.3519L59.7915 57.3521V66.2159C59.7915 68.1092 58.7213 69.8247 57.0601 70.5936L44.5572 76.382C41.2352 77.9198 39.0945 81.3515 39.0945 85.138V110.052C39.0945 112.698 41.1537 114.843 43.6937 114.843H94.2859C96.8262 114.843 98.8851 112.698 98.8851 110.052V85.1383C98.8851 81.3518 96.7444 77.9201 93.4224 76.382Z" fill="#B48764"/>
<path d="M43.6937 114.843L94.2859 114.843C96.8262 114.843 98.8852 112.698 98.8852 110.052V85.1383C98.8852 81.3515 96.7442 77.9201 93.4224 76.382L81.0048 70.6333L72.2422 79.3959C70.446 81.1921 67.5339 81.1921 65.7377 79.3959L56.9749 70.633L44.557 76.382C41.235 77.9198 39.0942 81.3512 39.0942 85.138V110.052C39.0942 112.698 41.1535 114.843 43.6937 114.843Z" fill="#5D5360"/>
<path d="M59.7912 57.3519V66.2156C59.7912 67.0931 59.5407 67.921 59.1287 68.6457C62.0618 70.242 65.4218 71.1498 68.9899 71.1498C72.5577 71.1498 75.9174 70.2423 78.8509 68.6459C78.4385 67.9213 78.1884 67.0931 78.1884 66.2156V57.3519H59.7912Z" fill="#966D50"/>
<path d="M68.9899 66.5506C60.0993 66.5506 52.8923 59.3433 52.8923 50.4531V36.6551H85.0877V50.4531C85.0874 59.3433 77.8801 66.5506 68.9899 66.5506Z" fill="#C39772"/>
<path d="M62.0908 50.4528V36.6548H52.8921V50.4528C52.8921 59.3433 60.0994 66.5503 68.9896 66.5503C70.589 66.5503 72.1309 66.3091 73.5888 65.8749C66.9413 63.895 62.0908 57.744 62.0908 50.4528Z" fill="#B48764"/>
<path d="M71.2895 25.1565H66.6903C57.7998 25.1565 50.5928 32.3638 50.5928 41.2541V44.9329C50.5928 46.637 52.401 47.7941 53.9082 46.9993C56.2412 45.7688 58.9777 43.473 60.8166 40.9965C61.5593 39.9962 62.9872 39.848 63.9857 40.5932C71.283 46.0384 81.4469 44.7869 85.5559 43.9753C86.6267 43.7639 87.3876 42.8146 87.3876 41.7233V41.2543C87.3871 32.3638 80.1798 25.1565 71.2895 25.1565Z" fill="#5C414B"/>
<path d="M53.9082 46.9993C56.2412 45.7688 58.9775 43.473 60.8164 40.9965C61.0977 40.6175 61.4901 40.4012 61.9079 40.2691C58.6567 35.7435 58.435 30.6986 58.8389 27.2079C53.9211 29.9627 50.5925 35.2166 50.5925 41.2543V44.9332C50.5925 46.6372 52.4008 47.7944 53.9082 46.9993Z" fill="#503441"/>
<path d="M50.5926 94.7043C50.5926 92.8744 49.8658 91.1198 48.5719 89.8259L39.9222 81.1762C39.389 82.3979 39.0942 83.743 39.0942 85.1378V110.052C39.0942 112.698 41.1535 114.843 43.6935 114.843H50.5926V94.7043Z" fill="#6F6571"/>
<path d="M87.387 94.7043C87.387 92.8744 88.1138 91.1198 89.4077 89.8259L98.0573 81.1762C98.5905 82.3979 98.8853 83.743 98.8853 85.1378V110.052C98.8853 112.698 96.826 114.843 94.2861 114.843H87.387V94.7043Z" fill="#6F6571"/>
<path d="M66.6902 80.1068V114.843L71.2894 114.843V80.1068C69.8678 80.932 68.1121 80.932 66.6902 80.1068Z" fill="#6F6571"/>
</svg>
