<svg width="134" height="119" viewBox="0 0 134 119" fill="none" xmlns="http://www.w3.org/2000/svg">
<ellipse cx="66.5" cy="59.5" rx="60.5" ry="58.5" fill="#FBDEB4"/>
<path d="M89.4185 64.9247L77.4517 60.0046C75.862 59.351 74.8374 57.8926 74.8374 56.2833V48.7491L57.229 48.7493V56.2835C57.229 57.8928 56.2046 59.351 54.6146 60.0046L42.6476 64.9247C39.4679 66.2319 37.4189 69.1488 37.4189 72.3673V93.5445C37.4189 95.7936 39.39 97.6167 41.8211 97.6167H90.245C92.6764 97.6167 94.6471 95.7934 94.6471 93.5445V72.3676C94.6471 69.149 92.5981 66.2321 89.4185 64.9247Z" fill="#B48764"/>
<path d="M41.8211 97.617L90.2451 97.6167C92.6764 97.6167 94.6472 95.7934 94.6472 93.5445V72.3676C94.6472 69.1488 92.5979 66.2321 89.4185 64.9247L77.5331 60.0383L69.1461 67.4865C67.4269 69.0133 64.6395 69.0133 62.9203 67.4865L54.533 60.0381L42.6473 64.9247C39.4677 66.2319 37.4187 69.1485 37.4187 72.3673V93.5445C37.4187 95.7936 39.3897 97.617 41.8211 97.617Z" fill="#5D5360"/>
<path d="M57.2289 48.7491V56.2833C57.2289 57.0291 56.9891 57.7329 56.5947 58.3488C59.4022 59.7057 62.6182 60.4773 66.0334 60.4773C69.4483 60.4773 72.664 59.7059 75.4717 58.349C75.0771 57.7331 74.8376 57.0291 74.8376 56.2833V48.7491H57.2289Z" fill="#966D50"/>
<path d="M66.0331 56.568C57.5236 56.568 50.6255 50.4418 50.6255 42.8851V31.1568H81.441V42.8851C81.4408 50.4418 74.5424 56.568 66.0331 56.568Z" fill="#C39772"/>
<path d="M59.4297 42.8849V31.1566H50.6252V42.8849C50.6252 50.4418 57.5236 56.5678 66.0329 56.5678C67.5637 56.5678 69.0395 56.3628 70.435 55.9937C64.0724 54.3107 59.4297 49.0824 59.4297 42.8849Z" fill="#B48764"/>
<path d="M68.2343 21.383H63.8322C55.3227 21.383 48.4246 27.5092 48.4246 35.066V38.193C48.4246 39.6414 50.1553 40.625 51.5979 39.9494C53.8309 38.9035 56.4502 36.9521 58.2102 34.847C58.9211 33.9968 60.2878 33.8708 61.2435 34.5042C68.228 39.1326 77.9564 38.0688 81.8892 37.379C82.9141 37.1994 83.6425 36.3924 83.6425 35.4648V35.0662C83.642 27.5092 76.7436 21.383 68.2343 21.383Z" fill="#5C414B"/>
<path d="M51.5979 39.9494C53.8309 38.9035 56.4499 36.9521 58.21 34.847C58.4793 34.5249 58.8549 34.341 59.2548 34.2288C56.1429 30.382 55.9307 26.0938 56.3172 23.1267C51.6102 25.4683 48.4243 29.9341 48.4243 35.0662V38.1932C48.4243 39.6416 50.1551 40.6253 51.5979 39.9494Z" fill="#503441"/>
<path d="M48.4242 80.4986C48.4242 78.9433 47.7286 77.4518 46.4901 76.352L38.2112 68.9998C37.7008 70.0382 37.4187 71.1815 37.4187 72.3671V93.5442C37.4187 95.7934 39.3897 97.6167 41.8208 97.6167H48.4242V80.4986Z" fill="#6F6571"/>
<path d="M83.6416 80.4986C83.6416 78.9433 84.3373 77.4518 85.5757 76.352L93.8547 68.9998C94.365 70.0382 94.6471 71.1815 94.6471 72.3671V93.5442C94.6471 95.7934 92.6761 97.6167 90.245 97.6167H83.6416V80.4986Z" fill="#6F6571"/>
<path d="M63.8318 68.0908V97.6169L68.2339 97.6167V68.0908C66.8732 68.7922 65.1927 68.7922 63.8318 68.0908Z" fill="#6F6571"/>
</svg>
