<svg width="205" height="216" viewBox="0 0 205 216" fill="none" xmlns="http://www.w3.org/2000/svg">
<g filter="url(#filter0_d)">
<ellipse cx="95.5" cy="121" rx="91.5" ry="87" fill="#EE5B3E"/>
<path d="M186.5 121C186.5 168.749 145.782 207.5 95.5 207.5C45.218 207.5 4.5 168.749 4.5 121C4.5 73.2508 45.218 34.5 95.5 34.5C145.782 34.5 186.5 73.2508 186.5 121Z" stroke="#FE560E"/>
</g>
<path d="M48.6875 130.906H62.0625V163.719H48.6875V130.906Z" fill="#FF826E"/>
<path d="M68.75 134.187H82.125V163.719H68.75V134.187Z" fill="#FF826E"/>
<path d="M130.609 163.719H108.875V101.375H122.25V117.781H121.966C119.358 117.781 117.234 119.865 117.234 122.424C117.234 123.655 117.736 124.836 118.622 125.705L123.922 130.906L117.853 140.438C116.348 142.784 115.562 145.491 115.562 148.264V148.953C115.562 157.107 122.3 163.719 130.609 163.719Z" fill="#FF826E"/>
<path d="M88.8125 114.5H102.188V163.719H88.8125V114.5Z" fill="#FF826E"/>
<path d="M127.399 117.781C127.868 115.895 129.606 114.5 131.663 114.5H136.244C137.464 114.5 138.551 114.992 139.353 115.763C140.139 116.551 140.641 117.617 140.641 118.815C140.641 119.225 140.59 119.619 140.473 119.996L137.297 130.906H123.922L118.622 125.705C117.736 124.836 117.234 123.655 117.234 122.424C117.234 119.865 119.358 117.781 121.966 117.781H122.25H127.399Z" fill="#A0D468"/>
<path d="M123.922 130.906H137.297L143.366 140.438C144.87 142.784 145.656 145.491 145.656 148.264V148.953C145.656 153.022 143.968 156.73 141.243 159.387C138.534 162.062 134.756 163.719 130.609 163.719C122.3 163.719 115.562 157.107 115.562 148.953V148.264C115.562 145.491 116.348 142.784 117.853 140.438L123.922 130.906Z" fill="#B4DD7F"/>
<path d="M119.107 86.4125C120.01 87.2984 120.578 88.5289 120.578 89.8906C120.578 92.614 118.338 94.8125 115.562 94.8125C113.69 94.8125 112.068 93.8117 111.216 92.3351C110.798 91.6133 110.547 90.7765 110.547 89.8906C110.547 87.1672 112.787 84.9687 115.562 84.9687C116.95 84.9687 118.204 85.5265 119.107 86.4125Z" fill="#FCD770"/>
<path d="M96.5198 100.587C96.9378 101.293 97.1719 102.13 97.1719 103.016C97.1719 105.739 94.9316 107.937 92.1562 107.937C89.6652 107.937 87.592 106.149 87.2075 103.82C87.1573 103.557 87.1406 103.295 87.1406 103.016C87.1406 100.292 89.3809 98.0937 92.1562 98.0937C94.0287 98.0937 95.6672 99.0945 96.5198 100.587Z" fill="#FCD770"/>
<path d="M78.5472 105.247C78.6977 106.116 78.7812 107.019 78.7812 107.937C78.7812 116.994 71.2913 124.344 62.0625 124.344C52.8338 124.344 45.3438 116.994 45.3438 107.937C45.3438 98.8812 52.8338 91.5312 62.0625 91.5312C70.355 91.5312 77.2431 97.4703 78.5472 105.247Z" fill="#FCD770"/>
<path d="M60.3906 115.903V119.422H63.7344V115.903C65.6654 115.302 67.0781 113.548 67.0781 111.458C67.0781 109.675 66.0683 108.069 64.4399 107.27L61.1798 105.672C60.6932 105.432 60.3906 104.952 60.3906 104.417C60.3906 103.644 61.031 103.016 61.8184 103.016H62.3066C63.094 103.016 63.7344 103.644 63.7344 104.417V104.656H67.0781V104.417C67.0781 102.327 65.6654 100.573 63.7344 99.9723V96.4531H60.3906V99.9723C58.4596 100.573 57.0469 102.327 57.0469 104.417C57.0469 106.2 58.0567 107.806 59.6851 108.605L62.9452 110.203C63.4318 110.443 63.7344 110.923 63.7344 111.458C63.7344 112.231 63.094 112.859 62.3066 112.859H61.8184C61.031 112.859 60.3906 112.231 60.3906 111.458V109.578H57.0469V111.458C57.0469 113.548 58.4596 115.302 60.3906 115.903Z" fill="#554545"/>
<path d="M62.0625 125.984C72.2024 125.984 80.4531 117.888 80.4531 107.937C80.4531 107.488 80.418 107.047 80.3846 106.604L86.0556 105.675C87.0988 107.97 89.4361 109.578 92.1562 109.578C95.8444 109.578 98.8438 106.635 98.8438 103.016C98.8438 102.418 98.7351 101.851 98.5829 101.301L110.779 94.4614C111.995 95.6869 113.687 96.4531 115.562 96.4531C119.251 96.4531 122.25 93.5098 122.25 89.8906C122.25 88.6765 121.891 87.5544 121.302 86.5782L138.969 69.2417V78.4062H142.312V63.6406H127.266V66.9219H136.605L118.938 84.2583C117.943 83.6808 116.8 83.3281 115.562 83.3281C111.874 83.3281 108.875 86.2714 108.875 89.8906C108.875 90.4878 108.984 91.0555 109.136 91.6051L96.9395 98.4448C95.724 97.2193 94.0321 96.4531 92.1562 96.4531C88.6704 96.4531 85.8332 99.0929 85.5289 102.436L79.8329 103.368C77.7631 95.6262 70.5924 89.8906 62.0625 89.8906C51.9226 89.8906 43.6719 97.9871 43.6719 107.937C43.6719 117.888 51.9226 125.984 62.0625 125.984ZM115.562 86.6094C117.407 86.6094 118.906 88.081 118.906 89.8906C118.906 91.7002 117.407 93.1719 115.562 93.1719C113.718 93.1719 112.219 91.7002 112.219 89.8906C112.219 88.081 113.718 86.6094 115.562 86.6094ZM92.1562 99.7344C94.0003 99.7344 95.5 101.206 95.5 103.016C95.5 104.825 94.0003 106.297 92.1562 106.297C90.3122 106.297 88.8125 104.825 88.8125 103.016C88.8125 101.206 90.3122 99.7344 92.1562 99.7344ZM62.0625 93.1719C70.3583 93.1719 77.1094 99.7967 77.1094 107.937C77.1094 116.078 70.3583 122.703 62.0625 122.703C53.7667 122.703 47.0156 116.078 47.0156 107.937C47.0156 99.7967 53.7667 93.1719 62.0625 93.1719Z" fill="#554545"/>
<path d="M47.0156 165.359H63.7344V129.266H47.0156V165.359ZM50.3594 132.547H60.3906V162.078H50.3594V132.547Z" fill="#554545"/>
<path d="M67.0781 165.359H83.7969V132.547H67.0781V165.359ZM70.4219 135.828H80.4531V162.078H70.4219V135.828Z" fill="#554545"/>
<path d="M87.1406 165.359H103.859V112.859H87.1406V165.359ZM90.4844 116.141H100.516V162.078H90.4844V116.141Z" fill="#554545"/>
<path d="M132.281 139.347V135.828H128.938V139.347C127.006 139.948 125.594 141.702 125.594 143.792C125.594 145.575 126.604 147.18 128.232 147.98L131.492 149.58C131.979 149.818 132.281 150.298 132.281 150.833C132.281 151.604 131.641 152.234 130.853 152.234H130.365C129.578 152.234 128.938 151.604 128.938 150.833V148.953H125.594V150.833C125.594 152.925 127.006 154.679 128.938 155.278V158.797H132.281V155.278C134.212 154.677 135.625 152.923 135.625 150.833C135.625 149.05 134.615 147.445 132.987 146.645L129.727 145.045C129.24 144.807 128.938 144.327 128.938 143.792C128.938 143.021 129.578 142.391 130.365 142.391H130.853C131.641 142.391 132.281 143.021 132.281 143.792V144.031H135.625V143.792C135.625 141.702 134.212 139.948 132.281 139.347Z" fill="#554545"/>
<path d="M144.787 139.57L139.109 130.655L142.08 120.452C142.234 119.919 142.312 119.369 142.312 118.818C142.312 115.532 139.589 112.859 136.242 112.859H131.666C129.304 112.859 127.276 114.203 126.273 116.141H123.922V99.7344H107.203V165.359H130.609C139.828 165.359 147.328 158 147.328 148.953V148.266C147.328 145.186 146.449 142.181 144.787 139.57ZM128.938 118.818C128.938 117.342 130.161 116.141 131.664 116.141H136.24C137.745 116.141 138.969 117.342 138.969 118.818C138.969 119.066 138.934 119.314 138.863 119.553L136.036 129.266H124.614L119.801 124.542C119.232 123.983 118.906 123.212 118.906 122.421C118.906 120.767 120.277 119.422 121.964 119.422H125.594V122.703H128.938V118.818ZM110.547 162.078V103.016H120.578V116.298C117.714 116.922 115.562 119.427 115.562 122.421C115.562 124.099 116.228 125.676 117.438 126.862L121.8 131.142L116.434 139.57C114.77 142.181 113.891 145.186 113.891 148.266V148.953C113.891 154.323 116.546 159.084 120.622 162.078H110.547ZM143.984 148.953C143.984 156.19 137.984 162.078 130.609 162.078C123.235 162.078 117.234 156.19 117.234 148.953V148.266C117.234 145.803 117.937 143.398 119.267 141.311L124.848 132.547H136.371L141.951 141.311C143.282 143.398 143.984 145.803 143.984 148.266V148.953Z" fill="#554545"/>
<path d="M23.4461 56.2288L21.4368 54.2431L22.8778 52.785L14.4848 44.4906L13.0438 45.9487L11.0344 43.9629L16.4293 38.5039L18.4387 40.4897L16.9977 41.9478L25.3907 50.2422L26.8317 48.7841L28.841 50.7698L23.4461 56.2288Z" fill="#EE5B3B"/>
<path d="M62.235 33.9884L56.1622 17.6292L66.0059 13.9751L67.0934 16.9047L60.6013 19.3147L61.9759 23.0178L67.4837 20.9732L68.5625 23.8794L63.0547 25.924L65.5865 32.7442L62.235 33.9884Z" fill="#EE5B3B"/>
<path d="M88.5292 27.2959C87.4816 27.3671 86.523 27.2736 85.6535 27.0153C84.7829 26.7403 84.024 26.2657 83.3767 25.5914C82.7284 24.9004 82.1995 24.0009 81.7901 22.8927C81.3796 21.768 81.1189 20.3908 81.0082 18.7612C80.8974 17.1317 80.9699 15.7402 81.2257 14.5869C81.4802 13.4169 81.8826 12.4541 82.4326 11.6984C82.9815 10.9261 83.6692 10.3531 84.4958 9.97956C85.3212 9.58936 86.2577 9.35867 87.3053 9.28747C88.3529 9.21628 89.312 9.31815 90.1827 9.59308C91.0522 9.85139 91.8111 10.326 92.4595 11.017C93.1067 11.6913 93.6355 12.5909 94.0461 13.7156C94.4555 14.8237 94.7156 16.1926 94.8263 17.8222C94.9371 19.4517 94.8651 20.8515 94.6105 22.0215C94.3548 23.1748 93.9525 24.1376 93.4036 24.9099C92.8536 25.6656 92.1659 26.2386 91.3404 26.6288C90.5138 27.0024 89.5768 27.2247 88.5292 27.2959ZM88.3156 24.1532C89.3133 24.0854 90.0579 23.7341 90.5493 23.0993C91.0573 22.4634 91.2707 21.5468 91.1893 20.3496L90.8808 15.8101C90.7994 14.6128 90.4641 13.7335 89.8746 13.1722C89.3018 12.6097 88.5166 12.3624 87.5189 12.4302C86.5212 12.498 85.7683 12.8499 85.2603 13.4858C84.7689 14.1206 84.5638 15.0366 84.6452 16.2338L84.9537 20.7734C85.0351 21.9706 85.3621 22.8504 85.9349 23.4129C86.5243 23.9742 87.3179 24.221 88.3156 24.1532Z" fill="#EE5B3B"/>
<path d="M149.466 31.8115L151.318 29.5386L150.991 29.3077L148.511 30.953L142.492 34.4434L143.796 27.6191L144.52 24.7326L144.193 24.5017L142.668 27.0056L137.415 34.436L134.679 32.5021L144.753 18.2535L147.815 20.4184L146.752 26.0355L145.664 29.8275L145.868 29.9719L149.08 27.6808L153.98 24.777L157.022 26.9274L146.948 41.176L144.212 39.242L149.466 31.8115Z" fill="#EE5B3B"/>
<path d="M159.604 47.8511L171.586 35.1655L179.438 42.5815L177.292 44.8533L172.039 39.8921L169.327 42.7636L173.78 46.9695L171.651 49.2231L167.198 45.0173L164.349 48.0342L169.601 52.9954L167.455 55.2671L159.604 47.8511Z" fill="#EE5B3B"/>
<path d="M177.963 70.0914C176.515 67.9116 176.145 65.6967 176.851 63.4468L180.04 64.0906C179.524 65.6336 179.713 67.0785 180.607 68.4253C181.529 69.8137 182.601 70.1023 183.823 69.291C184.323 68.9591 184.629 68.5759 184.74 68.1416C184.852 67.7073 184.788 67.1895 184.549 66.5881L183.914 65.0893C183.27 63.5765 183.076 62.2749 183.332 61.1845C183.611 60.0987 184.362 59.1502 185.584 58.3388C187 57.3985 188.352 57.1005 189.641 57.4449C190.931 57.7893 192.11 58.7669 193.179 60.3775C194.544 62.4324 194.914 64.4369 194.291 66.3911L191.103 65.7473C191.308 65.0913 191.362 64.465 191.266 63.8686C191.193 63.2768 190.954 62.6754 190.548 62.0645C190.106 61.398 189.658 60.995 189.205 60.8555C188.762 60.7299 188.262 60.8515 187.707 61.2203C187.221 61.5429 186.927 61.8983 186.824 62.2864C186.731 62.6884 186.8 63.1832 187.03 63.7706L187.644 65.2833C187.961 66.0929 188.175 66.8213 188.285 67.4686C188.418 68.1207 188.424 68.717 188.302 69.2576C188.19 69.8121 187.951 70.3109 187.585 70.754C187.229 71.2109 186.745 71.6422 186.134 72.0479C184.579 73.0805 183.101 73.4314 181.701 73.1006C180.315 72.7606 179.069 71.7576 177.963 70.0914Z" fill="#EE5B3B"/>
<path d="M111.973 28.6013L108.466 27.9078L111.851 10.7892L119.257 12.2536C120.794 12.5575 121.868 13.271 122.478 14.394C123.089 15.5171 123.234 16.888 122.914 18.5066C122.665 19.7656 122.218 20.7815 121.572 21.5543C120.927 22.3271 120.104 22.7931 119.104 22.9521L120.753 30.3372L116.952 29.5856L115.583 22.5873L113.253 22.1266L111.973 28.6013ZM117.288 19.8918C117.763 19.9856 118.153 19.9438 118.46 19.7667C118.786 19.5764 119.008 19.1869 119.124 18.5983L119.415 17.1268C119.532 16.5382 119.473 16.102 119.241 15.8181C119.028 15.5211 118.684 15.3258 118.21 15.232L114.752 14.5483L113.83 19.2081L117.288 19.8918ZM105.573 60.9745L102.065 60.2811L105.45 43.1625L112.857 44.6269C114.394 44.9308 115.467 45.6443 116.078 46.7673C116.688 47.8904 116.833 49.2613 116.513 50.8799C116.264 52.1389 115.817 53.1548 115.172 53.9276C114.526 54.7004 113.703 55.1663 112.704 55.3254L114.353 62.7105L110.551 61.9589L109.183 54.9605L106.853 54.4999L105.573 60.9745ZM110.888 52.2651C111.362 52.3589 111.752 52.3171 112.059 52.14C112.386 51.9497 112.607 51.5602 112.724 50.9716L113.014 49.5001C113.131 48.9115 113.073 48.4753 112.84 48.1914C112.627 47.8944 112.283 47.6991 111.809 47.6053L108.351 46.9216L107.43 51.5814L110.888 52.2651Z" fill="#EE5B3B"/>
<path d="M39.2631 34.1395L36.826 32.4158L36.491 32.6342L38.256 34.9752L43.2808 42.6818L40.4745 44.5115L30.9439 29.894L34.2109 27.764L43.0033 33.1931L45.4404 34.9169L45.7754 34.6984L44.0104 32.3574L38.9856 24.6508L41.7919 22.8212L51.3225 37.4386L48.0555 39.5687L39.2631 34.1395Z" fill="#EE5B3B"/>
<defs>
<filter id="filter0_d" x="0" y="34" width="191" height="182" filterUnits="userSpaceOnUse" color-interpolation-filters="sRGB">
<feFlood flood-opacity="0" result="BackgroundImageFix"/>
<feColorMatrix in="SourceAlpha" type="matrix" values="0 0 0 0 0 0 0 0 0 0 0 0 0 0 0 0 0 0 127 0"/>
<feOffset dy="4"/>
<feGaussianBlur stdDeviation="2"/>
<feColorMatrix type="matrix" values="0 0 0 0 0 0 0 0 0 0 0 0 0 0 0 0 0 0 0.25 0"/>
<feBlend mode="normal" in2="BackgroundImageFix" result="effect1_dropShadow"/>
<feBlend mode="normal" in="SourceGraphic" in2="effect1_dropShadow" result="shape"/>
</filter>
</defs>
</svg>
