<svg width="287" height="60" viewBox="0 0 287 60" fill="none" xmlns="http://www.w3.org/2000/svg">
<rect x="10" width="277" height="54" rx="8" fill="#F5C64C" fill-opacity="0.77"/>
<rect y="6" width="277" height="54" rx="8" fill="#F19C38"/>
<path d="M32.1431 28.926H36.1731C36.9011 28.926 37.4384 29.1383 37.7851 29.563C38.1404 29.9877 38.3181 30.551 38.3181 31.253C38.3181 31.6343 38.2704 31.9507 38.1751 32.202C38.0884 32.4447 37.9714 32.6397 37.8241 32.787C37.6854 32.9257 37.5251 33.0297 37.3431 33.099C37.1611 33.1597 36.9748 33.1943 36.7841 33.203V33.411C36.9921 33.411 37.2044 33.4457 37.4211 33.515C37.6464 33.5843 37.8501 33.7013 38.0321 33.866C38.2141 34.022 38.3614 34.23 38.4741 34.49C38.5868 34.7413 38.6431 35.049 38.6431 35.413C38.6431 35.7683 38.5954 36.1063 38.5001 36.427C38.4048 36.739 38.2661 37.012 38.0841 37.246C37.9021 37.48 37.6811 37.6663 37.4211 37.805C37.1611 37.935 36.8664 38 36.5371 38H32.1431V28.926ZM34.0021 36.427H36.0171C36.2251 36.427 36.3898 36.3663 36.5111 36.245C36.6411 36.1237 36.7061 35.92 36.7061 35.634V34.984C36.7061 34.698 36.6411 34.4943 36.5111 34.373C36.3898 34.2517 36.2251 34.191 36.0171 34.191H34.0021V36.427ZM34.0021 32.657H35.7181C35.9348 32.657 36.1038 32.5963 36.2251 32.475C36.3464 32.3537 36.4071 32.1543 36.4071 31.877V31.279C36.4071 31.0017 36.3464 30.8023 36.2251 30.681C36.1038 30.5597 35.9348 30.499 35.7181 30.499H34.0021V32.657ZM44.3704 28.926V34.815C44.3704 35.413 44.4701 35.8463 44.6694 36.115C44.8774 36.375 45.2457 36.505 45.7744 36.505C46.3031 36.505 46.6671 36.375 46.8664 36.115C47.0744 35.8463 47.1784 35.413 47.1784 34.815V28.926H49.0374V34.568C49.0374 35.2093 48.9811 35.7553 48.8684 36.206C48.7557 36.6567 48.5694 37.0293 48.3094 37.324C48.0581 37.61 47.7244 37.8223 47.3084 37.961C46.8924 38.091 46.3811 38.156 45.7744 38.156C45.1677 38.156 44.6564 38.091 44.2404 37.961C43.8244 37.8223 43.4864 37.61 43.2264 37.324C42.9751 37.0293 42.7931 36.6567 42.6804 36.206C42.5677 35.7553 42.5114 35.2093 42.5114 34.568V28.926H44.3704ZM56.0039 38.156C54.6432 38.156 53.5772 37.6793 52.8059 36.726L54.0019 35.53C54.5219 36.1973 55.2022 36.531 56.0429 36.531C56.9095 36.531 57.3429 36.1497 57.3429 35.387C57.3429 35.075 57.2649 34.8323 57.1089 34.659C56.9529 34.4857 56.7102 34.3643 56.3809 34.295L55.5489 34.139C54.7082 33.983 54.0885 33.6927 53.6899 33.268C53.2999 32.8347 53.1049 32.2367 53.1049 31.474C53.1049 30.59 53.3649 29.9183 53.8849 29.459C54.4049 28.9997 55.1675 28.77 56.1729 28.77C57.4555 28.77 58.4305 29.186 59.0979 30.018L57.9019 31.214C57.6765 30.9367 57.4209 30.733 57.1349 30.603C56.8575 30.4643 56.5282 30.395 56.1469 30.395C55.7309 30.395 55.4275 30.473 55.2369 30.629C55.0549 30.785 54.9639 31.0363 54.9639 31.383C54.9639 31.6863 55.0332 31.916 55.1719 32.072C55.3192 32.228 55.5532 32.3407 55.8739 32.41L56.7059 32.579C57.1479 32.6743 57.5249 32.7913 57.8369 32.93C58.1575 33.06 58.4175 33.229 58.6169 33.437C58.8249 33.645 58.9722 33.892 59.0589 34.178C59.1542 34.464 59.2019 34.7977 59.2019 35.179C59.2019 36.1497 58.9289 36.8907 58.3829 37.402C57.8369 37.9047 57.0439 38.156 56.0039 38.156ZM68.6875 40.353H67.4915C66.8242 40.353 66.3562 40.21 66.0875 39.924C65.8275 39.6467 65.6975 39.2133 65.6975 38.624V38.091C65.2642 38.0217 64.8742 37.883 64.5275 37.675C64.1808 37.4583 63.8818 37.1637 63.6305 36.791C63.3878 36.4097 63.1972 35.946 63.0585 35.4C62.9285 34.854 62.8635 34.2083 62.8635 33.463C62.8635 32.6137 62.9502 31.8943 63.1235 31.305C63.2968 30.707 63.5395 30.2217 63.8515 29.849C64.1635 29.4677 64.5405 29.1947 64.9825 29.03C65.4245 28.8567 65.9185 28.77 66.4645 28.77C67.0105 28.77 67.5045 28.8567 67.9465 29.03C68.3885 29.1947 68.7655 29.4677 69.0775 29.849C69.3895 30.2217 69.6322 30.707 69.8055 31.305C69.9788 31.8943 70.0655 32.6137 70.0655 33.463C70.0655 34.1823 70.0005 34.8107 69.8705 35.348C69.7492 35.8767 69.5715 36.3273 69.3375 36.7C69.1122 37.0727 68.8348 37.3717 68.5055 37.597C68.1848 37.8223 67.8208 37.9783 67.4135 38.065V38.858H68.6875V40.353ZM66.4645 36.518C66.9845 36.518 67.3832 36.362 67.6605 36.05C67.9465 35.738 68.0895 35.27 68.0895 34.646V32.28C68.0895 31.656 67.9465 31.188 67.6605 30.876C67.3832 30.564 66.9845 30.408 66.4645 30.408C65.9445 30.408 65.5415 30.564 65.2555 30.876C64.9782 31.188 64.8395 31.656 64.8395 32.28V34.646C64.8395 35.27 64.9782 35.738 65.2555 36.05C65.5415 36.362 65.9445 36.518 66.4645 36.518ZM75.9233 28.926V34.815C75.9233 35.413 76.023 35.8463 76.2223 36.115C76.4303 36.375 76.7987 36.505 77.3273 36.505C77.856 36.505 78.22 36.375 78.4193 36.115C78.6273 35.8463 78.7313 35.413 78.7313 34.815V28.926H80.5903V34.568C80.5903 35.2093 80.534 35.7553 80.4213 36.206C80.3087 36.6567 80.1223 37.0293 79.8623 37.324C79.611 37.61 79.2773 37.8223 78.8613 37.961C78.4453 38.091 77.934 38.156 77.3273 38.156C76.7207 38.156 76.2093 38.091 75.7933 37.961C75.3773 37.8223 75.0393 37.61 74.7793 37.324C74.528 37.0293 74.346 36.6567 74.2333 36.206C74.1207 35.7553 74.0643 35.2093 74.0643 34.568V28.926H75.9233ZM84.9048 38V28.926H90.5208V30.551H86.7638V32.605H89.9488V34.217H86.7638V36.375H90.5208V38H84.9048ZM94.6396 28.926H97.8246C98.3792 28.926 98.8732 29.0127 99.3066 29.186C99.7486 29.3507 100.121 29.615 100.425 29.979C100.728 30.343 100.962 30.811 101.127 31.383C101.291 31.955 101.374 32.6483 101.374 33.463C101.374 34.2777 101.291 34.971 101.127 35.543C100.962 36.115 100.728 36.583 100.425 36.947C100.121 37.311 99.7486 37.5797 99.3066 37.753C98.8732 37.9177 98.3792 38 97.8246 38H94.6396V28.926ZM97.8246 36.375C98.8732 36.375 99.3976 35.7683 99.3976 34.555V32.371C99.3976 31.1577 98.8732 30.551 97.8246 30.551H96.4986V36.375H97.8246ZM110.003 38L109.444 35.777H106.662L106.103 38H104.322L106.896 28.926H109.262L111.836 38H110.003ZM108.43 32.189L108.144 30.616H107.936L107.65 32.189L107.117 34.282H108.989L108.43 32.189ZM120.937 38V28.926H124.863C125.677 28.926 126.297 29.186 126.722 29.706C127.146 30.226 127.359 30.9193 127.359 31.786C127.359 32.6527 127.146 33.346 126.722 33.866C126.297 34.386 125.677 34.646 124.863 34.646H122.796V38H120.937ZM122.796 33.021H124.629C124.88 33.021 125.075 32.956 125.214 32.826C125.361 32.696 125.435 32.4793 125.435 32.176V31.396C125.435 31.0927 125.361 30.876 125.214 30.746C125.075 30.616 124.88 30.551 124.629 30.551H122.796V33.021ZM134.557 38.156C134.011 38.156 133.517 38.0737 133.075 37.909C132.633 37.7357 132.256 37.4627 131.944 37.09C131.632 36.7087 131.389 36.2233 131.216 35.634C131.043 35.036 130.956 34.3123 130.956 33.463C130.956 32.6137 131.043 31.8943 131.216 31.305C131.389 30.707 131.632 30.2217 131.944 29.849C132.256 29.4677 132.633 29.1947 133.075 29.03C133.517 28.8567 134.011 28.77 134.557 28.77C135.103 28.77 135.597 28.8567 136.039 29.03C136.481 29.1947 136.858 29.4677 137.17 29.849C137.482 30.2217 137.725 30.707 137.898 31.305C138.071 31.8943 138.158 32.6137 138.158 33.463C138.158 34.3123 138.071 35.036 137.898 35.634C137.725 36.2233 137.482 36.7087 137.17 37.09C136.858 37.4627 136.481 37.7357 136.039 37.909C135.597 38.0737 135.103 38.156 134.557 38.156ZM134.557 36.518C135.077 36.518 135.476 36.362 135.753 36.05C136.039 35.738 136.182 35.27 136.182 34.646V32.28C136.182 31.656 136.039 31.188 135.753 30.876C135.476 30.564 135.077 30.408 134.557 30.408C134.037 30.408 133.634 30.564 133.348 30.876C133.071 31.188 132.932 31.656 132.932 32.28V34.646C132.932 35.27 133.071 35.738 133.348 36.05C133.634 36.362 134.037 36.518 134.557 36.518ZM144.068 38H142.209V28.926H146.135C146.95 28.926 147.569 29.1817 147.994 29.693C148.419 30.2043 148.631 30.889 148.631 31.747C148.631 32.4143 148.505 32.9777 148.254 33.437C148.003 33.8963 147.63 34.217 147.136 34.399L148.722 38H146.707L145.303 34.568H144.068V38ZM145.901 33.021C146.152 33.021 146.347 32.9603 146.486 32.839C146.633 32.709 146.707 32.488 146.707 32.176V31.396C146.707 31.084 146.633 30.8673 146.486 30.746C146.347 30.616 146.152 30.551 145.901 30.551H144.068V33.021H145.901ZM161.426 38.156C160.88 38.156 160.382 38.0737 159.931 37.909C159.489 37.7443 159.108 37.48 158.787 37.116C158.475 36.752 158.228 36.2753 158.046 35.686C157.873 35.0967 157.786 34.3773 157.786 33.528C157.786 32.6787 157.873 31.955 158.046 31.357C158.228 30.7503 158.475 30.2563 158.787 29.875C159.108 29.4937 159.489 29.2163 159.931 29.043C160.382 28.861 160.88 28.77 161.426 28.77C162.241 28.77 162.882 28.9477 163.35 29.303C163.827 29.6497 164.217 30.1783 164.52 30.889L162.908 31.721C162.856 31.5303 162.796 31.3527 162.726 31.188C162.666 31.0233 162.579 30.8847 162.466 30.772C162.354 30.6593 162.211 30.5727 162.037 30.512C161.873 30.4427 161.669 30.408 161.426 30.408C160.906 30.408 160.499 30.564 160.204 30.876C159.91 31.188 159.762 31.656 159.762 32.28V34.646C159.762 35.27 159.91 35.738 160.204 36.05C160.499 36.362 160.906 36.518 161.426 36.518C161.669 36.518 161.877 36.4833 162.05 36.414C162.232 36.336 162.384 36.2363 162.505 36.115C162.627 35.985 162.726 35.8377 162.804 35.673C162.882 35.4997 162.952 35.3133 163.012 35.114L164.546 35.998C164.39 36.336 164.217 36.6393 164.026 36.908C163.836 37.1767 163.615 37.4063 163.363 37.597C163.121 37.779 162.839 37.9177 162.518 38.013C162.198 38.1083 161.834 38.156 161.426 38.156ZM173.309 38L172.75 35.777H169.968L169.409 38H167.628L170.202 28.926H172.568L175.142 38H173.309ZM171.736 32.189L171.45 30.616H171.242L170.956 32.189L170.423 34.282H172.295L171.736 32.189ZM181.623 30.551V38H179.764V30.551H177.593V28.926H183.794V30.551H181.623ZM187.607 38V28.926H193.223V30.551H189.466V32.605H192.651V34.217H189.466V36.375H193.223V38H187.607ZM202.516 36.57H202.308C202.247 37.038 202.039 37.4193 201.684 37.714C201.337 38.0087 200.865 38.156 200.267 38.156C199.834 38.156 199.422 38.0737 199.032 37.909C198.642 37.7443 198.3 37.48 198.005 37.116C197.71 36.752 197.472 36.2753 197.29 35.686C197.117 35.088 197.03 34.36 197.03 33.502C197.03 32.644 197.117 31.916 197.29 31.318C197.463 30.72 197.706 30.2347 198.018 29.862C198.33 29.4807 198.707 29.2033 199.149 29.03C199.591 28.8567 200.085 28.77 200.631 28.77C201.446 28.77 202.122 28.9477 202.659 29.303C203.196 29.6497 203.617 30.1697 203.92 30.863L202.399 31.734C202.278 31.3267 202.074 31.006 201.788 30.772C201.502 30.5293 201.112 30.408 200.618 30.408C200.124 30.408 199.73 30.564 199.435 30.876C199.149 31.188 199.006 31.656 199.006 32.28V34.646C199.006 35.27 199.153 35.738 199.448 36.05C199.743 36.3533 200.15 36.505 200.67 36.505C201.138 36.505 201.524 36.388 201.827 36.154C202.139 35.9113 202.295 35.556 202.295 35.088V34.555H200.8V32.995H204.076V38H202.516V36.57ZM211.635 38.156C211.089 38.156 210.595 38.0737 210.153 37.909C209.711 37.7357 209.334 37.4627 209.022 37.09C208.71 36.7087 208.468 36.2233 208.294 35.634C208.121 35.036 208.034 34.3123 208.034 33.463C208.034 32.6137 208.121 31.8943 208.294 31.305C208.468 30.707 208.71 30.2217 209.022 29.849C209.334 29.4677 209.711 29.1947 210.153 29.03C210.595 28.8567 211.089 28.77 211.635 28.77C212.181 28.77 212.675 28.8567 213.117 29.03C213.559 29.1947 213.936 29.4677 214.248 29.849C214.56 30.2217 214.803 30.707 214.976 31.305C215.15 31.8943 215.236 32.6137 215.236 33.463C215.236 34.3123 215.15 35.036 214.976 35.634C214.803 36.2233 214.56 36.7087 214.248 37.09C213.936 37.4627 213.559 37.7357 213.117 37.909C212.675 38.0737 212.181 38.156 211.635 38.156ZM211.635 36.518C212.155 36.518 212.554 36.362 212.831 36.05C213.117 35.738 213.26 35.27 213.26 34.646V32.28C213.26 31.656 213.117 31.188 212.831 30.876C212.554 30.564 212.155 30.408 211.635 30.408C211.115 30.408 210.712 30.564 210.426 30.876C210.149 31.188 210.01 31.656 210.01 32.28V34.646C210.01 35.27 210.149 35.738 210.426 36.05C210.712 36.362 211.115 36.518 211.635 36.518ZM221.146 38H219.287V28.926H223.213C224.028 28.926 224.648 29.1817 225.072 29.693C225.497 30.2043 225.709 30.889 225.709 31.747C225.709 32.4143 225.584 32.9777 225.332 33.437C225.081 33.8963 224.708 34.217 224.214 34.399L225.8 38H223.785L222.381 34.568H221.146V38ZM222.979 33.021C223.231 33.021 223.426 32.9603 223.564 32.839C223.712 32.709 223.785 32.488 223.785 32.176V31.396C223.785 31.084 223.712 30.8673 223.564 30.746C223.426 30.616 223.231 30.551 222.979 30.551H221.146V33.021H222.979ZM229.523 38V36.531H230.589V30.395H229.523V28.926H233.514V30.395H232.448V36.531H233.514V38H229.523ZM231.733 28.38L230.667 27.873L231.863 25.299L233.41 26.053L231.733 28.38ZM242.646 38L242.087 35.777H239.305L238.746 38H236.965L239.539 28.926H241.905L244.479 38H242.646ZM241.073 32.189L240.787 30.616H240.579L240.293 32.189L239.76 34.282H241.632L241.073 32.189Z" fill="#FCF6F4"/>
</svg>
