<svg width="216" height="216" viewBox="0 0 216 216" fill="none" xmlns="http://www.w3.org/2000/svg">
<path d="M24.1277 66.0084L21.75 64.4829L22.8571 62.7575L12.9256 56.3852L11.8185 58.1106L9.44085 56.5851L13.5855 50.1254L15.9632 51.6509L14.8561 53.3763L24.7876 59.7486L25.8947 58.0232L28.2723 59.5487L24.1277 66.0084Z" fill="#EE5B3B"/>
<path d="M147.023 40.0058L148.596 35.8878L144.215 32.8177L140.881 35.7018L138.076 33.7363L152.144 22.2862L155.87 24.8973L149.91 42.0286L147.023 40.0058ZM150.959 29.118L152.244 26.3251L151.917 26.0955L149.73 28.2572L146.581 30.9653L149.529 33.0312L150.959 29.118Z" fill="#EE5B3B"/>
<path d="M189.144 84.0538C188.571 83.1737 188.185 82.2911 187.987 81.406C187.803 80.5117 187.848 79.6177 188.121 78.7239C188.409 77.821 188.936 76.9209 189.704 76.0233C190.487 75.1167 191.562 74.218 192.931 73.3272C194.3 72.4363 195.55 71.8215 196.682 71.4828C197.828 71.135 198.865 71.0171 199.793 71.1291C200.735 71.232 201.57 71.5534 202.299 72.0931C203.042 72.6237 203.7 73.3291 204.273 74.2092C204.845 75.0892 205.224 75.9764 205.408 76.8706C205.606 77.7558 205.561 78.6498 205.274 79.5527C205.001 80.4465 204.473 81.3467 203.691 82.2533C202.923 83.1508 201.854 84.045 200.485 84.9358C199.116 85.8266 197.859 86.446 196.713 86.7938C195.581 87.1326 194.544 87.2505 193.602 87.1475C192.675 87.0355 191.839 86.7142 191.096 86.1835C190.367 85.6438 189.716 84.9339 189.144 84.0538ZM191.784 82.3358C192.329 83.1739 192.999 83.6529 193.793 83.7727C194.595 83.9064 195.5 83.6461 196.506 82.9916L200.319 80.51C201.325 79.8555 201.929 79.1341 202.132 78.3459C202.344 77.5716 202.178 76.7654 201.632 75.9272C201.087 75.089 200.413 74.6031 199.61 74.4693C198.816 74.3495 197.916 74.6169 196.91 75.2714L193.097 77.753C192.091 78.4075 191.482 79.1219 191.27 79.8962C191.067 80.6844 191.238 81.4976 191.784 82.3358Z" fill="#EE5B3B"/>
<path d="M176.299 64.0386L178.637 62.4524L179.788 64.1487L189.552 57.523L188.401 55.8267L190.738 54.2404L195.048 60.5913L192.71 62.1776L191.559 60.4812L181.795 67.1069L182.946 68.8033L180.608 70.3895L176.299 64.0386Z" fill="#EE5B3B"/>
<path d="M162.238 49.0775L159.762 46.4983L172.352 34.4145L177.58 39.8614C178.665 40.9916 179.135 42.1918 178.991 43.4619C178.847 44.732 178.18 45.9384 176.99 47.081C176.064 47.9697 175.115 48.5455 174.143 48.8085C173.171 49.0715 172.23 48.9815 171.32 48.5385L168.436 55.5343L165.752 52.7387L168.644 46.2205L167 44.5071L162.238 49.0775ZM171.587 44.99C171.922 45.3387 172.265 45.5285 172.618 45.5593C172.995 45.5905 173.4 45.3984 173.833 44.983L174.915 43.9442C175.348 43.5287 175.55 43.138 175.522 42.772C175.518 42.4065 175.348 42.0494 175.014 41.7007L172.573 39.1577L169.146 42.447L171.587 44.99Z" fill="#EE5B3B"/>
<path d="M126.578 15.3905L124.009 29.4832L120.492 28.842L123.061 14.7493L118.954 14.0004L119.515 10.9261L131.246 13.065L130.686 16.1393L126.578 15.3905Z" fill="#EE5B3B"/>
<path d="M57.5683 36.2207L55.3207 18.1731L51.9267 19.6465L53.5793 30.4848L54.5083 34.0061L54.1414 34.1653L52.2033 31.0821L45.4598 22.4538L42.1575 23.8874L53.7156 37.8932L57.5683 36.2207Z" fill="#EE5B3B"/>
<path d="M68.3072 12.677L69.2214 30.1031L80.0065 29.5373L79.8428 26.4166L72.6277 26.7951L72.4208 22.8505L78.5374 22.5297L78.375 19.4339L72.2584 19.7548L72.041 15.6105L79.2561 15.232L79.0924 12.1113L68.3072 12.677Z" fill="#EE5B3B"/>
<path d="M30.611 42.6205L27.8414 41.5071L27.5659 41.7971L29.8245 43.6664L36.4953 50.0021L34.1883 52.4311L21.5355 40.414L24.2213 37.5862L34.031 40.8348L36.8006 41.9482L37.0761 41.6582L34.8174 39.7888L28.1466 33.4532L30.4536 31.0242L43.1064 43.0412L40.4207 45.8691L30.611 42.6205Z" fill="#EE5B3B"/>
<path d="M98.0518 17.1512L96.8051 14.4389L96.4057 14.4603L96.7617 17.3704L97.2531 26.5573L93.9078 26.7362L92.9758 9.31114L96.8702 9.10283L101.763 18.2045L103.01 20.9168L103.409 20.8954L103.053 17.9852L102.562 8.79838L105.907 8.61945L106.839 26.0445L102.945 26.2528L98.0518 17.1512Z" fill="#EE5B3B"/>
<g filter="url(#filter0_dd)">
<ellipse cx="101.5" cy="121" rx="91.5" ry="87" fill="#EE5B3B"/>
<path d="M191 121C191 167.85 151.026 206 101.5 206C51.9743 206 12 167.85 12 121C12 74.1496 51.9743 36 101.5 36C151.026 36 191 74.1496 191 121Z" stroke="#FE560E" stroke-width="4"/>
</g>
<g filter="url(#filter1_d)">
<path d="M159.242 144.742V166.806C159.242 168.829 157.515 170.484 155.403 170.484H132.371C130.26 170.484 128.532 168.829 128.532 166.806V144.742C128.532 142.719 130.26 141.065 132.371 141.065H136.21H140.048V148.419H147.726V141.065H155.403C157.515 141.065 159.242 142.719 159.242 144.742Z" fill="#D3A06C"/>
<path d="M163.081 137.387C163.081 139.41 161.353 141.065 159.242 141.065H155.403H147.726H140.048H136.21C134.098 141.065 132.371 139.41 132.371 137.387V115.323C132.371 113.3 134.098 111.645 136.21 111.645H143.887V119H151.565V111.645H155.403H159.242C161.353 111.645 163.081 113.3 163.081 115.323V137.387Z" fill="#D3A06C"/>
<path d="M132.371 115.323V137.387C132.371 139.41 130.644 141.065 128.532 141.065H120.855V130.032C120.855 128.01 119.127 126.355 117.016 126.355H101.661V115.323C101.661 113.3 103.389 111.645 105.5 111.645H109.339H113.177V119H120.855V111.645H128.532C130.644 111.645 132.371 113.3 132.371 115.323Z" fill="#D3A06C"/>
<path d="M159.242 67.5161V107.968C159.242 109.99 157.515 111.645 155.403 111.645H151.565H143.887H136.21H128.532H120.855H113.177H109.339C107.227 111.645 105.5 109.99 105.5 107.968V67.5161C105.5 65.4935 107.227 63.8387 109.339 63.8387H124.694V74.871H140.048V63.8387H155.403C157.515 63.8387 159.242 65.4935 159.242 67.5161Z" fill="#D3A06C"/>
<path d="M124.694 63.8387H140.048V74.871H124.694V63.8387Z" fill="#B27946"/>
<path d="M113.177 111.645H120.855V119H113.177V111.645Z" fill="#B27946"/>
<path d="M143.887 111.645H151.565V119H143.887V111.645Z" fill="#B27946"/>
<path d="M140.048 141.065H147.726V148.419H140.048V141.065Z" fill="#B27946"/>
<path d="M81.5081 78.5484C86.2873 78.5484 90.1452 82.2442 90.1452 86.8226C90.1452 89.1026 89.1855 91.1803 87.6116 92.6697C86.0569 94.1774 83.8881 95.0968 81.5081 95.0968H79.0513H78.629H69.0323C67.4392 95.0968 65.9997 95.7219 64.9632 96.7148C63.9268 97.7077 63.2742 99.0868 63.2742 100.613V104.29C62.2186 104.29 61.2589 104.695 60.5679 105.375C59.8578 106.037 59.4355 106.956 59.4355 107.968V108.28C59.4355 109.255 59.8386 110.193 60.5679 110.891L63.2742 113.484V122.677L61.0286 121.611C53.0057 117.75 47.9194 109.88 47.9194 101.275C47.9194 94.9865 50.5681 89.3232 54.8674 85.2045C59.1668 81.0858 65.0784 78.5484 71.6426 78.5484H81.5081Z" fill="#656D78"/>
<path d="M82.4678 164.177V174.161H47.9194V146.967C47.9194 149.762 48.5528 152.483 49.7428 154.965C50.9328 157.447 52.6794 159.691 54.8866 161.511L55.7503 162.191C56.5949 162.89 57.497 163.515 58.4566 164.067C61.5468 165.85 65.0976 166.806 68.7444 166.806H71.3163C73.6195 166.806 75.9036 166.42 78.0532 165.685L82.4678 164.177Z" fill="#4FC1E9"/>
<path d="M67.1129 155.774L58.4566 164.067C57.497 163.515 56.5949 162.89 55.7503 162.191L54.8866 161.511C52.6794 159.691 50.9328 157.447 49.7428 154.965C48.5528 152.483 47.9194 149.762 47.9194 146.967C47.9194 138.987 53.0824 131.853 60.875 129.058L63.2742 128.194C67.8423 130.823 71.7194 134.261 74.7903 138.233C76.0763 139.906 77.2087 141.69 78.1876 143.547C79.5887 146.176 80.6636 148.971 81.3929 151.858V151.876L67.1129 155.774Z" fill="#4FC1E9"/>
<path d="M98.4752 142.076C96.863 142.591 95.577 143.823 95.0396 145.367L93.9839 148.419V139.226V133.71H97.8227H117.016C118.072 133.71 119.032 133.305 119.722 132.625C120.433 131.963 120.855 131.044 120.855 130.032V141.065V170.484C120.855 172.506 119.127 174.161 117.016 174.161H93.9839V160.224L109.185 155.002C111.546 154.377 113.177 152.317 113.177 149.964C113.177 148.53 112.563 147.206 111.584 146.268C110.606 145.33 109.224 144.742 107.727 144.742H105.5L104.041 143.345C102.583 141.947 100.433 141.451 98.4752 142.076Z" fill="#FFEAA7"/>
<path d="M117.016 126.355C119.127 126.355 120.855 128.01 120.855 130.032C120.855 131.044 120.433 131.963 119.722 132.625C119.032 133.305 118.072 133.71 117.016 133.71H97.8226V126.355H101.661H117.016Z" fill="#E6E9ED"/>
<path d="M93.984 139.226V148.419L81.393 151.858C80.6637 148.971 79.5888 146.176 78.1877 143.547L93.984 139.226Z" fill="#F0D0B4"/>
<path d="M111.584 146.268C112.563 147.206 113.177 148.53 113.177 149.964C113.177 152.317 111.546 154.377 109.185 155.002L93.9839 160.224L82.4677 164.177L78.0532 165.685C75.9035 166.42 73.6195 166.806 71.3163 166.806H68.7443C65.0976 166.806 61.5468 165.85 58.4566 164.067L67.1129 155.774L81.3929 151.876V151.858L93.9839 148.419L95.0395 145.367C95.5769 143.823 96.8629 142.591 98.4752 142.076C100.433 141.451 102.583 141.947 104.041 143.345L105.5 144.742H107.726C109.224 144.742 110.605 145.33 111.584 146.268Z" fill="#F0D0B4"/>
<path d="M74.7903 122.677V138.233C71.7194 134.261 67.8423 130.823 63.2742 128.194V122.677V113.484L60.5679 110.891C59.8386 110.193 59.4355 109.255 59.4355 108.28V107.968C59.4355 106.956 59.8577 106.037 60.5679 105.375C61.2589 104.695 62.2186 104.29 63.2742 104.29V100.613C63.2742 99.0868 63.9268 97.7078 64.9632 96.7148C65.9997 95.7219 67.4392 95.0968 69.0323 95.0968H78.629H79.0513C81.2202 95.0968 83.1971 96.2552 84.1952 98.1123C85.8842 101.275 88.2258 106.295 88.2258 109.806L82.4677 111.645V116.407C82.4677 118.062 81.7768 119.662 80.5484 120.839C79.32 122.015 77.6502 122.677 75.9227 122.677H74.7903Z" fill="#F0D0B4"/>
<path d="M160.739 110.02C161.006 109.384 161.161 108.694 161.161 107.968V67.5161C161.161 64.4749 158.578 62 155.403 62H109.339C106.164 62 103.581 64.4749 103.581 67.5161V107.968C103.581 108.694 103.736 109.384 104.003 110.02C101.556 110.654 99.7419 112.78 99.7419 115.323V124.516H95.9032V131.871H92.0645V137.838L79.1089 141.384C78.3738 140.125 77.5811 138.899 76.7097 137.724V124.444C78.6693 124.27 80.4966 123.492 81.9073 122.141C83.5061 120.607 84.3871 118.568 84.3871 116.4V112.971L90.1452 111.132V109.806C90.1452 106.004 87.8343 100.889 85.8976 97.2683C85.7076 96.9134 85.485 96.5843 85.245 96.2699C89.2239 94.8191 92.0645 91.138 92.0645 86.8226C92.0645 81.2458 87.3295 76.7097 81.5081 76.7097H71.6445C57.5046 76.7097 46 87.7309 46 101.277C46 110.643 51.4318 119.063 60.1744 123.251L61.3548 123.816V126.919L60.2071 127.331C51.8387 130.339 46.1862 138.042 46.0154 146.581H46V176H84.3871V165.466L92.0645 162.831V176H117.016C120.191 176 122.774 173.525 122.774 170.484V142.903H126.966C126.751 143.481 126.613 144.095 126.613 144.742V166.806C126.613 169.848 129.196 172.323 132.371 172.323H155.403C158.578 172.323 161.161 169.848 161.161 166.806V144.742C161.161 144.016 161.006 143.326 160.739 142.69C163.186 142.054 165 139.93 165 137.387V115.323C165 112.78 163.186 110.654 160.739 110.02ZM126.613 65.6774H138.129V73.0323H126.613V65.6774ZM107.419 67.5161C107.419 66.503 108.281 65.6774 109.339 65.6774H122.774V76.7097H141.968V65.6774H155.403C156.461 65.6774 157.323 66.503 157.323 67.5161V107.968C157.323 108.981 156.461 109.806 155.403 109.806H136.21H128.532H109.339C108.281 109.806 107.419 108.981 107.419 107.968V67.5161ZM145.806 113.484H149.645V117.161H145.806V113.484ZM115.097 113.484H118.935V117.161H115.097V113.484ZM99.7419 128.194H117.016C118.074 128.194 118.935 129.017 118.935 130.032C118.935 131.047 118.074 131.871 117.016 131.871H99.7419V128.194ZM68.1186 157.411L95.4848 149.92L96.8667 145.952C97.2141 144.952 98.0433 144.157 99.0874 143.824C100.354 143.422 101.73 143.731 102.679 144.637L104.705 146.581H107.721C109.671 146.581 111.258 148.101 111.258 149.971C111.258 151.484 110.195 152.827 108.544 153.274L77.4083 163.956C75.4506 164.626 73.4026 164.968 71.3201 164.968H68.7444C66.2991 164.968 63.9037 164.475 61.685 163.572L68.1186 157.411ZM92.0645 141.664V147.033L82.6885 149.598C82.1818 147.936 81.581 146.309 80.8555 144.733L92.0645 141.664ZM86.199 108.516L80.5484 110.321V116.402C80.5484 117.588 80.0666 118.702 79.1895 119.542C78.3162 120.381 77.153 120.842 75.9151 120.842L69.0323 120.839V124.516L72.871 124.518V133.283C70.5831 130.981 68.0131 128.94 65.1935 127.217V112.723L61.9172 109.584C61.5545 109.236 61.3548 108.773 61.3548 108.282V107.968C61.3548 106.955 62.2166 106.129 63.2742 106.129H65.1935V100.613C65.1935 98.5848 66.9152 96.9355 69.0323 96.9355H78.629H79.057C80.5062 96.9355 81.8171 97.7059 82.4812 98.9452C84.5445 102.801 85.8305 106.129 86.199 108.516ZM49.8387 101.277C49.8387 89.759 59.6217 80.3871 71.6445 80.3871H81.5081C85.2124 80.3871 88.2258 83.2739 88.2258 86.8226C88.2258 90.3713 85.2124 93.2581 81.5081 93.2581H79.057H78.629H69.0323C64.7982 93.2581 61.3548 96.5567 61.3548 100.613V102.766C59.1207 103.525 57.5161 105.57 57.5161 107.968V108.282C57.5161 109.755 58.115 111.141 59.2032 112.184L61.3548 114.245V119.656C54.2475 116.008 49.8387 109.038 49.8387 101.277ZM61.5564 130.775L63.0266 130.246C70.7347 134.923 76.4467 142.228 79.0033 150.607L68.3528 153.522L67.5966 151.35C65.8212 146.25 61.5084 142.423 56.0613 141.12L55.1304 144.687C59.2973 145.685 62.5967 148.612 63.9556 152.516L64.9172 155.28L58.2033 161.711C57.7887 161.426 57.3837 161.125 56.9941 160.805L56.1457 160.108C52.1381 156.815 49.8387 152.029 49.8387 146.972C49.8387 139.801 54.5469 133.292 61.5564 130.775ZM80.5484 172.323H49.8387V158.786C50.9116 160.29 52.1707 161.686 53.6467 162.897L54.4951 163.594C58.4605 166.851 63.5199 168.645 68.7444 168.645H71.3201C73.8441 168.645 76.3277 168.231 78.7039 167.417L80.5484 166.784V172.323ZM117.016 172.323H95.9032V161.513L109.709 156.774C112.882 155.923 115.097 153.126 115.097 149.971C115.097 146.075 111.788 142.903 107.721 142.903H106.295L105.391 142.037C103.41 140.138 100.529 139.485 97.8725 140.335C97.1527 140.564 96.5059 140.932 95.9032 141.353V135.548H117.016C117.692 135.548 118.333 135.416 118.935 135.21V170.484C118.935 171.499 118.074 172.323 117.016 172.323ZM122.774 130.032C122.774 126.991 120.191 124.516 117.016 124.516H103.581V115.323C103.581 114.309 104.442 113.484 105.5 113.484H109.339H111.258V120.839H122.774V113.484H128.532C129.59 113.484 130.452 114.309 130.452 115.323V137.387C130.452 138.402 129.59 139.226 128.532 139.226H122.774V130.032ZM157.323 166.806C157.323 167.821 156.461 168.645 155.403 168.645H132.371C131.313 168.645 130.452 167.821 130.452 166.806V144.742C130.452 143.727 131.313 142.903 132.371 142.903H136.21H138.129V150.258H149.645V142.903H155.403C156.461 142.903 157.323 143.727 157.323 144.742V166.806ZM141.968 142.903H145.806V146.581H141.968V142.903ZM161.161 137.387C161.161 138.402 160.299 139.226 159.242 139.226H155.403H136.21C135.152 139.226 134.29 138.402 134.29 137.387V115.323C134.29 114.309 135.152 113.484 136.21 113.484H141.968V120.839H153.484V113.484H155.403H159.242C160.299 113.484 161.161 114.309 161.161 115.323V137.387Z" fill="black"/>
<path d="M141.968 102.452H145.806V106.129H141.968V102.452Z" fill="black"/>
<path d="M134.29 102.452H138.129V106.129H134.29V102.452Z" fill="black"/>
<path d="M149.645 102.452H153.484V106.129H149.645V102.452Z" fill="black"/>
<path d="M134.29 95.0968H153.484V98.7742H134.29V95.0968Z" fill="black"/>
</g>
<defs>
<filter id="filter0_dd" x="6" y="34" width="191" height="182" filterUnits="userSpaceOnUse" color-interpolation-filters="sRGB">
<feFlood flood-opacity="0" result="BackgroundImageFix"/>
<feColorMatrix in="SourceAlpha" type="matrix" values="0 0 0 0 0 0 0 0 0 0 0 0 0 0 0 0 0 0 127 0"/>
<feOffset dy="4"/>
<feGaussianBlur stdDeviation="2"/>
<feColorMatrix type="matrix" values="0 0 0 0 0 0 0 0 0 0 0 0 0 0 0 0 0 0 0.25 0"/>
<feBlend mode="normal" in2="BackgroundImageFix" result="effect1_dropShadow"/>
<feColorMatrix in="SourceAlpha" type="matrix" values="0 0 0 0 0 0 0 0 0 0 0 0 0 0 0 0 0 0 127 0"/>
<feOffset dy="4"/>
<feGaussianBlur stdDeviation="2"/>
<feColorMatrix type="matrix" values="0 0 0 0 0 0 0 0 0 0 0 0 0 0 0 0 0 0 0.25 0"/>
<feBlend mode="normal" in2="effect1_dropShadow" result="effect2_dropShadow"/>
<feBlend mode="normal" in="SourceGraphic" in2="effect2_dropShadow" result="shape"/>
</filter>
<filter id="filter1_d" x="42" y="62" width="127" height="122" filterUnits="userSpaceOnUse" color-interpolation-filters="sRGB">
<feFlood flood-opacity="0" result="BackgroundImageFix"/>
<feColorMatrix in="SourceAlpha" type="matrix" values="0 0 0 0 0 0 0 0 0 0 0 0 0 0 0 0 0 0 127 0"/>
<feOffset dy="4"/>
<feGaussianBlur stdDeviation="2"/>
<feColorMatrix type="matrix" values="0 0 0 0 0 0 0 0 0 0 0 0 0 0 0 0 0 0 0.25 0"/>
<feBlend mode="normal" in2="BackgroundImageFix" result="effect1_dropShadow"/>
<feBlend mode="normal" in="SourceGraphic" in2="effect1_dropShadow" result="shape"/>
</filter>
</defs>
</svg>
