<svg width="191" height="182" viewBox="0 0 191 182" fill="none" xmlns="http://www.w3.org/2000/svg">
<g filter="url(#filter0_dd)">
<ellipse cx="95.5" cy="87" rx="91.5" ry="87" fill="#EE5B3B"/>
<path d="M185 87C185 133.85 145.026 172 95.5 172C45.9743 172 6 133.85 6 87C6 40.1496 45.9743 2 95.5 2C145.026 2 185 40.1496 185 87Z" stroke="#FE560E" stroke-width="4"/>
</g>
<g filter="url(#filter1_d)">
<path d="M153.242 110.742V132.806C153.242 134.829 151.515 136.484 149.403 136.484H126.371C124.26 136.484 122.532 134.829 122.532 132.806V110.742C122.532 108.719 124.26 107.065 126.371 107.065H130.21H134.048V114.419H141.726V107.065H149.403C151.515 107.065 153.242 108.719 153.242 110.742Z" fill="#D3A06C"/>
<path d="M157.081 103.387C157.081 105.41 155.353 107.065 153.242 107.065H149.403H141.726H134.048H130.21C128.098 107.065 126.371 105.41 126.371 103.387V81.3226C126.371 79.3 128.098 77.6452 130.21 77.6452H137.887V85H145.565V77.6452H149.403H153.242C155.353 77.6452 157.081 79.3 157.081 81.3226V103.387Z" fill="#D3A06C"/>
<path d="M126.371 81.3226V103.387C126.371 105.41 124.644 107.065 122.532 107.065H114.855V96.0323C114.855 94.0097 113.127 92.3549 111.016 92.3549H95.6613V81.3226C95.6613 79.3 97.3887 77.6452 99.5 77.6452H103.339H107.177V85H114.855V77.6452H122.532C124.644 77.6452 126.371 79.3 126.371 81.3226Z" fill="#D3A06C"/>
<path d="M153.242 33.5161V73.9677C153.242 75.9903 151.515 77.6452 149.403 77.6452H145.565H137.887H130.21H122.532H114.855H107.177H103.339C101.227 77.6452 99.5 75.9903 99.5 73.9677V33.5161C99.5 31.4935 101.227 29.8387 103.339 29.8387H118.694V40.871H134.048V29.8387H149.403C151.515 29.8387 153.242 31.4935 153.242 33.5161Z" fill="#D3A06C"/>
<path d="M118.694 29.8387H134.048V40.871H118.694V29.8387Z" fill="#B27946"/>
<path d="M107.177 77.6452H114.855V85H107.177V77.6452Z" fill="#B27946"/>
<path d="M137.887 77.6452H145.565V85H137.887V77.6452Z" fill="#B27946"/>
<path d="M134.048 107.065H141.726V114.419H134.048V107.065Z" fill="#B27946"/>
<path d="M75.5081 44.5484C80.2873 44.5484 84.1452 48.2442 84.1452 52.8226C84.1452 55.1026 83.1855 57.1803 81.6116 58.6697C80.0569 60.1774 77.8881 61.0968 75.5081 61.0968H73.0513H72.629H63.0323C61.4392 61.0968 59.9997 61.7219 58.9632 62.7148C57.9268 63.7077 57.2742 65.0868 57.2742 66.6129V70.2903C56.2186 70.2903 55.2589 70.6948 54.5679 71.3752C53.8578 72.0371 53.4355 72.9565 53.4355 73.9677V74.2803C53.4355 75.2548 53.8386 76.1926 54.5679 76.8913L57.2742 79.4839V88.6774L55.0286 87.611C47.0057 83.7497 41.9194 75.88 41.9194 67.2748C41.9194 60.9865 44.5681 55.3232 48.8674 51.2045C53.1668 47.0858 59.0784 44.5484 65.6426 44.5484H75.5081Z" fill="#656D78"/>
<path d="M76.4678 130.177V140.161H41.9194V112.967C41.9194 115.762 42.5528 118.483 43.7428 120.965C44.9328 123.447 46.6794 125.691 48.8866 127.511L49.7503 128.191C50.5949 128.89 51.497 129.515 52.4566 130.067C55.5468 131.85 59.0976 132.806 62.7444 132.806H65.3163C67.6195 132.806 69.9036 132.42 72.0532 131.685L76.4678 130.177Z" fill="#4FC1E9"/>
<path d="M61.1129 121.774L52.4566 130.067C51.497 129.515 50.5949 128.89 49.7503 128.191L48.8866 127.511C46.6794 125.691 44.9328 123.447 43.7428 120.965C42.5528 118.483 41.9194 115.762 41.9194 112.967C41.9194 104.987 47.0824 97.8526 54.875 95.0577L57.2742 94.1936C61.8423 96.8229 65.7194 100.261 68.7903 104.233C70.0763 105.906 71.2087 107.69 72.1876 109.547C73.5887 112.176 74.6636 114.971 75.3929 117.858V117.876L61.1129 121.774Z" fill="#4FC1E9"/>
<path d="M92.4752 108.076C90.863 108.591 89.577 109.823 89.0396 111.367L87.9839 114.419V105.226V99.7097H91.8227H111.016C112.072 99.7097 113.032 99.3052 113.722 98.6248C114.433 97.9629 114.855 97.0435 114.855 96.0323V107.065V136.484C114.855 138.506 113.127 140.161 111.016 140.161H87.9839V126.224L103.185 121.002C105.546 120.377 107.177 118.317 107.177 115.964C107.177 114.53 106.563 113.206 105.584 112.268C104.606 111.33 103.224 110.742 101.727 110.742H99.5001L98.0414 109.345C96.5827 107.947 94.433 107.451 92.4752 108.076Z" fill="#FFEAA7"/>
<path d="M111.016 92.3548C113.127 92.3548 114.855 94.0097 114.855 96.0323C114.855 97.0436 114.433 97.9629 113.722 98.6248C113.032 99.3052 112.072 99.7097 111.016 99.7097H91.8226V92.3548H95.6613H111.016Z" fill="#E6E9ED"/>
<path d="M87.984 105.226V114.419L75.393 117.858C74.6637 114.971 73.5888 112.176 72.1877 109.547L87.984 105.226Z" fill="#F0D0B4"/>
<path d="M105.584 112.268C106.563 113.206 107.177 114.53 107.177 115.964C107.177 118.317 105.546 120.377 103.185 121.002L87.9839 126.224L76.4677 130.177L72.0532 131.685C69.9035 132.42 67.6195 132.806 65.3163 132.806H62.7443C59.0976 132.806 55.5468 131.85 52.4566 130.067L61.1129 121.774L75.3929 117.876V117.858L87.9839 114.419L89.0395 111.367C89.5769 109.823 90.8629 108.591 92.4752 108.076C94.4329 107.451 96.5826 107.947 98.0413 109.345L99.5 110.742H101.726C103.224 110.742 104.605 111.33 105.584 112.268Z" fill="#F0D0B4"/>
<path d="M68.7903 88.6774V104.233C65.7194 100.261 61.8423 96.8229 57.2742 94.1936V88.6774V79.4839L54.5679 76.8913C53.8386 76.1926 53.4355 75.2549 53.4355 74.2803V73.9678C53.4355 72.9565 53.8577 72.0371 54.5679 71.3752C55.2589 70.6949 56.2186 70.2903 57.2742 70.2903V66.6129C57.2742 65.0868 57.9268 63.7078 58.9632 62.7148C59.9997 61.7219 61.4392 61.0968 63.0323 61.0968H72.629H73.0513C75.2202 61.0968 77.1971 62.2552 78.1952 64.1123C79.8842 67.2748 82.2258 72.2945 82.2258 75.8065L76.4677 77.6452V82.4074C76.4677 84.0623 75.7768 85.6619 74.5484 86.8387C73.32 88.0155 71.6502 88.6774 69.9227 88.6774H68.7903Z" fill="#F0D0B4"/>
<path d="M154.739 76.0197C155.006 75.3835 155.161 74.694 155.161 73.9677V33.5161C155.161 30.4749 152.578 28 149.403 28H103.339C100.164 28 97.5806 30.4749 97.5806 33.5161V73.9677C97.5806 74.694 97.7361 75.3835 98.0029 76.0197C95.5557 76.6541 93.7419 78.7796 93.7419 81.3226V90.5161H89.9032V97.871H86.0645V103.838L73.1089 107.384C72.3738 106.125 71.5811 104.899 70.7097 103.724V90.4444C72.6693 90.2697 74.4966 89.492 75.9073 88.1405C77.5061 86.607 78.3871 84.5679 78.3871 82.4001V78.9709L84.1452 77.1322V75.8065C84.1452 72.004 81.8343 66.8887 79.8976 63.2683C79.7076 62.9134 79.485 62.5843 79.245 62.2699C83.2239 60.8191 86.0645 57.138 86.0645 52.8226C86.0645 47.2458 81.3295 42.7097 75.5081 42.7097H65.6445C51.5046 42.7097 40 53.7309 40 67.2767C40 76.6431 45.4318 85.0625 54.1744 89.2511L55.3548 89.8156V92.9193L54.2071 93.3312C45.8387 96.3393 40.1862 104.042 40.0154 112.581H40V142H78.3871V131.466L86.0645 128.831V142H111.016C114.191 142 116.774 139.525 116.774 136.484V108.903H120.966C120.751 109.481 120.613 110.095 120.613 110.742V132.806C120.613 135.848 123.196 138.323 126.371 138.323H149.403C152.578 138.323 155.161 135.848 155.161 132.806V110.742C155.161 110.016 155.006 109.326 154.739 108.69C157.186 108.054 159 105.93 159 103.387V81.3226C159 78.7796 157.186 76.6541 154.739 76.0197ZM120.613 31.6774H132.129V39.0323H120.613V31.6774ZM101.419 33.5161C101.419 32.503 102.281 31.6774 103.339 31.6774H116.774V42.7097H135.968V31.6774H149.403C150.461 31.6774 151.323 32.503 151.323 33.5161V73.9677C151.323 74.9809 150.461 75.8065 149.403 75.8065H130.21H122.532H103.339C102.281 75.8065 101.419 74.9809 101.419 73.9677V33.5161ZM139.806 79.4839H143.645V83.1613H139.806V79.4839ZM109.097 79.4839H112.935V83.1613H109.097V79.4839ZM93.7419 94.1936H111.016C112.074 94.1936 112.935 95.0173 112.935 96.0323C112.935 97.0472 112.074 97.871 111.016 97.871H93.7419V94.1936ZM62.1186 123.411L89.4848 115.92L90.8667 111.952C91.2141 110.952 92.0433 110.157 93.0874 109.824C94.3542 109.422 95.7304 109.731 96.6785 110.637L98.7054 112.581H101.721C103.671 112.581 105.258 114.101 105.258 115.971C105.258 117.484 104.195 118.827 102.544 119.274L71.4083 129.956C69.4506 130.626 67.4026 130.968 65.3201 130.968H62.7444C60.2991 130.968 57.9037 130.475 55.685 129.572L62.1186 123.411ZM86.0645 107.664V113.033L76.6885 115.598C76.1818 113.936 75.581 112.309 74.8555 110.733L86.0645 107.664ZM80.199 74.5157L74.5484 76.3213V82.4019C74.5484 83.5879 74.0666 84.7021 73.1895 85.5424C72.3162 86.3809 71.153 86.8424 69.9151 86.8424L63.0323 86.8387V90.5161L66.871 90.518V99.2831C64.5831 96.981 62.0131 94.9401 59.1935 93.2172V78.7226L55.9172 75.584C55.5545 75.2365 55.3548 74.7731 55.3548 74.2822V73.9677C55.3548 72.9546 56.2166 72.129 57.2742 72.129H59.1935V66.6129C59.1935 64.5848 60.9152 62.9355 63.0323 62.9355H72.629H73.057C74.5062 62.9355 75.8171 63.7059 76.4812 64.9452C78.5445 68.801 79.8305 72.129 80.199 74.5157ZM43.8387 67.2767C43.8387 55.759 53.6217 46.3871 65.6445 46.3871H75.5081C79.2124 46.3871 82.2258 49.2739 82.2258 52.8226C82.2258 56.3713 79.2124 59.2581 75.5081 59.2581H73.057H72.629H63.0323C58.7982 59.2581 55.3548 62.5567 55.3548 66.6129V68.766C53.1207 69.5254 51.5161 71.5701 51.5161 73.9677V74.2822C51.5161 75.755 52.115 77.1414 53.2032 78.1839L55.3548 80.2451V85.6564C48.2475 82.0084 43.8387 75.0379 43.8387 67.2767ZM55.5564 96.7751L57.0266 96.2456C64.7347 100.923 70.4467 108.228 73.0033 116.607L62.3528 119.522L61.5966 117.35C59.8212 112.25 55.5084 108.423 50.0613 107.12L49.1304 110.687C53.2973 111.685 56.5967 114.612 57.9556 118.516L58.9172 121.28L52.2033 127.711C51.7887 127.426 51.3837 127.125 50.9941 126.805L50.1457 126.108C46.1381 122.815 43.8387 118.029 43.8387 112.972C43.8387 105.801 48.5469 99.2923 55.5564 96.7751ZM74.5484 138.323H43.8387V124.786C44.9116 126.29 46.1707 127.686 47.6467 128.897L48.4951 129.594C52.4605 132.851 57.5199 134.645 62.7444 134.645H65.3201C67.8441 134.645 70.3277 134.231 72.7039 133.417L74.5484 132.784V138.323ZM111.016 138.323H89.9032V127.513L103.709 122.774C106.882 121.923 109.097 119.126 109.097 115.971C109.097 112.075 105.788 108.903 101.721 108.903H100.295L99.3906 108.037C97.4098 106.138 94.5289 105.485 91.8725 106.335C91.1527 106.564 90.5059 106.932 89.9032 107.353V101.548H111.016C111.692 101.548 112.333 101.416 112.935 101.21V136.484C112.935 137.499 112.074 138.323 111.016 138.323ZM116.774 96.0323C116.774 92.991 114.191 90.5161 111.016 90.5161H97.5806V81.3226C97.5806 80.3095 98.4424 79.4839 99.5 79.4839H103.339H105.258V86.8387H116.774V79.4839H122.532C123.59 79.4839 124.452 80.3095 124.452 81.3226V103.387C124.452 104.402 123.59 105.226 122.532 105.226H116.774V96.0323ZM151.323 132.806C151.323 133.821 150.461 134.645 149.403 134.645H126.371C125.313 134.645 124.452 133.821 124.452 132.806V110.742C124.452 109.727 125.313 108.903 126.371 108.903H130.21H132.129V116.258H143.645V108.903H149.403C150.461 108.903 151.323 109.727 151.323 110.742V132.806ZM135.968 108.903H139.806V112.581H135.968V108.903ZM155.161 103.387C155.161 104.402 154.299 105.226 153.242 105.226H149.403H130.21C129.152 105.226 128.29 104.402 128.29 103.387V81.3226C128.29 80.3095 129.152 79.4839 130.21 79.4839H135.968V86.8387H147.484V79.4839H149.403H153.242C154.299 79.4839 155.161 80.3095 155.161 81.3226V103.387Z" fill="black"/>
<path d="M135.968 68.4516H139.806V72.129H135.968V68.4516Z" fill="black"/>
<path d="M128.29 68.4516H132.129V72.129H128.29V68.4516Z" fill="black"/>
<path d="M143.645 68.4516H147.484V72.129H143.645V68.4516Z" fill="black"/>
<path d="M128.29 61.0968H147.484V64.7742H128.29V61.0968Z" fill="black"/>
</g>
<defs>
<filter id="filter0_dd" x="0" y="0" width="191" height="182" filterUnits="userSpaceOnUse" color-interpolation-filters="sRGB">
<feFlood flood-opacity="0" result="BackgroundImageFix"/>
<feColorMatrix in="SourceAlpha" type="matrix" values="0 0 0 0 0 0 0 0 0 0 0 0 0 0 0 0 0 0 127 0"/>
<feOffset dy="4"/>
<feGaussianBlur stdDeviation="2"/>
<feColorMatrix type="matrix" values="0 0 0 0 0 0 0 0 0 0 0 0 0 0 0 0 0 0 0.25 0"/>
<feBlend mode="normal" in2="BackgroundImageFix" result="effect1_dropShadow"/>
<feColorMatrix in="SourceAlpha" type="matrix" values="0 0 0 0 0 0 0 0 0 0 0 0 0 0 0 0 0 0 127 0"/>
<feOffset dy="4"/>
<feGaussianBlur stdDeviation="2"/>
<feColorMatrix type="matrix" values="0 0 0 0 0 0 0 0 0 0 0 0 0 0 0 0 0 0 0.25 0"/>
<feBlend mode="normal" in2="effect1_dropShadow" result="effect2_dropShadow"/>
<feBlend mode="normal" in="SourceGraphic" in2="effect2_dropShadow" result="shape"/>
</filter>
<filter id="filter1_d" x="36" y="28" width="127" height="122" filterUnits="userSpaceOnUse" color-interpolation-filters="sRGB">
<feFlood flood-opacity="0" result="BackgroundImageFix"/>
<feColorMatrix in="SourceAlpha" type="matrix" values="0 0 0 0 0 0 0 0 0 0 0 0 0 0 0 0 0 0 127 0"/>
<feOffset dy="4"/>
<feGaussianBlur stdDeviation="2"/>
<feColorMatrix type="matrix" values="0 0 0 0 0 0 0 0 0 0 0 0 0 0 0 0 0 0 0.25 0"/>
<feBlend mode="normal" in2="BackgroundImageFix" result="effect1_dropShadow"/>
<feBlend mode="normal" in="SourceGraphic" in2="effect1_dropShadow" result="shape"/>
</filter>
</defs>
</svg>
