<svg width="287" height="61" viewBox="0 0 287 61" fill="none" xmlns="http://www.w3.org/2000/svg">
<rect x="10" width="277" height="54" rx="8" fill="#F061AE" fill-opacity="0.5"/>
<rect y="7" width="277" height="54" rx="8" fill="#DF60AC"/>
<path d="M90.7865 38.156C89.4258 38.156 88.3598 37.6793 87.5885 36.726L88.7845 35.53C89.3045 36.1973 89.9848 36.531 90.8255 36.531C91.6922 36.531 92.1255 36.1497 92.1255 35.387C92.1255 35.075 92.0475 34.8323 91.8915 34.659C91.7355 34.4857 91.4928 34.3643 91.1635 34.295L90.3315 34.139C89.4908 33.983 88.8712 33.6927 88.4725 33.268C88.0825 32.8347 87.8875 32.2367 87.8875 31.474C87.8875 30.59 88.1475 29.9183 88.6675 29.459C89.1875 28.9997 89.9502 28.77 90.9555 28.77C92.2382 28.77 93.2132 29.186 93.8805 30.018L92.6845 31.214C92.4592 30.9367 92.2035 30.733 91.9175 30.603C91.6402 30.4643 91.3108 30.395 90.9295 30.395C90.5135 30.395 90.2102 30.473 90.0195 30.629C89.8375 30.785 89.7465 31.0363 89.7465 31.383C89.7465 31.6863 89.8158 31.916 89.9545 32.072C90.1018 32.228 90.3358 32.3407 90.6565 32.41L91.4885 32.579C91.9305 32.6743 92.3075 32.7913 92.6195 32.93C92.9402 33.06 93.2002 33.229 93.3995 33.437C93.6075 33.645 93.7548 33.892 93.8415 34.178C93.9368 34.464 93.9845 34.7977 93.9845 35.179C93.9845 36.1497 93.7115 36.8907 93.1655 37.402C92.6195 37.9047 91.8265 38.156 90.7865 38.156ZM101.302 30.551V38H99.4432V30.551H97.2722V28.926H103.473V30.551H101.302ZM110.246 38.156C109.7 38.156 109.206 38.0737 108.764 37.909C108.322 37.7357 107.945 37.4627 107.633 37.09C107.321 36.7087 107.078 36.2233 106.905 35.634C106.731 35.036 106.645 34.3123 106.645 33.463C106.645 32.6137 106.731 31.8943 106.905 31.305C107.078 30.707 107.321 30.2217 107.633 29.849C107.945 29.4677 108.322 29.1947 108.764 29.03C109.206 28.8567 109.7 28.77 110.246 28.77C110.792 28.77 111.286 28.8567 111.728 29.03C112.17 29.1947 112.547 29.4677 112.859 29.849C113.171 30.2217 113.413 30.707 113.587 31.305C113.76 31.8943 113.847 32.6137 113.847 33.463C113.847 34.3123 113.76 35.036 113.587 35.634C113.413 36.2233 113.171 36.7087 112.859 37.09C112.547 37.4627 112.17 37.7357 111.728 37.909C111.286 38.0737 110.792 38.156 110.246 38.156ZM110.246 36.518C110.766 36.518 111.164 36.362 111.442 36.05C111.728 35.738 111.871 35.27 111.871 34.646V32.28C111.871 31.656 111.728 31.188 111.442 30.876C111.164 30.564 110.766 30.408 110.246 30.408C109.726 30.408 109.323 30.564 109.037 30.876C108.759 31.188 108.621 31.656 108.621 32.28V34.646C108.621 35.27 108.759 35.738 109.037 36.05C109.323 36.362 109.726 36.518 110.246 36.518ZM121.225 38.156C120.679 38.156 120.181 38.0737 119.73 37.909C119.288 37.7443 118.907 37.48 118.586 37.116C118.274 36.752 118.027 36.2753 117.845 35.686C117.672 35.0967 117.585 34.3773 117.585 33.528C117.585 32.6787 117.672 31.955 117.845 31.357C118.027 30.7503 118.274 30.2563 118.586 29.875C118.907 29.4937 119.288 29.2163 119.73 29.043C120.181 28.861 120.679 28.77 121.225 28.77C122.04 28.77 122.681 28.9477 123.149 29.303C123.626 29.6497 124.016 30.1783 124.319 30.889L122.707 31.721C122.655 31.5303 122.595 31.3527 122.525 31.188C122.465 31.0233 122.378 30.8847 122.265 30.772C122.153 30.6593 122.01 30.5727 121.836 30.512C121.672 30.4427 121.468 30.408 121.225 30.408C120.705 30.408 120.298 30.564 120.003 30.876C119.709 31.188 119.561 31.656 119.561 32.28V34.646C119.561 35.27 119.709 35.738 120.003 36.05C120.298 36.362 120.705 36.518 121.225 36.518C121.468 36.518 121.676 36.4833 121.849 36.414C122.031 36.336 122.183 36.2363 122.304 36.115C122.426 35.985 122.525 35.8377 122.603 35.673C122.681 35.4997 122.751 35.3133 122.811 35.114L124.345 35.998C124.189 36.336 124.016 36.6393 123.825 36.908C123.635 37.1767 123.414 37.4063 123.162 37.597C122.92 37.779 122.638 37.9177 122.317 38.013C121.997 38.1083 121.633 38.156 121.225 38.156ZM131.065 33.983L130.012 35.413V38H128.153V28.926H130.012V31.864L129.934 33.307H130.142L131.039 31.864L133.015 28.926H135.121L132.378 32.709L135.355 38H133.171L131.065 33.983ZM147.767 30.551V38H145.908V30.551H143.737V28.926H149.938V30.551H147.767ZM156.71 38.156C156.164 38.156 155.67 38.0737 155.228 37.909C154.786 37.7357 154.409 37.4627 154.097 37.09C153.785 36.7087 153.543 36.2233 153.369 35.634C153.196 35.036 153.109 34.3123 153.109 33.463C153.109 32.6137 153.196 31.8943 153.369 31.305C153.543 30.707 153.785 30.2217 154.097 29.849C154.409 29.4677 154.786 29.1947 155.228 29.03C155.67 28.8567 156.164 28.77 156.71 28.77C157.256 28.77 157.75 28.8567 158.192 29.03C158.634 29.1947 159.011 29.4677 159.323 29.849C159.635 30.2217 159.878 30.707 160.051 31.305C160.225 31.8943 160.311 32.6137 160.311 33.463C160.311 34.3123 160.225 35.036 160.051 35.634C159.878 36.2233 159.635 36.7087 159.323 37.09C159.011 37.4627 158.634 37.7357 158.192 37.909C157.75 38.0737 157.256 38.156 156.71 38.156ZM156.71 36.518C157.23 36.518 157.629 36.362 157.906 36.05C158.192 35.738 158.335 35.27 158.335 34.646V32.28C158.335 31.656 158.192 31.188 157.906 30.876C157.629 30.564 157.23 30.408 156.71 30.408C156.19 30.408 155.787 30.564 155.501 30.876C155.224 31.188 155.085 31.656 155.085 32.28V34.646C155.085 35.27 155.224 35.738 155.501 36.05C155.787 36.362 156.19 36.518 156.71 36.518ZM167.503 30.551V38H165.644V30.551H163.473V28.926H169.674V30.551H167.503ZM177.808 38L177.249 35.777H174.467L173.908 38H172.127L174.701 28.926H177.067L179.641 38H177.808ZM176.235 32.189L175.949 30.616H175.741L175.455 32.189L174.922 34.282H176.794L176.235 32.189ZM183.387 38V28.926H185.246V36.375H188.327V38H183.387Z" fill="#F8EDEB"/>
</svg>
