<svg width="41" height="21" viewBox="0 0 41 21" fill="none" xmlns="http://www.w3.org/2000/svg">
<rect y="2" width="41" height="16" rx="4" fill="#929ECA"/>
<path d="M5.76243 13L6.19425 11.6733H8.29368L8.7255 13H10.0437L8.038 7.18182H6.45277L4.44425 13H5.76243ZM6.50675 10.7131L7.22266 8.51136H7.26811L7.98402 10.7131H6.50675ZM12.484 14.7273C13.7312 14.7273 14.6175 14.1591 14.6175 13.0426V8.63636H13.4158V9.36932H13.3704C13.2085 9.0142 12.8533 8.57955 12.1232 8.57955C11.1658 8.57955 10.3562 9.32386 10.3562 10.8097C10.3562 12.2614 11.1431 12.9375 12.1261 12.9375C12.8221 12.9375 13.2113 12.5881 13.3704 12.2273H13.4215V13.0256C13.4215 13.625 13.038 13.858 12.5124 13.858C11.9783 13.858 11.7085 13.625 11.609 13.3608L10.4897 13.5114C10.6346 14.1989 11.3079 14.7273 12.484 14.7273ZM12.5096 12.0284C11.9158 12.0284 11.592 11.5568 11.592 10.804C11.592 10.0625 11.9102 9.54261 12.5096 9.54261C13.0977 9.54261 13.4272 10.0398 13.4272 10.804C13.4272 11.5739 13.092 12.0284 12.5096 12.0284ZM17.5522 13.0852C18.8761 13.0852 19.6999 12.179 19.6999 10.8352C19.6999 9.48295 18.8761 8.57955 17.5522 8.57955C16.2283 8.57955 15.4045 9.48295 15.4045 10.8352C15.4045 12.179 16.2283 13.0852 17.5522 13.0852ZM17.5579 12.1477C16.9471 12.1477 16.6346 11.5881 16.6346 10.8267C16.6346 10.0653 16.9471 9.50284 17.5579 9.50284C18.1573 9.50284 18.4698 10.0653 18.4698 10.8267C18.4698 11.5881 18.1573 12.1477 17.5579 12.1477ZM22.8079 8.63636H21.9869V7.59091H20.7766V8.63636H20.18V9.54545H20.7766V11.8182C20.771 12.6733 21.3533 13.0966 22.2312 13.0597C22.5437 13.0483 22.7653 12.9858 22.8874 12.946L22.6971 12.0455C22.6374 12.0568 22.5096 12.0852 22.396 12.0852C22.1545 12.0852 21.9869 11.9943 21.9869 11.6591V9.54545H22.8079V8.63636ZM24.8406 13.0824C25.4854 13.0824 25.9031 12.8011 26.1161 12.3949H26.1502V13H27.2979V10.0568C27.2979 9.01705 26.4173 8.57955 25.4457 8.57955C24.4002 8.57955 23.7127 9.07955 23.5451 9.875L24.6644 9.96591C24.7468 9.67614 25.0053 9.46307 25.44 9.46307C25.8519 9.46307 26.0877 9.67045 26.0877 10.0284V10.0455C26.0877 10.3267 25.7894 10.3636 25.0309 10.4375C24.1673 10.517 23.3917 10.8068 23.3917 11.7812C23.3917 12.6449 24.0082 13.0824 24.8406 13.0824ZM25.1871 12.2472C24.815 12.2472 24.5479 12.0739 24.5479 11.7415C24.5479 11.4006 24.8292 11.233 25.2553 11.1733C25.5195 11.1364 25.9513 11.0739 26.0962 10.9773V11.4403C26.0962 11.8977 25.7184 12.2472 25.1871 12.2472ZM29.8448 13.071C30.5494 13.071 30.9158 12.6648 31.0835 12.3011H31.1346V13H32.3278V7.18182H31.1204V9.36932H31.0835C30.9215 9.0142 30.5721 8.57955 29.842 8.57955C28.8846 8.57955 28.0749 9.32386 28.0749 10.8239C28.0749 12.2841 28.8505 13.071 29.8448 13.071ZM30.2283 12.108C29.6346 12.108 29.3107 11.5795 29.3107 10.8182C29.3107 10.0625 29.6289 9.54261 30.2283 9.54261C30.8164 9.54261 31.146 10.0398 31.146 10.8182C31.146 11.5966 30.8107 12.108 30.2283 12.108ZM35.2944 13.0852C36.6183 13.0852 37.4421 12.179 37.4421 10.8352C37.4421 9.48295 36.6183 8.57955 35.2944 8.57955C33.9705 8.57955 33.1467 9.48295 33.1467 10.8352C33.1467 12.179 33.9705 13.0852 35.2944 13.0852ZM35.3001 12.1477C34.6893 12.1477 34.3768 11.5881 34.3768 10.8267C34.3768 10.0653 34.6893 9.50284 35.3001 9.50284C35.8995 9.50284 36.212 10.0653 36.212 10.8267C36.212 11.5881 35.8995 12.1477 35.3001 12.1477Z" fill="#FFF5F5"/>
</svg>
