<svg width="103" height="255" viewBox="0 0 103 255" fill="none" xmlns="http://www.w3.org/2000/svg">
<g filter="url(#filter0_d)">
<rect x="6" width="93" height="247" rx="5" fill="#D9B162"/>
</g>
<g filter="url(#filter1_d)">
<rect x="16.5" y="11.5" width="71" height="224" rx="4.5" stroke="white"/>
</g>
<line x1="17" y1="154.5" x2="89" y2="154.5" stroke="white"/>
<path d="M31.3643 189.156C30.8183 189.156 30.32 189.074 29.8693 188.909C29.4273 188.744 29.046 188.48 28.7253 188.116C28.4133 187.752 28.1663 187.275 27.9843 186.686C27.811 186.097 27.7243 185.377 27.7243 184.528C27.7243 183.679 27.811 182.955 27.9843 182.357C28.1663 181.75 28.4133 181.256 28.7253 180.875C29.046 180.494 29.4273 180.216 29.8693 180.043C30.32 179.861 30.8183 179.77 31.3643 179.77C32.179 179.77 32.8203 179.948 33.2883 180.303C33.765 180.65 34.155 181.178 34.4583 181.889L32.8463 182.721C32.7943 182.53 32.7337 182.353 32.6643 182.188C32.6037 182.023 32.517 181.885 32.4043 181.772C32.2917 181.659 32.1487 181.573 31.9753 181.512C31.8107 181.443 31.607 181.408 31.3643 181.408C30.8443 181.408 30.437 181.564 30.1423 181.876C29.8477 182.188 29.7003 182.656 29.7003 183.28V185.646C29.7003 186.27 29.8477 186.738 30.1423 187.05C30.437 187.362 30.8443 187.518 31.3643 187.518C31.607 187.518 31.815 187.483 31.9883 187.414C32.1703 187.336 32.322 187.236 32.4433 187.115C32.5647 186.985 32.6643 186.838 32.7423 186.673C32.8203 186.5 32.8897 186.313 32.9503 186.114L34.4843 186.998C34.3283 187.336 34.155 187.639 33.9643 187.908C33.7737 188.177 33.5527 188.406 33.3013 188.597C33.0587 188.779 32.777 188.918 32.4563 189.013C32.1357 189.108 31.7717 189.156 31.3643 189.156ZM40.1506 189H38.2916V179.926H42.2176C43.0323 179.926 43.652 180.182 44.0766 180.693C44.5013 181.204 44.7136 181.889 44.7136 182.747C44.7136 183.414 44.588 183.978 44.3366 184.437C44.0853 184.896 43.7126 185.217 43.2186 185.399L44.8046 189H42.7896L41.3856 185.568H40.1506V189ZM41.9836 184.021C42.235 184.021 42.43 183.96 42.5686 183.839C42.716 183.709 42.7896 183.488 42.7896 183.176V182.396C42.7896 182.084 42.716 181.867 42.5686 181.746C42.43 181.616 42.235 181.551 41.9836 181.551H40.1506V184.021H41.9836ZM48.8262 189V179.926H54.4422V181.551H50.6852V183.605H53.8702V185.217H50.6852V187.375H54.4422V189H48.8262ZM63.618 189L63.059 186.777H60.277L59.718 189H57.937L60.511 179.926H62.877L65.451 189H63.618ZM62.045 183.189L61.759 181.616H61.551L61.265 183.189L60.732 185.282H62.604L62.045 183.189ZM71.0561 189H69.1971V179.926H73.1231C73.9378 179.926 74.5574 180.182 74.9821 180.693C75.4068 181.204 75.6191 181.889 75.6191 182.747C75.6191 183.414 75.4934 183.978 75.2421 184.437C74.9908 184.896 74.6181 185.217 74.1241 185.399L75.7101 189H73.6951L72.2911 185.568H71.0561V189ZM72.8891 184.021C73.1404 184.021 73.3354 183.96 73.4741 183.839C73.6214 183.709 73.6951 183.488 73.6951 183.176V182.396C73.6951 182.084 73.6214 181.867 73.4741 181.746C73.3354 181.616 73.1404 181.551 72.8891 181.551H71.0561V184.021H72.8891ZM33.3142 206L32.7552 203.777H29.9732L29.4142 206H27.6332L30.2072 196.926H32.5732L35.1472 206H33.3142ZM31.7412 200.189L31.4552 198.616H31.2472L30.9612 200.189L30.4282 202.282H32.3002L31.7412 200.189ZM43.7684 202.217H40.7524V206H38.8934V196.926H40.7524V200.605H43.7684V196.926H45.6274V206H43.7684V202.217ZM53.2882 206.156C52.7422 206.156 52.2482 206.074 51.8062 205.909C51.3642 205.736 50.9872 205.463 50.6752 205.09C50.3632 204.709 50.1206 204.223 49.9472 203.634C49.7739 203.036 49.6872 202.312 49.6872 201.463C49.6872 200.614 49.7739 199.894 49.9472 199.305C50.1206 198.707 50.3632 198.222 50.6752 197.849C50.9872 197.468 51.3642 197.195 51.8062 197.03C52.2482 196.857 52.7422 196.77 53.2882 196.77C53.8342 196.77 54.3282 196.857 54.7702 197.03C55.2122 197.195 55.5892 197.468 55.9012 197.849C56.2132 198.222 56.4559 198.707 56.6292 199.305C56.8026 199.894 56.8892 200.614 56.8892 201.463C56.8892 202.312 56.8026 203.036 56.6292 203.634C56.4559 204.223 56.2132 204.709 55.9012 205.09C55.5892 205.463 55.2122 205.736 54.7702 205.909C54.3282 206.074 53.8342 206.156 53.2882 206.156ZM53.2882 204.518C53.8082 204.518 54.2069 204.362 54.4842 204.05C54.7702 203.738 54.9132 203.27 54.9132 202.646V200.28C54.9132 199.656 54.7702 199.188 54.4842 198.876C54.2069 198.564 53.8082 198.408 53.2882 198.408C52.7682 198.408 52.3652 198.564 52.0792 198.876C51.8019 199.188 51.6632 199.656 51.6632 200.28V202.646C51.6632 203.27 51.8019 203.738 52.0792 204.05C52.3652 204.362 52.7682 204.518 53.2882 204.518ZM62.7991 206H60.9401V196.926H64.8661C65.6807 196.926 66.3004 197.182 66.7251 197.693C67.1497 198.204 67.3621 198.889 67.3621 199.747C67.3621 200.414 67.2364 200.978 66.9851 201.437C66.7337 201.896 66.3611 202.217 65.8671 202.399L67.4531 206H65.4381L64.0341 202.568H62.7991V206ZM64.6321 201.021C64.8834 201.021 65.0784 200.96 65.2171 200.839C65.3644 200.709 65.4381 200.488 65.4381 200.176V199.396C65.4381 199.084 65.3644 198.867 65.2171 198.746C65.0784 198.616 64.8834 198.551 64.6321 198.551H62.7991V201.021H64.6321ZM76.5316 206L75.9726 203.777H73.1906L72.6316 206H70.8506L73.4246 196.926H75.7906L78.3646 206H76.5316ZM74.9586 200.189L74.6726 198.616H74.4646L74.1786 200.189L73.6456 202.282H75.5176L74.9586 200.189Z" fill="white"/>
<g clip-path="url(#clip0)">
<path d="M56.1812 55.4853L51.6754 46.6062C51.3674 45.9994 50.7613 45.6119 50.0937 45.5953C49.4261 45.5787 48.8371 45.9367 48.5567 46.5284L47.4019 48.9678C47.1569 49.4855 47.3877 50.1242 47.9176 50.3943C48.4478 50.6644 49.0759 50.4638 49.3209 49.9463L50.1532 48.1881L54.3873 56.5318C54.6292 57.0087 55.0628 57.3574 55.5767 57.4883L64.8209 59.8438L57.6252 65.9366C57.1463 66.3398 56.9453 66.9805 57.0943 67.608L59.1855 76.4403L51.5263 72.1953C51.0062 71.9067 50.3926 71.8912 49.8845 72.1541L42.4117 76.0233L44.0988 67.2846C44.2185 66.6634 43.9853 66.0121 43.4905 65.5853L36.0058 59.1274L45.1528 57.229C45.6604 57.1233 46.0783 56.7959 46.2985 56.3309L47.426 53.9492C47.6711 53.4315 47.4401 52.7928 46.9102 52.5229C46.3803 52.2527 45.7513 52.4532 45.5071 52.9709L44.4548 55.1938L34.7585 57.2063C34.1194 57.3391 33.6342 57.8166 33.4921 58.4533C33.3501 59.09 33.5793 59.7595 34.0904 60.2006L41.9799 67.0078L40.1821 76.3195C40.0537 76.9854 40.3196 77.6632 40.876 78.0887C41.4325 78.5141 42.1486 78.5867 42.7445 78.278L47.0419 76.0531L47.8575 111.521C47.871 112.105 48.355 112.59 48.9387 112.605C49.2306 112.612 49.4921 112.5 49.6789 112.314C49.8657 112.127 49.978 111.866 49.9714 111.574L49.1294 74.972L50.7501 74.1329L52.4114 75.0537L52.6685 86.2296C52.682 86.8134 53.166 87.2983 53.7497 87.3128C54.0416 87.32 54.3031 87.2082 54.4899 87.0217C54.6768 86.8352 54.7891 86.5739 54.7824 86.282L54.5513 76.2397L58.956 78.681C59.5668 79.0195 60.2804 78.9825 60.8179 78.5844C60.8845 78.535 60.9464 78.4818 61.0035 78.4246C61.4076 78.0213 61.5707 77.4375 61.4312 76.8477L59.2029 67.4359L66.788 61.0134C67.2787 60.5968 67.478 59.9385 67.3063 59.294C67.1349 58.6495 66.6271 58.147 65.9812 57.9824L56.1812 55.4853Z" fill="#FBF1F1"/>
<path d="M52.7722 90.7415L53.5467 124.4C53.5691 125.375 52.8516 126.15 51.9463 126.128C51.0415 126.105 50.2871 125.294 50.2648 124.319L50.0754 116.086C50.0619 115.502 49.5779 115.017 48.9942 115.003C48.4105 114.988 47.9483 115.45 47.9616 116.033L48.1508 124.266C48.2001 126.407 49.9245 128.19 51.9951 128.242C53.0076 128.267 53.9182 127.873 54.5786 127.214C55.2686 126.525 55.6857 125.546 55.6606 124.453L54.8861 90.794C54.8726 90.2102 54.3886 89.7253 53.8049 89.7108C53.2212 89.6964 52.759 90.1578 52.7722 90.7415Z" fill="#FBF1F1"/>
<path d="M31.668 78.0155C31.9334 77.9414 32.1713 77.8008 32.3615 77.611C32.4854 77.4873 32.5892 77.3425 32.6665 77.1818L34.5352 73.3C34.7812 72.7894 34.7436 72.1846 34.4345 71.6819C34.1255 71.1794 33.5959 70.8618 33.0181 70.8326L28.4944 70.6035C27.6113 70.5584 26.8717 71.2084 26.8112 72.083L26.8112 72.0828C26.6093 74.9909 28.6178 76.8138 30.3381 77.831C30.7442 78.0709 31.2287 78.1382 31.668 78.0155ZM28.9155 72.7369L32.3329 72.9101L30.9523 75.7779C30.009 75.1589 28.9838 74.2183 28.9155 72.7369Z" fill="#FBF1F1"/>
<path d="M36.9636 51.1833C37.5115 51.2949 38.0576 51.1352 38.4382 50.7553C38.4542 50.7393 38.4698 50.7231 38.4852 50.7063C38.8671 50.2913 38.9991 49.708 38.8384 49.1459L37.5802 44.7449C37.3345 43.886 36.4687 43.3281 35.6091 43.4751C35.6091 43.4751 35.609 43.475 35.6089 43.4751C32.749 43.9644 31.654 46.3223 31.2391 48.2141C31.141 48.6604 31.2347 49.1421 31.496 49.5353C31.7571 49.9279 32.1681 50.2063 32.6236 50.299L36.9636 51.1833ZM35.6682 45.6507L36.6185 48.9754L33.4123 48.3222C33.6987 47.2704 34.2675 46.0643 35.6682 45.6507Z" fill="#FBF1F1"/>
<path d="M28.7418 58.7387C29.073 58.7821 29.381 58.6685 29.594 58.4559C29.7551 58.2951 29.8617 58.0774 29.8825 57.8279C29.9307 57.2489 29.498 56.7181 28.9161 56.6423L25.8631 56.244C25.2813 56.168 24.7706 56.5757 24.7225 57.1548C24.6742 57.7338 25.1069 58.2646 25.6888 58.3404L28.7418 58.7387Z" fill="#FBF1F1"/>
<path d="M68.4915 71.7147C67.9145 71.7154 67.3991 72.0069 67.1125 72.4945C66.8262 72.9824 66.8164 73.586 67.086 74.1093L69.1357 78.0886C69.3507 78.5061 69.7289 78.8283 70.1734 78.9728C70.6187 79.1176 71.1007 79.0744 71.4964 78.8544C72.2197 78.4517 72.794 78.016 73.2473 77.5634C74.6959 76.1175 74.904 74.5036 74.7629 73.2752C74.6619 72.3968 73.8919 71.7093 73.0096 71.7103L68.4915 71.7147ZM70.7874 76.7681L69.2731 73.8284L72.6865 73.825C72.6863 75.3051 71.7032 76.1958 70.7874 76.7681Z" fill="#FBF1F1"/>
<path d="M64.6381 44.1968C64.638 44.1967 64.6379 44.1968 64.6381 44.1968C63.7705 44.0068 62.9296 44.5222 62.7228 45.3701L61.666 49.7136C61.531 50.2684 61.69 50.8589 62.0916 51.2933C62.4929 51.7278 63.0706 51.9344 63.6366 51.8463L67.9406 51.1772C68.2788 51.1247 68.5869 50.9671 68.8227 50.7318C68.9021 50.6526 68.9732 50.5644 69.0345 50.4688C69.2781 50.0881 69.3497 49.6106 69.2311 49.159C68.321 45.6897 66.2311 44.5456 64.6381 44.1968ZM67.0604 49.1585L63.8804 49.6529L64.6788 46.3716C66.1006 46.8556 66.7253 48.0912 67.0604 49.1585Z" fill="#FBF1F1"/>
<path d="M74.9831 57.4653L71.9449 57.7121C71.3655 57.7592 70.957 58.2691 71.032 58.851C71.1069 59.433 71.6369 59.8667 72.2159 59.8196L75.2541 59.5728C75.5035 59.5525 75.7215 59.4463 75.8826 59.2854C76.0956 59.0728 76.2096 58.7651 76.1669 58.4338C76.0922 57.8518 75.5621 57.418 74.9831 57.4653Z" fill="#FBF1F1"/>
<path d="M50.2643 36.1737C49.6807 36.1398 49.2021 36.5846 49.1963 37.1678L49.1591 40.781C49.1532 41.3639 49.6215 41.864 50.2054 41.8979C50.51 41.9156 50.7859 41.8029 50.981 41.6082C51.1596 41.4299 51.2706 41.1826 51.2734 40.9039L51.3106 37.2906C51.3165 36.7076 50.8482 36.2075 50.2643 36.1737Z" fill="#FBF1F1"/>
</g>
<defs>
<filter id="filter0_d" x="2" y="0" width="101" height="255" filterUnits="userSpaceOnUse" color-interpolation-filters="sRGB">
<feFlood flood-opacity="0" result="BackgroundImageFix"/>
<feColorMatrix in="SourceAlpha" type="matrix" values="0 0 0 0 0 0 0 0 0 0 0 0 0 0 0 0 0 0 127 0"/>
<feOffset dy="4"/>
<feGaussianBlur stdDeviation="2"/>
<feColorMatrix type="matrix" values="0 0 0 0 0 0 0 0 0 0 0 0 0 0 0 0 0 0 0.25 0"/>
<feBlend mode="normal" in2="BackgroundImageFix" result="effect1_dropShadow"/>
<feBlend mode="normal" in="SourceGraphic" in2="effect1_dropShadow" result="shape"/>
</filter>
<filter id="filter1_d" x="12" y="11" width="80" height="233" filterUnits="userSpaceOnUse" color-interpolation-filters="sRGB">
<feFlood flood-opacity="0" result="BackgroundImageFix"/>
<feColorMatrix in="SourceAlpha" type="matrix" values="0 0 0 0 0 0 0 0 0 0 0 0 0 0 0 0 0 0 127 0"/>
<feOffset dy="4"/>
<feGaussianBlur stdDeviation="2"/>
<feColorMatrix type="matrix" values="0 0 0 0 0 0 0 0 0 0 0 0 0 0 0 0 0 0 0.25 0"/>
<feBlend mode="normal" in2="BackgroundImageFix" result="effect1_dropShadow"/>
<feBlend mode="normal" in="SourceGraphic" in2="effect1_dropShadow" result="shape"/>
</filter>
<clipPath id="clip0">
<rect width="70.2549" height="73.7003" fill="white" transform="translate(0 77.6317) rotate(-44.9469)"/>
</clipPath>
</defs>
</svg>
