<svg width="249" height="218" viewBox="0 0 249 218" fill="none" xmlns="http://www.w3.org/2000/svg">
<g filter="url(#filter0_d)">
<ellipse cx="124.5" cy="123" rx="91.5" ry="87" fill="#EE5B3E"/>
<path d="M215.5 123C215.5 170.749 174.782 209.5 124.5 209.5C74.218 209.5 33.5 170.749 33.5 123C33.5 75.2508 74.218 36.5 124.5 36.5C174.782 36.5 215.5 75.2508 215.5 123Z" stroke="#FE560E"/>
</g>
<path d="M171.303 127.858H160.7L148.126 144.794H171.303C175.553 144.794 178.999 141.003 178.999 136.326C178.999 131.649 175.553 127.858 171.303 127.858Z" fill="#EAA283"/>
<path d="M179 136.325C179 141.003 175.554 144.794 171.303 144.794H148.127L152.496 138.909H171.303C174.613 138.909 177.435 136.611 178.523 133.384C178.831 134.3 179 135.289 179 136.325Z" fill="#EA907A"/>
<path d="M170.193 110.921H159.59L147.016 127.858H170.193C174.443 127.858 177.889 124.066 177.889 119.389C177.889 114.712 174.443 110.921 170.193 110.921Z" fill="#EAA283"/>
<path d="M177.89 119.388C177.89 124.066 174.444 127.857 170.193 127.857H147.017L151.386 121.973H170.193C173.503 121.973 176.325 119.674 177.413 116.447C177.721 117.363 177.89 118.353 177.89 119.388Z" fill="#EA907A"/>
<path d="M164.643 93.9842H154.039L141.466 110.921H164.643C168.893 110.921 172.339 107.129 172.339 102.453C172.339 97.7756 168.893 93.9842 164.643 93.9842Z" fill="#EAA283"/>
<path d="M172.34 102.452C172.34 107.13 168.894 110.921 164.643 110.921H141.466L145.836 105.036H164.643C167.953 105.036 170.774 102.738 171.862 99.5107C172.171 100.427 172.34 101.416 172.34 102.452Z" fill="#EA907A"/>
<path d="M137.046 161.7H101.317L85.6583 146.746L82.0228 129.64L88.6712 109.469L95.9821 90.5427C98.0936 85.0735 101.952 80.6422 106.827 78.0871L120.231 71.0618C123.592 69.2982 127.597 70.0578 130.23 72.9526C131.231 74.0542 131.946 75.3685 132.366 76.7753C132.368 76.7753 132.368 76.7777 132.368 76.7777C132.659 77.7524 132.805 78.7734 132.805 79.797C132.805 81.5777 132.359 83.3708 131.444 84.9611L125.923 94.5805L134.122 144.051L136.881 160.706L137.046 161.7Z" fill="#EAA283"/>
<path d="M136.882 160.706C136.715 161.041 136.551 161.373 136.386 161.7H101.317L96.0844 140.087C103.175 143.57 120.599 150.652 134.122 144.051C135.119 143.565 136.096 143.003 137.046 142.361C148.417 134.661 142.456 149.416 136.882 160.706Z" fill="#EA907A"/>
<path d="M132.366 76.7755C130.225 72.9551 120.981 77.2201 114.953 80.7353C109.434 83.9524 94.6279 104.674 92.9716 127.236L88.6711 109.469L95.9821 90.5429C98.0935 85.0737 101.952 80.6424 106.827 78.0873L120.231 71.062C123.592 69.2984 127.597 70.058 130.23 72.9528C131.231 74.0542 131.946 75.3685 132.366 76.7755Z" fill="#EA907A"/>
<path d="M145.111 76.8122L156.707 80.94L152.606 94.8858L141.01 90.758L145.111 76.8122Z" fill="#FFD064"/>
<path d="M158.946 85.8902C152.771 83.8931 146.65 81.7149 140.581 79.3558C138.119 78.3985 136.75 75.4712 137.546 72.7339C137.556 72.7011 137.565 72.6681 137.575 72.6353C138.387 69.9038 141.054 68.4122 143.56 69.2227C149.735 71.2198 155.856 73.3977 161.925 75.757C164.387 76.7143 165.756 79.6416 164.96 82.3789C164.95 82.4117 164.941 82.4448 164.931 82.4775C164.119 85.209 161.452 86.7006 158.946 85.8902Z" fill="#F6E266"/>
<path d="M148.73 82.4017C146.003 81.4219 143.288 80.406 140.58 79.3541C138.117 78.3951 136.749 75.4688 137.545 72.7322L137.574 72.6331C138.385 69.9022 141.052 68.4094 143.558 69.2203C146.313 70.112 149.055 71.0377 151.787 72.0002C149.366 71.5404 146.938 73.0604 146.156 75.6848L146.126 75.7874C145.363 78.4167 146.523 81.2151 148.73 82.4017Z" fill="#FFD064"/>
<path d="M160.223 144.764H149.62L137.047 161.7H160.223C164.474 161.7 167.92 157.909 167.92 153.232C167.92 148.555 164.474 144.764 160.223 144.764Z" fill="#EAA283"/>
<path d="M167.921 153.231C167.921 157.909 164.475 161.7 160.224 161.7H137.047L141.417 155.815H160.224C163.534 155.815 166.355 153.517 167.443 150.29C167.752 151.206 167.921 152.195 167.921 153.231Z" fill="#EA907A"/>
<path d="M137.047 161.701C155.937 161.701 171.25 144.852 171.25 124.068C171.25 103.284 155.937 86.4351 137.047 86.4351C118.157 86.4351 102.843 103.284 102.843 124.068C102.843 144.852 118.157 161.701 137.047 161.701Z" fill="#F6E266"/>
<path d="M139.243 161.624C138.517 161.673 137.784 161.7 137.047 161.7C118.156 161.7 102.843 144.85 102.843 124.067C102.843 103.284 118.156 86.4341 137.047 86.4341C137.784 86.4341 138.517 86.461 139.243 86.5097C121.382 87.7652 107.248 104.1 107.248 124.067C107.248 144.034 121.382 160.369 139.243 161.624Z" fill="#FFD064"/>
<path d="M137.047 152.829C151.484 152.829 163.188 139.952 163.188 124.067C163.188 108.182 151.484 95.3046 137.047 95.3046C122.609 95.3046 110.905 108.182 110.905 124.067C110.905 139.952 122.609 152.829 137.047 152.829Z" fill="#D3EFFB"/>
<path d="M141.615 152.413C140.167 152.689 138.677 152.83 137.159 152.83C122.721 152.83 111.017 139.952 111.017 124.067C111.017 108.182 122.721 95.3037 137.159 95.3037C138.677 95.3037 140.167 95.4454 141.615 95.7213C129.302 98.0469 119.93 109.853 119.93 124.067C119.93 138.281 129.301 150.087 141.615 152.413Z" fill="#9DC6FB"/>
<path d="M137.047 127.731C135.207 127.731 133.716 126.091 133.716 124.067V114.711C133.716 112.687 135.207 111.047 137.047 111.047C138.886 111.047 140.377 112.687 140.377 114.711V124.067C140.377 126.091 138.886 127.731 137.047 127.731Z" fill="#2B4D66"/>
<path d="M137.047 103.879C136.138 103.879 135.402 103.068 135.402 102.069V96.2863C135.402 95.2868 136.138 94.4766 137.047 94.4766C137.955 94.4766 138.691 95.2868 138.691 96.2863V102.069C138.691 103.068 137.955 103.879 137.047 103.879Z" fill="#698ED5"/>
<path d="M137.047 153.658C136.138 153.658 135.402 152.848 135.402 151.848V146.066C135.402 145.066 136.138 144.256 137.047 144.256C137.955 144.256 138.691 145.066 138.691 146.066V151.848C138.691 152.848 137.955 153.658 137.047 153.658Z" fill="#698ED5"/>
<path d="M162.296 125.877H157.041C156.132 125.877 155.396 125.067 155.396 124.067C155.396 123.068 156.132 122.258 157.041 122.258H162.296C163.205 122.258 163.941 123.068 163.941 124.067C163.941 125.067 163.205 125.877 162.296 125.877Z" fill="#698ED5"/>
<path d="M117.053 125.877H111.797C110.889 125.877 110.153 125.067 110.153 124.067C110.153 123.068 110.889 122.258 111.797 122.258H117.053C117.962 122.258 118.698 123.068 118.698 124.067C118.698 125.067 117.962 125.877 117.053 125.877Z" fill="#698ED5"/>
<path d="M156.228 113.693C155.66 113.693 155.107 113.369 154.802 112.788C154.348 111.923 154.618 110.816 155.404 110.316L158.091 108.609C158.878 108.11 159.884 108.406 160.338 109.272C160.792 110.137 160.523 111.244 159.736 111.744L157.049 113.451C156.79 113.615 156.507 113.693 156.228 113.693Z" fill="#698ED5"/>
<path d="M115.182 139.768C114.613 139.768 114.06 139.443 113.756 138.863C113.302 137.997 113.571 136.89 114.358 136.39L117.045 134.684C117.831 134.184 118.838 134.48 119.292 135.346C119.746 136.212 119.476 137.318 118.689 137.818L116.003 139.525C115.744 139.689 115.461 139.768 115.182 139.768Z" fill="#698ED5"/>
<path d="M148.119 104.774C147.84 104.774 147.557 104.696 147.298 104.531C146.511 104.032 146.242 102.925 146.696 102.059L148.247 99.1035C148.701 98.2377 149.707 97.9412 150.494 98.4411C151.28 98.9409 151.55 100.048 151.096 100.913L149.545 103.869C149.24 104.449 148.687 104.774 148.119 104.774Z" fill="#698ED5"/>
<path d="M124.421 149.936C124.142 149.936 123.859 149.858 123.6 149.693C122.813 149.194 122.543 148.087 122.998 147.221L124.549 144.265C125.003 143.4 126.009 143.103 126.796 143.603C127.582 144.103 127.852 145.21 127.398 146.075L125.847 149.031C125.542 149.611 124.989 149.936 124.421 149.936Z" fill="#698ED5"/>
<path d="M125.975 104.774C125.406 104.774 124.853 104.45 124.549 103.869L122.998 100.913C122.543 100.048 122.813 98.9408 123.6 98.4411C124.386 97.9415 125.393 98.2378 125.847 99.1035L127.398 102.059C127.852 102.925 127.582 104.032 126.796 104.532C126.537 104.696 126.254 104.774 125.975 104.774Z" fill="#698ED5"/>
<path d="M149.673 149.936C149.105 149.936 148.551 149.611 148.247 149.031L146.696 146.075C146.242 145.21 146.511 144.103 147.298 143.603C148.084 143.103 149.091 143.4 149.545 144.265L151.096 147.221C151.55 148.087 151.28 149.194 150.494 149.693C150.235 149.858 149.952 149.936 149.673 149.936Z" fill="#698ED5"/>
<path d="M117.865 113.693C117.586 113.693 117.304 113.615 117.044 113.451L114.358 111.744C113.571 111.244 113.301 110.137 113.756 109.272C114.21 108.406 115.216 108.11 116.003 108.609L118.689 110.316C119.476 110.816 119.746 111.923 119.291 112.788C118.987 113.369 118.434 113.693 117.865 113.693Z" fill="#698ED5"/>
<path d="M158.912 139.768C158.633 139.768 158.35 139.689 158.091 139.525L155.404 137.818C154.618 137.318 154.348 136.212 154.802 135.346C155.256 134.48 156.262 134.184 157.049 134.683L159.736 136.39C160.522 136.89 160.792 137.997 160.338 138.862C160.033 139.443 159.48 139.768 158.912 139.768Z" fill="#698ED5"/>
<path d="M137.047 154.639C121.725 154.639 109.261 140.925 109.261 124.067C109.261 107.21 121.725 93.4949 137.047 93.4949C152.368 93.4949 164.833 107.21 164.833 124.067C164.833 140.925 152.368 154.639 137.047 154.639ZM137.047 97.1143C123.539 97.1143 112.55 109.205 112.55 124.067C112.55 138.929 123.539 151.02 137.047 151.02C150.554 151.02 161.543 138.929 161.543 124.067C161.543 109.205 150.554 97.1143 137.047 97.1143Z" fill="#FFD064"/>
<path d="M101.317 161.7L82.6437 168L74.5934 134.742L70 115.767L88.6713 109.469L93.2649 128.442L101.317 161.7Z" fill="#ED2B3D"/>
<path d="M93.2647 128.442L74.5933 134.742L70 115.767L88.6711 109.469L93.2647 128.442Z" fill="#EE2746"/>
<path d="M9.27215 95.8294L11.7193 90.2145C12.1454 89.2367 12.6778 88.4324 13.3163 87.8017C13.9462 87.149 14.6985 86.6951 15.5733 86.44C16.4481 86.1849 17.4529 86.132 18.5878 86.2812C19.7227 86.4303 21.0083 86.8179 22.4445 87.4438C23.8807 88.0698 25.0397 88.7476 25.9216 89.4774C26.8034 90.2072 27.4487 90.9793 27.8573 91.7937C28.266 92.6081 28.4533 93.4715 28.4193 94.3839C28.3766 95.2744 28.1422 96.2085 27.716 97.1864L25.2689 102.801L9.27215 95.8294ZM24.8513 95.9378C25.657 94.0891 24.9904 92.6986 22.8513 91.7664L19.0011 90.0884C16.8621 89.1561 15.3897 89.6144 14.584 91.4631L13.5652 93.8007L23.8325 98.2755L24.8513 95.9378Z" fill="#EE5B3B"/>
<path d="M224.249 84.1264L226.872 82.701L226.824 82.3039L223.944 82.8538L214.811 83.9588L214.409 80.633L231.732 78.5372L232.201 82.4089L223.447 87.9001L220.824 89.3254L220.872 89.7225L223.752 89.1726L232.885 88.0677L233.288 91.3934L215.964 93.4893L215.495 89.6175L224.249 84.1264Z" fill="#EE5B3B"/>
<path d="M202.879 67.5291C202.474 66.5603 202.254 65.6227 202.218 64.7164C202.198 63.8036 202.403 62.9322 202.832 62.1022C203.278 61.2658 203.959 60.4752 204.876 59.7306C205.808 58.9795 207.028 58.289 208.535 57.6591C210.042 57.0291 211.383 56.6494 212.557 56.5198C213.746 56.3838 214.788 56.4544 215.68 56.7316C216.588 57.0023 217.352 57.4688 217.972 58.1309C218.608 58.7865 219.128 59.5988 219.533 60.5675C219.938 61.5363 220.15 62.4771 220.171 63.3899C220.206 64.2962 220.001 65.1676 219.556 66.004C219.126 66.834 218.445 67.6245 217.513 68.3756C216.596 69.1203 215.384 69.8076 213.877 70.4375C212.37 71.0675 211.021 71.4504 209.832 71.5864C208.658 71.716 207.617 71.6454 206.709 71.3746C205.816 71.0975 205.052 70.631 204.417 69.9754C203.797 69.3133 203.284 68.4978 202.879 67.5291ZM205.785 66.3142C206.171 67.2368 206.744 67.8284 207.503 68.0891C208.269 68.3651 209.205 68.2718 210.312 67.8089L214.51 66.0541C215.617 65.5913 216.342 64.9904 216.683 64.2516C217.031 63.5281 217.012 62.705 216.626 61.7824C216.241 60.8598 215.665 60.2604 214.899 59.9844C214.14 59.7237 213.207 59.8248 212.1 60.2876L207.902 62.0425C206.795 62.5053 206.067 63.0985 205.719 63.8219C205.378 64.5608 205.4 65.3915 205.785 66.3142Z" fill="#EE5B3B"/>
<path d="M36.9233 82.7239L34.2549 81.7963L34.9281 79.86L23.7823 75.9853L23.1092 77.9217L20.4408 76.9941L22.961 69.7446L25.6294 70.6722L24.9562 72.6086L36.1019 76.4832L36.7751 74.5469L39.4434 75.4745L36.9233 82.7239Z" fill="#EE5B3B"/>
<path d="M71.6573 42.4383C70.6729 42.8038 69.7272 42.9859 68.8201 42.9849C67.9072 42.9682 67.0448 42.7283 66.2329 42.2652C65.4152 41.7866 64.6529 41.074 63.946 40.1275C63.2333 39.1654 62.5928 37.9187 62.0243 36.3875C61.4559 34.8562 61.1308 33.5014 61.0488 32.3229C60.9611 31.1287 61.0738 30.0914 61.3869 29.2107C61.6942 28.3144 62.1912 27.5699 62.8778 26.9772C63.5587 26.3689 64.3913 25.882 65.3757 25.5166C66.36 25.1512 67.3087 24.9769 68.2215 24.9936C69.1286 24.9946 69.991 25.2345 70.8087 25.7132C71.6206 26.1762 72.3829 26.8888 73.0956 27.8509C73.8025 28.7974 74.4402 30.0363 75.0086 31.5675C75.577 33.0988 75.9051 34.4614 75.9928 35.6556C76.0747 36.834 75.962 37.8714 75.6547 38.7677C75.3416 39.6484 74.8447 40.3929 74.1638 41.0012C73.4771 41.5939 72.6416 42.0729 71.6573 42.4383ZM70.561 39.4853C71.4985 39.1372 72.1129 38.5892 72.404 37.8411C72.7109 37.0872 72.6555 36.1477 72.2378 35.0228L70.6544 30.7572C70.2368 29.6322 69.6658 28.8841 68.9413 28.5131C68.2325 28.1362 67.4094 28.1217 66.4719 28.4697C65.5344 28.8177 64.9123 29.3687 64.6054 30.1226C64.3143 30.8707 64.3775 31.8072 64.7951 32.9322L66.3785 37.1978C66.7961 38.3228 67.3593 39.0737 68.0681 39.4506C68.7926 39.8217 69.6235 39.8333 70.561 39.4853Z" fill="#EE5B3B"/>
<path d="M88.5063 34.3258L81.5057 18.3417L88.4215 15.3127C89.8565 14.6842 91.1487 14.6641 92.2979 15.2525C93.4472 15.8409 94.3561 16.8984 95.0248 18.4251C95.6934 19.9517 95.8543 21.3369 95.5074 22.5805C95.1605 23.8241 94.2695 24.7602 92.8345 25.3887L89.1934 26.9834L91.781 32.8916L88.5063 34.3258ZM87.9397 24.1209L91.1686 22.7068C91.6113 22.5129 91.9047 22.2479 92.0486 21.9119C92.2079 21.5693 92.1705 21.1308 91.9365 20.5964L91.3347 19.2224C91.1007 18.6881 90.8037 18.3633 90.4439 18.2479C90.0993 18.1259 89.7057 18.1619 89.263 18.3558L86.0341 19.7699L87.9397 24.1209Z" fill="#EE5B3B"/>
<path d="M133.854 26.4567L130.3 26.0718L132.179 8.72325L139.685 9.53624C141.243 9.70494 142.374 10.3221 143.081 11.3876C143.787 12.4532 144.051 13.8062 143.873 15.4466C143.735 16.7224 143.378 17.7735 142.802 18.5996C142.227 19.4258 141.448 19.9617 140.466 20.2073L142.752 27.4205L138.9 27.0032L136.926 20.1509L134.565 19.8951L133.854 26.4567ZM138.39 17.317C138.87 17.369 139.256 17.2934 139.546 17.0902C139.855 16.8721 140.041 16.4649 140.106 15.8684L140.267 14.3771C140.332 13.7806 140.236 13.3511 139.979 13.0886C139.741 12.8113 139.382 12.6467 138.901 12.5946L135.397 12.215L134.885 16.9374L138.39 17.317Z" fill="#EE5B3B"/>
<path d="M160.372 32.4433L161.441 28.1669L156.724 25.6424L153.759 28.9043L150.739 27.2882L163.338 14.2387L167.349 16.3857L163.48 34.1066L160.372 32.4433ZM162.978 21.1632L163.92 18.2366L163.567 18.0479L161.655 20.4554L158.852 23.5205L162.026 25.2192L162.978 21.1632Z" fill="#EE5B3B"/>
<path d="M176.452 36.8287C175.871 35.954 175.473 35.068 175.257 34.1708C175.051 33.2876 175.069 32.3955 175.311 31.4945C175.562 30.6075 176.063 29.7047 176.814 28.7862C177.573 27.8816 178.634 26.9775 179.994 26.074C181.355 25.1705 182.606 24.5395 183.749 24.181C184.914 23.8272 185.969 23.6974 186.911 23.7916C187.863 23.8997 188.713 24.2156 189.461 24.7393C190.232 25.2677 190.908 25.9692 191.489 26.844C192.356 28.1491 192.753 29.3656 192.682 30.4933C192.633 31.6257 192.201 32.8129 191.386 34.0549L188.338 32.3575C188.588 32.0713 188.808 31.7851 188.998 31.4989C189.197 31.2265 189.327 30.9402 189.388 30.6398C189.449 30.3395 189.435 30.0182 189.348 29.6759C189.284 29.3384 189.123 28.9752 188.865 28.5865C188.312 27.7534 187.628 27.2668 186.815 27.1266C186.002 26.9864 185.095 27.2482 184.096 27.912L180.305 30.429C179.305 31.0928 178.712 31.8267 178.526 32.6306C178.34 33.4346 178.523 34.2531 179.076 35.0862C179.334 35.475 179.611 35.7713 179.907 35.9752C180.225 36.1838 180.546 36.3208 180.87 36.3861C181.207 36.4422 181.549 36.4451 181.896 36.3949C182.257 36.3355 182.629 36.2484 183.013 36.1335L183.228 39.5314C182.521 39.6411 181.851 39.6861 181.217 39.6664C180.584 39.6468 179.981 39.537 179.408 39.3372C178.858 39.142 178.337 38.8383 177.843 38.426C177.349 38.0137 176.885 37.4812 176.452 36.8287Z" fill="#EE5B3B"/>
<path d="M188.395 49.952L190.553 48.1292L191.876 49.6953L200.891 42.0814L199.568 40.5153L201.726 38.6925L206.679 44.556L204.52 46.3788L203.198 44.8127L194.183 52.4265L195.505 53.9927L193.347 55.8155L188.395 49.952Z" fill="#EE5B3B"/>
<path d="M107.171 28.08L105.598 10.701L116.355 9.72788L116.636 12.8402L109.44 13.4911L109.796 17.4251L115.896 16.8732L116.176 19.9606L110.076 20.5125L110.45 24.6456L117.645 23.9946L117.927 27.1069L107.171 28.08Z" fill="#EE5B3B"/>
<path d="M47.4013 57.4535L43.1458 56.3034L40.5327 60.9718L43.7379 63.998L42.065 66.9866L29.256 54.1439L31.4784 50.1736L49.123 54.3776L47.4013 57.4535ZM36.1725 54.6347L33.2642 53.6371L33.0689 53.9862L35.4398 55.9436L38.4513 58.804L40.2097 55.6627L36.1725 54.6347Z" fill="#EE5B3B"/>
<path d="M222.294 127.704L239.744 127.777L239.729 131.352L225.404 131.292L225.379 137.217L222.254 137.203L222.294 127.704Z" fill="#EE5B3B"/>
<path d="M221.769 112.863L225.991 111.595L225.749 106.251L221.43 105.37L221.275 101.949L238.931 106.104L239.137 110.649L221.929 116.384L221.769 112.863ZM232.796 109.335L235.793 108.649L235.775 108.249L232.728 107.837L228.661 106.995L228.824 110.591L232.796 109.335Z" fill="#EE5B3B"/>
<defs>
<filter id="filter0_d" x="29" y="36" width="191" height="182" filterUnits="userSpaceOnUse" color-interpolation-filters="sRGB">
<feFlood flood-opacity="0" result="BackgroundImageFix"/>
<feColorMatrix in="SourceAlpha" type="matrix" values="0 0 0 0 0 0 0 0 0 0 0 0 0 0 0 0 0 0 127 0"/>
<feOffset dy="4"/>
<feGaussianBlur stdDeviation="2"/>
<feColorMatrix type="matrix" values="0 0 0 0 0 0 0 0 0 0 0 0 0 0 0 0 0 0 0.25 0"/>
<feBlend mode="normal" in2="BackgroundImageFix" result="effect1_dropShadow"/>
<feBlend mode="normal" in="SourceGraphic" in2="effect1_dropShadow" result="shape"/>
</filter>
</defs>
</svg>
