<svg width="101" height="255" viewBox="0 0 101 255" fill="none" xmlns="http://www.w3.org/2000/svg">
<g filter="url(#filter0_d)">
<rect x="4" width="93" height="247" rx="5" fill="#67BC6F"/>
</g>
<g filter="url(#filter1_d)">
<rect x="15.5" y="10.5" width="71" height="224" rx="4.5" stroke="white"/>
</g>
<line x1="15" y1="155.5" x2="87" y2="155.5" stroke="white"/>
<path d="M43.4411 186V176.926H49.0571V178.551H45.3001V180.605H48.4851V182.217H45.3001V184.375H49.0571V186H43.4411ZM55.5939 181.138L55.0219 179.695H54.8139L54.9179 181.216V186H53.1759V176.926H55.2039L57.4919 181.788L58.0639 183.231H58.2719L58.1679 181.71V176.926H59.9099V186H57.8819L55.5939 181.138ZM31.0181 203.156C30.4721 203.156 29.9737 203.074 29.5231 202.909C29.0811 202.744 28.6997 202.48 28.3791 202.116C28.0671 201.752 27.8201 201.275 27.6381 200.686C27.4647 200.097 27.3781 199.377 27.3781 198.528C27.3781 197.679 27.4647 196.955 27.6381 196.357C27.8201 195.75 28.0671 195.256 28.3791 194.875C28.6997 194.494 29.0811 194.216 29.5231 194.043C29.9737 193.861 30.4721 193.77 31.0181 193.77C31.8327 193.77 32.4741 193.948 32.9421 194.303C33.4187 194.65 33.8087 195.178 34.1121 195.889L32.5001 196.721C32.4481 196.53 32.3874 196.353 32.3181 196.188C32.2574 196.023 32.1707 195.885 32.0581 195.772C31.9454 195.659 31.8024 195.573 31.6291 195.512C31.4644 195.443 31.2607 195.408 31.0181 195.408C30.4981 195.408 30.0907 195.564 29.7961 195.876C29.5014 196.188 29.3541 196.656 29.3541 197.28V199.646C29.3541 200.27 29.5014 200.738 29.7961 201.05C30.0907 201.362 30.4981 201.518 31.0181 201.518C31.2607 201.518 31.4687 201.483 31.6421 201.414C31.8241 201.336 31.9757 201.236 32.0971 201.115C32.2184 200.985 32.3181 200.838 32.3961 200.673C32.4741 200.5 32.5434 200.313 32.6041 200.114L34.1381 200.998C33.9821 201.336 33.8087 201.639 33.6181 201.908C33.4274 202.177 33.2064 202.406 32.9551 202.597C32.7124 202.779 32.4307 202.918 32.1101 203.013C31.7894 203.108 31.4254 203.156 31.0181 203.156ZM39.7523 193.926V199.815C39.7523 200.413 39.852 200.846 40.0513 201.115C40.2593 201.375 40.6277 201.505 41.1563 201.505C41.685 201.505 42.049 201.375 42.2483 201.115C42.4563 200.846 42.5603 200.413 42.5603 199.815V193.926H44.4193V199.568C44.4193 200.209 44.363 200.755 44.2503 201.206C44.1377 201.657 43.9513 202.029 43.6913 202.324C43.44 202.61 43.1063 202.822 42.6903 202.961C42.2743 203.091 41.763 203.156 41.1563 203.156C40.5497 203.156 40.0383 203.091 39.6223 202.961C39.2063 202.822 38.8683 202.61 38.6083 202.324C38.357 202.029 38.175 201.657 38.0623 201.206C37.9497 200.755 37.8933 200.209 37.8933 199.568V193.926H39.7523ZM50.5928 203H48.7338V193.926H52.6598C53.4745 193.926 54.0941 194.182 54.5188 194.693C54.9435 195.204 55.1558 195.889 55.1558 196.747C55.1558 197.414 55.0301 197.978 54.7788 198.437C54.5275 198.896 54.1548 199.217 53.6608 199.399L55.2468 203H53.2318L51.8278 199.568H50.5928V203ZM52.4258 198.021C52.6771 198.021 52.8721 197.96 53.0108 197.839C53.1581 197.709 53.2318 197.488 53.2318 197.176V196.396C53.2318 196.084 53.1581 195.867 53.0108 195.746C52.8721 195.616 52.6771 195.551 52.4258 195.551H50.5928V198.021H52.4258ZM61.9204 203.156C60.5597 203.156 59.4937 202.679 58.7224 201.726L59.9184 200.53C60.4384 201.197 61.1187 201.531 61.9594 201.531C62.826 201.531 63.2594 201.15 63.2594 200.387C63.2594 200.075 63.1814 199.832 63.0254 199.659C62.8694 199.486 62.6267 199.364 62.2974 199.295L61.4654 199.139C60.6247 198.983 60.005 198.693 59.6064 198.268C59.2164 197.835 59.0214 197.237 59.0214 196.474C59.0214 195.59 59.2814 194.918 59.8014 194.459C60.3214 194 61.084 193.77 62.0894 193.77C63.372 193.77 64.347 194.186 65.0144 195.018L63.8184 196.214C63.593 195.937 63.3374 195.733 63.0514 195.603C62.774 195.464 62.4447 195.395 62.0634 195.395C61.6474 195.395 61.344 195.473 61.1534 195.629C60.9714 195.785 60.8804 196.036 60.8804 196.383C60.8804 196.686 60.9497 196.916 61.0884 197.072C61.2357 197.228 61.4697 197.341 61.7904 197.41L62.6224 197.579C63.0644 197.674 63.4414 197.791 63.7534 197.93C64.074 198.06 64.334 198.229 64.5334 198.437C64.7414 198.645 64.8887 198.892 64.9754 199.178C65.0707 199.464 65.1184 199.798 65.1184 200.179C65.1184 201.15 64.8454 201.891 64.2994 202.402C63.7534 202.905 62.9604 203.156 61.9204 203.156ZM72.381 203.156C71.835 203.156 71.341 203.074 70.899 202.909C70.457 202.736 70.08 202.463 69.768 202.09C69.456 201.709 69.2133 201.223 69.04 200.634C68.8667 200.036 68.78 199.312 68.78 198.463C68.78 197.614 68.8667 196.894 69.04 196.305C69.2133 195.707 69.456 195.222 69.768 194.849C70.08 194.468 70.457 194.195 70.899 194.03C71.341 193.857 71.835 193.77 72.381 193.77C72.927 193.77 73.421 193.857 73.863 194.03C74.305 194.195 74.682 194.468 74.994 194.849C75.306 195.222 75.5487 195.707 75.722 196.305C75.8953 196.894 75.982 197.614 75.982 198.463C75.982 199.312 75.8953 200.036 75.722 200.634C75.5487 201.223 75.306 201.709 74.994 202.09C74.682 202.463 74.305 202.736 73.863 202.909C73.421 203.074 72.927 203.156 72.381 203.156ZM72.381 201.518C72.901 201.518 73.2997 201.362 73.577 201.05C73.863 200.738 74.006 200.27 74.006 199.646V197.28C74.006 196.656 73.863 196.188 73.577 195.876C73.2997 195.564 72.901 195.408 72.381 195.408C71.861 195.408 71.458 195.564 71.172 195.876C70.8947 196.188 70.756 196.656 70.756 197.28V199.646C70.756 200.27 70.8947 200.738 71.172 201.05C71.458 201.362 71.861 201.518 72.381 201.518Z" fill="white"/>
<path d="M68.2891 56.25H60.6719V48.375H38.3281V66.375H60.6719V58.5H68.2891C73.6092 58.5 77.9375 63.2944 77.9375 69.1875C77.9375 72.0357 76.9318 74.718 75.1068 76.7395C73.2809 78.7615 70.8599 79.875 68.2891 79.875H61.0527L63.7188 72H41.375L38.709 79.875H30.7109C24.271 79.875 19.0312 85.6785 19.0312 92.8125C19.0312 96.2622 20.2482 99.5092 22.457 101.955C24.6668 104.403 27.5976 105.75 30.7109 105.75H38.3281V113.625H60.6719V105.75H64.8151C65.3091 109.565 68.2632 112.5 71.8438 112.5C75.7701 112.5 78.9531 108.974 78.9531 104.625C78.9531 100.276 75.7701 96.75 71.8438 96.75C68.2632 96.75 65.3091 99.6851 64.8151 103.5H60.6719V95.625H38.3281V103.5H30.7109C28.1401 103.5 25.7191 102.387 23.8932 100.365C22.0682 98.343 21.0625 95.6607 21.0625 92.8125C21.0625 86.9194 25.3908 82.125 30.7109 82.125H37.9473L35.2812 90H57.625L60.291 82.125H68.2891C71.4024 82.125 74.3332 80.7775 76.543 78.3303C78.7518 75.8842 79.9688 72.6372 79.9688 69.1875C79.9688 62.0535 74.729 56.25 68.2891 56.25ZM57.625 63H41.375V60.75H57.625V63ZM57.625 58.5H41.375V56.25H57.625V58.5ZM57.625 54H41.375V51.75H57.625V54ZM69.515 103.83L70.8281 105.284L74.1725 101.58L75.6087 103.17L70.8281 108.466L68.0788 105.42L69.515 103.83ZM41.375 99H57.625V101.25H41.375V99ZM41.375 103.5H57.625V105.75H41.375V103.5ZM41.375 108H57.625V110.25H41.375V108ZM54.5781 86.625H40.3594V84.375H54.5781V86.625ZM56.6094 82.125H42.3906V79.875H56.6094V82.125ZM58.6406 77.625H44.4219V75.375H58.6406V77.625Z" fill="white"/>
<defs>
<filter id="filter0_d" x="0" y="0" width="101" height="255" filterUnits="userSpaceOnUse" color-interpolation-filters="sRGB">
<feFlood flood-opacity="0" result="BackgroundImageFix"/>
<feColorMatrix in="SourceAlpha" type="matrix" values="0 0 0 0 0 0 0 0 0 0 0 0 0 0 0 0 0 0 127 0"/>
<feOffset dy="4"/>
<feGaussianBlur stdDeviation="2"/>
<feColorMatrix type="matrix" values="0 0 0 0 0 0 0 0 0 0 0 0 0 0 0 0 0 0 0.25 0"/>
<feBlend mode="normal" in2="BackgroundImageFix" result="effect1_dropShadow"/>
<feBlend mode="normal" in="SourceGraphic" in2="effect1_dropShadow" result="shape"/>
</filter>
<filter id="filter1_d" x="11" y="10" width="80" height="233" filterUnits="userSpaceOnUse" color-interpolation-filters="sRGB">
<feFlood flood-opacity="0" result="BackgroundImageFix"/>
<feColorMatrix in="SourceAlpha" type="matrix" values="0 0 0 0 0 0 0 0 0 0 0 0 0 0 0 0 0 0 127 0"/>
<feOffset dy="4"/>
<feGaussianBlur stdDeviation="2"/>
<feColorMatrix type="matrix" values="0 0 0 0 0 0 0 0 0 0 0 0 0 0 0 0 0 0 0.25 0"/>
<feBlend mode="normal" in2="BackgroundImageFix" result="effect1_dropShadow"/>
<feBlend mode="normal" in="SourceGraphic" in2="effect1_dropShadow" result="shape"/>
</filter>
</defs>
</svg>
