<svg width="28" height="28" viewBox="0 0 28 28" fill="none" xmlns="http://www.w3.org/2000/svg">
<path d="M27.9435 10.7615C27.8035 10.3308 27.4365 10.0373 26.9855 9.99542L18.425 9.20146L16.7281 5.26101C16.6385 5.05298 16.3973 4.95684 16.1892 5.04653C15.9812 5.1361 15.8851 5.37739 15.9747 5.58536L17.768 9.74949C17.8274 9.88735 17.9574 9.9818 18.1068 9.99564L26.9098 10.8121C27.0845 10.8283 27.1454 10.9593 27.1635 11.0148C27.1815 11.0704 27.2093 11.2122 27.0775 11.3279L20.4355 17.1629C20.3227 17.262 20.2731 17.4147 20.3061 17.5612L22.25 26.1856C22.2886 26.3568 22.1828 26.4552 22.1354 26.4895C22.0882 26.5238 21.9621 26.5942 21.8111 26.5045L14.2094 21.9907C14.0803 21.9142 13.9196 21.9142 13.7906 21.9907L6.18888 26.5045C6.03795 26.5943 5.91184 26.5238 5.86453 26.4895C5.81723 26.4552 5.71141 26.3568 5.74996 26.1857L6.75337 21.7338C6.80319 21.5128 6.66439 21.2933 6.44345 21.2435C6.22213 21.1937 6.003 21.3325 5.95318 21.5534L4.94977 26.0053C4.85024 26.4471 5.016 26.8869 5.38235 27.1531C5.7487 27.4192 6.21825 27.4411 6.60757 27.2098L13.9999 22.8203L21.3922 27.2098C21.5716 27.3163 21.7679 27.3691 21.9633 27.3691C22.1922 27.3691 22.4198 27.2967 22.6174 27.1531C22.9838 26.8869 23.1495 26.4472 23.05 26.0053L21.1597 17.6184L27.6188 11.9443C27.959 11.6454 28.0834 11.1922 27.9435 10.7615Z" fill="#F6BC26"/>
<path d="M15.9743 3.51065L15.0245 1.30522C14.8454 0.889264 14.4528 0.63092 13.9999 0.63092C13.5471 0.63092 13.1545 0.889319 12.9753 1.30527L9.57486 9.20149L1.01451 9.99539C0.563614 10.0372 0.196497 10.3307 0.0564967 10.7615C-0.0834486 11.1921 0.0409654 11.6454 0.381231 11.9443L6.84015 17.6184L6.34846 19.8C6.29864 20.021 6.43743 20.2405 6.65837 20.2903C6.68878 20.2971 6.71907 20.3004 6.74893 20.3004C6.93651 20.3004 7.10572 20.171 7.14864 19.9803L7.69388 17.5611C7.72691 17.4146 7.67725 17.2618 7.56449 17.1628L0.922583 11.328C0.790786 11.2122 0.818567 11.0705 0.836669 11.0149C0.854715 10.9594 0.915528 10.8283 1.09025 10.8121L9.89319 9.99572C10.0427 9.98188 10.1726 9.88743 10.232 9.74957L13.7288 1.62973C13.7982 1.46862 13.9415 1.45118 13.9999 1.45118C14.0584 1.45118 14.2018 1.46857 14.2712 1.62968L15.221 3.83506C15.3106 4.04309 15.5518 4.13918 15.7598 4.04955C15.9678 3.95997 16.0639 3.71869 15.9743 3.51065Z" fill="#F6BC26"/>
</svg>
