<svg width="27" height="27" viewBox="0 0 27 27" fill="none" xmlns="http://www.w3.org/2000/svg">
<g clip-path="url(#clip0)">
<path d="M26.3629 9.92778L17.6175 9.11668L14.1436 1.04997C13.9004 0.485134 13.0995 0.485134 12.8563 1.04997L9.38245 9.11673L0.637045 9.92778C0.0246945 9.98458 -0.222787 10.7462 0.239218 11.1521L6.83765 16.9487L4.90662 25.5168C4.77141 26.1167 5.41931 26.5874 5.94807 26.2734L13.5 21.7892L21.0519 26.2734C21.5807 26.5874 22.2286 26.1167 22.0934 25.5168L20.1623 16.9487L26.7608 11.1521C27.2228 10.7462 26.9753 9.98458 26.3629 9.92778Z" fill="#FFDC64"/>
<path d="M14.1436 1.04997C13.9004 0.485134 13.0995 0.485134 12.8563 1.04997L9.38244 9.11673L0.637045 9.92778C0.0246945 9.98458 -0.222787 10.7462 0.239218 11.1521L6.83765 16.9487L4.90662 25.5168C4.77141 26.1167 5.4193 26.5874 5.94807 26.2734L7.63362 25.2726C7.86691 15.6696 12.3288 8.90711 15.8613 5.03858L14.1436 1.04997Z" fill="#FFC850"/>
</g>
<defs>
<clipPath id="clip0">
<rect width="27" height="27" fill="white"/>
</clipPath>
</defs>
</svg>
